<svg xmlns="http://www.w3.org/2000/svg" xmlns:xlink="http://www.w3.org/1999/xlink" width="1920" zoomAndPan="magnify" viewBox="0 0 1440 809.999993" height="1080" preserveAspectRatio="xMidYMid meet" version="1.0"><defs><clipPath id="3b93ee18d8"><path d="M 640 81.507812 L 798.382812 81.507812 L 798.382812 656.496094 L 640 656.496094 Z M 640 81.507812 " clip-rule="nonzero"/></clipPath><clipPath id="196fd10997"><path d="M 618.65625 528.058594 L 641.429688 528.058594 L 641.429688 534.878906 L 618.65625 534.878906 Z M 618.65625 528.058594 " clip-rule="nonzero"/></clipPath></defs><rect x="-144" width="1728" fill="#ffffff" y="-80.999999" height="971.999992" fill-opacity="1"/><rect x="-144" width="1728" fill="#ffffff" y="-80.999999" height="971.999992" fill-opacity="1"/><rect x="-144" width="1728" fill="#ffffff" y="-80.999999" height="971.999992" fill-opacity="1"/><g clip-path="url(#3b93ee18d8)"><path fill="#2f2851" d="M 649.949219 276.261719 C 643.785156 257.914062 640.453125 238.613281 640.261719 219.261719 C 639.863281 179.222656 652.902344 139.171875 676.804688 107.035156 C 680.421875 102.171875 703.457031 74.988281 709.589844 82.960938 C 696.8125 96.632812 683.417969 108.199219 673.15625 124.273438 C 662.863281 140.382812 655.214844 158.195312 650.789062 176.796875 C 641.828125 214.5 646.164062 255.21875 662.867188 290.195312 C 689.773438 346.542969 745.410156 384.605469 774.863281 439.671875 C 783.289062 455.417969 789.429688 472.355469 793.324219 489.785156 C 796.8125 505.382812 798.507812 521.386719 798.363281 537.375 C 797.953125 582.722656 780.136719 630.585938 741.925781 655.082031 C 738.9375 656.996094 733.246094 657.316406 733.519531 653.78125 C 779.140625 624.542969 798.570312 564.6875 790.667969 511.117188 C 782.765625 457.542969 751.757812 409.871094 714.863281 370.199219 C 702.757812 357.183594 689.914062 344.785156 679.027344 330.734375 C 666.355469 314.382812 656.539062 295.863281 649.949219 276.261719 " fill-opacity="1" fill-rule="nonzero"/></g><path fill="#2f2851" d="M 738.855469 289.445312 C 738.1875 288.878906 737.613281 288.171875 737.0625 287.480469 C 725.964844 273.480469 715.371094 258.316406 711.691406 240.835938 C 708.675781 226.492188 710.566406 211.445312 715.046875 197.480469 C 719.527344 183.523438 726.511719 170.511719 733.828125 157.804688 C 740.710938 145.859375 753.945312 159.933594 760.488281 166.101562 C 777.214844 181.875 784.703125 206.242188 781.730469 229.03125 C 778.757812 251.824219 765.964844 272.792969 748.347656 287.566406 C 746.027344 289.511719 742.957031 291.46875 740.171875 290.277344 C 739.6875 290.074219 739.253906 289.78125 738.855469 289.445312 Z M 743.289062 296.308594 C 745.859375 295.46875 748.277344 293.769531 750.417969 292.054688 C 774.292969 272.890625 790.359375 242.742188 788.019531 212.234375 C 786.800781 196.347656 780.414062 181.015625 770.476562 168.597656 C 762.644531 158.8125 744.449219 138.574219 732.121094 150.828125 C 728.992188 153.941406 726.871094 157.894531 724.828125 161.804688 C 718.226562 174.445312 711.9375 187.347656 708.007812 201.054688 C 704.078125 214.757812 702.582031 229.398438 705.667969 243.316406 C 709.355469 259.957031 719.234375 274.449219 728.902344 288.484375 C 731.371094 292.066406 734.289062 295.953125 738.574219 296.714844 C 740.183594 297 741.765625 296.808594 743.289062 296.308594 " fill-opacity="1" fill-rule="nonzero"/><path fill="#2f2851" d="M 754.140625 298.300781 C 757.0625 294.488281 766.476562 313.234375 767.371094 314.847656 C 768.210938 316.359375 769.042969 318.269531 768.09375 319.714844 C 764.605469 319.726562 762.183594 316.371094 760.382812 313.386719 C 758.582031 310.394531 756.773438 307.402344 754.972656 304.410156 C 754.097656 302.957031 753.1875 301.3125 753.574219 299.667969 C 753.714844 299.054688 753.90625 298.609375 754.140625 298.300781 " fill-opacity="1" fill-rule="nonzero"/><path fill="#2f2851" d="M 813.785156 183.988281 C 813.570312 184.363281 813.230469 184.777344 812.742188 185.230469 C 811.25 186.625 809.003906 186.683594 806.96875 186.808594 C 801.761719 187.125 796.617188 188.382812 791.847656 190.503906 C 790.972656 189.59375 791.253906 188.011719 792.105469 187.078125 C 792.953125 186.144531 794.199219 185.699219 795.394531 185.285156 C 799.15625 183.988281 805.164062 180.476562 809.101562 180.546875 C 810.960938 180.582031 815.28125 181.394531 813.785156 183.988281 " fill-opacity="1" fill-rule="nonzero"/><path fill="#2f2851" d="M 762.59375 142.117188 C 762.566406 142.136719 762.539062 142.152344 762.507812 142.164062 C 761.648438 142.640625 760.550781 141.753906 760.429688 140.777344 C 760.308594 139.800781 760.828125 138.875 761.320312 138.027344 C 763.09375 135 764.863281 131.972656 766.636719 128.941406 C 767.742188 127.050781 775.992188 119.210938 774.796875 126.363281 C 774.585938 127.625 773.746094 128.671875 772.929688 129.660156 C 769.667969 133.632812 766.398438 137.609375 763.132812 141.578125 C 762.96875 141.777344 762.800781 141.976562 762.59375 142.117188 " fill-opacity="1" fill-rule="nonzero"/><path fill="#2f2851" d="M 798.46875 224.203125 C 798.410156 224.148438 798.359375 224.09375 798.308594 224.03125 C 797.402344 222.914062 798.519531 221.144531 799.917969 220.78125 C 801.308594 220.414062 802.757812 220.910156 804.179688 221.136719 C 807.882812 221.730469 811.492188 220.5 815.15625 220.199219 C 816.171875 220.113281 819.824219 219.621094 820.4375 220.722656 C 821.125 221.964844 818.824219 223.917969 817.957031 224.394531 C 816.5625 225.15625 814.9375 225.375 813.351562 225.480469 C 809.074219 225.769531 804.785156 225.320312 800.519531 224.875 C 799.789062 224.800781 798.992188 224.6875 798.46875 224.203125 " fill-opacity="1" fill-rule="nonzero"/><path fill="#2f2851" d="M 812.300781 266.078125 C 811.484375 266.117188 810.558594 265.699219 809.8125 265.265625 C 805.589844 262.820312 801.363281 260.378906 797.136719 257.933594 C 795.304688 256.875 793.285156 255.550781 792.945312 253.460938 C 797.691406 250.558594 807.191406 258.894531 811.257812 261.21875 C 812.097656 261.695312 812.964844 262.207031 813.492188 263.015625 C 814.019531 263.824219 814.074219 265.027344 813.355469 265.667969 C 813.046875 265.9375 812.6875 266.0625 812.300781 266.078125 " fill-opacity="1" fill-rule="nonzero"/><path fill="#2f2851" d="M 792.671875 155.527344 C 792.859375 155.953125 793.476562 156.152344 793.871094 155.882812 C 790 156.824219 786.308594 158.503906 783.0625 160.8125 C 782.324219 161.332031 781.453125 161.917969 780.589844 161.652344 C 779.574219 161.34375 779.242188 159.964844 779.664062 158.992188 C 780.09375 158.019531 781.011719 157.375 781.886719 156.78125 C 784.96875 154.683594 788.050781 152.589844 791.128906 150.496094 C 800.515625 144.109375 799.949219 155.261719 792.644531 155.441406 C 792.648438 155.46875 792.664062 155.496094 792.671875 155.527344 " fill-opacity="1" fill-rule="nonzero"/><path fill="#2f2851" d="M 795.902344 296.890625 C 795.371094 296.921875 794.734375 296.605469 794.269531 296.269531 C 789.078125 292.535156 783.972656 288.675781 778.964844 284.703125 C 778.621094 284.425781 778.257812 284.136719 778.078125 283.734375 C 777.671875 282.84375 778.335938 281.761719 779.230469 281.355469 C 784.03125 279.167969 792.789062 291.414062 795.882812 294.464844 C 796.453125 295.027344 797.054688 295.90625 796.574219 296.542969 C 796.402344 296.773438 796.164062 296.875 795.902344 296.890625 " fill-opacity="1" fill-rule="nonzero"/><path fill="#2f2851" d="M 744.070312 196.75 C 743.90625 196.761719 743.742188 196.78125 743.585938 196.792969 C 738.617188 197.269531 733.628906 199.28125 730.425781 203.105469 C 727.765625 206.277344 726.539062 210.394531 725.710938 214.445312 C 724.835938 218.71875 724.339844 223.191406 725.472656 227.402344 C 727.746094 235.851562 736.371094 241.472656 745.070312 242.480469 C 749.316406 242.976562 753.738281 242.539062 757.609375 240.722656 C 761.671875 238.8125 764.957031 235.441406 767.121094 231.511719 C 770.15625 225.984375 771 219.296875 769.433594 213.1875 C 768.148438 208.179688 765.242188 203.546875 761.273438 200.226562 C 757.105469 196.734375 749.457031 196.300781 744.070312 196.75 Z M 749.78125 190.941406 C 758.371094 191.480469 766.660156 195.222656 771.089844 202.984375 C 773.558594 207.320312 774.8125 212.234375 775.652344 217.148438 C 776.171875 220.210938 776.535156 223.355469 775.992188 226.414062 C 775.402344 229.710938 773.773438 232.753906 771.765625 235.441406 C 767.089844 241.679688 760.148438 246.238281 752.507812 247.792969 C 744.425781 249.4375 735.703125 247.644531 728.929688 242.949219 C 724.90625 240.164062 721.523438 236.3125 719.859375 231.714844 C 718.046875 226.710938 718.371094 221.183594 719.234375 215.925781 C 720.050781 210.941406 721.386719 205.917969 724.253906 201.757812 C 728.003906 196.332031 734.160156 192.820312 740.632812 191.550781 C 743.613281 190.96875 746.714844 190.75 749.78125 190.941406 " fill-opacity="1" fill-rule="nonzero"/><path fill="#2f2851" d="M 700.335938 464.800781 C 701.007812 465.367188 701.582031 466.074219 702.128906 466.765625 C 713.230469 480.765625 723.820312 495.929688 727.5 513.40625 C 730.519531 527.75 728.625 542.804688 724.144531 556.761719 C 719.667969 570.71875 712.683594 583.730469 705.367188 596.4375 C 698.480469 608.386719 685.246094 594.3125 678.710938 588.144531 C 661.980469 572.367188 654.488281 548.003906 657.460938 525.214844 C 660.433594 502.421875 673.226562 481.453125 690.847656 466.679688 C 693.167969 464.730469 696.234375 462.777344 699.019531 463.964844 C 699.507812 464.171875 699.941406 464.460938 700.335938 464.800781 Z M 695.902344 457.9375 C 693.332031 458.773438 690.917969 460.472656 688.777344 462.195312 C 664.902344 481.351562 648.832031 511.503906 651.175781 542.007812 C 652.398438 557.898438 658.78125 573.230469 668.71875 585.644531 C 676.546875 595.429688 694.742188 615.667969 707.070312 603.417969 C 710.199219 600.308594 712.324219 596.347656 714.363281 592.4375 C 720.964844 579.800781 727.257812 566.894531 731.183594 553.191406 C 735.113281 539.484375 736.609375 524.84375 733.523438 510.925781 C 729.839844 494.289062 719.960938 479.792969 710.289062 465.757812 C 707.820312 462.175781 704.90625 458.292969 700.617188 457.53125 C 699.007812 457.242188 697.429688 457.441406 695.902344 457.9375 " fill-opacity="1" fill-rule="nonzero"/><path fill="#2f2851" d="M 685.054688 455.941406 C 682.132812 459.757812 672.714844 441.007812 671.824219 439.402344 C 670.984375 437.886719 670.148438 435.976562 671.097656 434.53125 C 674.585938 434.515625 677.011719 437.871094 678.808594 440.859375 C 680.617188 443.851562 682.417969 446.839844 684.222656 449.832031 C 685.097656 451.285156 686.007812 452.929688 685.621094 454.578125 C 685.480469 455.191406 685.285156 455.640625 685.054688 455.941406 " fill-opacity="1" fill-rule="nonzero"/><path fill="#2f2851" d="M 625.40625 570.257812 C 625.625 569.878906 625.964844 569.46875 626.453125 569.011719 C 627.941406 567.625 630.1875 567.558594 632.226562 567.4375 C 637.433594 567.117188 642.582031 565.859375 647.34375 563.738281 C 648.21875 564.652344 647.9375 566.230469 647.089844 567.167969 C 646.242188 568.101562 644.996094 568.546875 643.804688 568.957031 C 640.039062 570.257812 634.027344 573.769531 630.09375 573.699219 C 628.234375 573.664062 623.910156 572.851562 625.40625 570.257812 " fill-opacity="1" fill-rule="nonzero"/><path fill="#2f2851" d="M 676.601562 612.128906 C 676.628906 612.109375 676.65625 612.09375 676.683594 612.078125 C 677.546875 611.601562 678.644531 612.492188 678.761719 613.464844 C 678.882812 614.441406 678.371094 615.371094 677.875 616.21875 C 676.101562 619.246094 674.328125 622.273438 672.554688 625.300781 C 671.449219 627.191406 663.203125 635.03125 664.398438 627.878906 C 664.609375 626.621094 665.449219 625.570312 666.261719 624.585938 C 669.527344 620.609375 672.796875 616.636719 676.058594 612.664062 C 676.222656 612.46875 676.390625 612.269531 676.601562 612.128906 " fill-opacity="1" fill-rule="nonzero"/><g clip-path="url(#196fd10997)"><path fill="#2f2851" d="M 640.726562 530.042969 C 640.78125 530.09375 640.835938 530.148438 640.882812 530.214844 C 641.789062 531.328125 640.671875 533.097656 639.277344 533.464844 C 637.886719 533.828125 636.433594 533.335938 635.015625 533.105469 C 631.308594 532.515625 627.699219 533.742188 624.039062 534.046875 C 623.023438 534.132812 619.367188 534.625 618.757812 533.527344 C 618.066406 532.28125 620.371094 530.328125 621.234375 529.851562 C 622.632812 529.089844 624.253906 528.867188 625.839844 528.761719 C 630.117188 528.472656 634.410156 528.921875 638.675781 529.367188 C 639.402344 529.445312 640.203125 529.558594 640.726562 530.042969 " fill-opacity="1" fill-rule="nonzero"/></g><path fill="#2f2851" d="M 626.894531 488.164062 C 627.710938 488.128906 628.632812 488.546875 629.382812 488.980469 C 633.605469 491.425781 637.828125 493.867188 642.054688 496.3125 C 643.886719 497.371094 645.910156 498.691406 646.246094 500.78125 C 641.503906 503.683594 632.003906 495.351562 627.9375 493.027344 C 627.101562 492.546875 626.226562 492.039062 625.699219 491.226562 C 625.175781 490.421875 625.117188 489.21875 625.839844 488.578125 C 626.148438 488.304688 626.507812 488.1875 626.894531 488.164062 " fill-opacity="1" fill-rule="nonzero"/><path fill="#2f2851" d="M 646.519531 598.71875 C 646.332031 598.289062 645.714844 598.09375 645.324219 598.363281 C 649.195312 597.421875 652.886719 595.738281 656.132812 593.4375 C 656.871094 592.910156 657.742188 592.324219 658.609375 592.589844 C 659.621094 592.898438 659.949219 594.277344 659.527344 595.25 C 659.105469 596.222656 658.179688 596.867188 657.304688 597.464844 C 654.226562 599.5625 651.144531 601.65625 648.066406 603.753906 C 638.683594 610.132812 639.246094 598.980469 646.550781 598.804688 C 646.542969 598.777344 646.53125 598.746094 646.519531 598.71875 " fill-opacity="1" fill-rule="nonzero"/><path fill="#2f2851" d="M 643.292969 457.351562 C 643.820312 457.324219 644.460938 457.636719 644.921875 457.972656 C 650.113281 461.707031 655.21875 465.566406 660.226562 469.539062 C 660.574219 469.816406 660.933594 470.105469 661.113281 470.507812 C 661.519531 471.402344 660.855469 472.484375 659.96875 472.890625 C 655.164062 475.078125 646.402344 462.828125 643.308594 459.777344 C 642.742188 459.214844 642.136719 458.339844 642.621094 457.699219 C 642.792969 457.472656 643.03125 457.371094 643.292969 457.351562 " fill-opacity="1" fill-rule="nonzero"/><path fill="#2f2851" d="M 695.125 557.492188 C 695.289062 557.480469 695.449219 557.46875 695.609375 557.449219 C 700.578125 556.976562 705.5625 554.964844 708.765625 551.140625 C 711.425781 547.964844 712.652344 543.847656 713.480469 539.796875 C 714.355469 535.527344 714.851562 531.050781 713.71875 526.839844 C 711.449219 518.390625 702.824219 512.773438 694.125 511.761719 C 689.875 511.269531 685.453125 511.703125 681.585938 513.527344 C 677.523438 515.433594 674.234375 518.804688 672.074219 522.734375 C 669.035156 528.257812 668.195312 534.949219 669.757812 541.054688 C 671.046875 546.0625 673.953125 550.695312 677.917969 554.019531 C 682.089844 557.511719 689.734375 557.941406 695.125 557.492188 Z M 689.414062 563.300781 C 680.820312 562.761719 672.535156 559.023438 668.105469 551.257812 C 665.632812 546.929688 664.378906 542.011719 663.542969 537.09375 C 663.023438 534.03125 662.65625 530.890625 663.199219 527.828125 C 663.789062 524.53125 665.417969 521.488281 667.425781 518.804688 C 672.101562 512.566406 679.042969 508.007812 686.6875 506.453125 C 694.765625 504.808594 703.488281 506.597656 710.261719 511.296875 C 714.285156 514.082031 717.671875 517.929688 719.332031 522.527344 C 721.144531 527.535156 720.824219 533.058594 719.960938 538.316406 C 719.144531 543.300781 717.808594 548.324219 714.9375 552.488281 C 711.191406 557.914062 705.03125 561.421875 698.5625 562.695312 C 695.578125 563.28125 692.476562 563.492188 689.414062 563.300781 " fill-opacity="1" fill-rule="nonzero"/></svg>