<svg width="1200" height="1000" viewBox="0 0 1200 1000" fill="none" xmlns="http://www.w3.org/2000/svg">
<g id="eyelinefigma">
<g id="Clip path group">
<mask id="mask0_16_8" style="mask-type:luminance" maskUnits="userSpaceOnUse" x="493" y="117" width="212" height="767">
<g id="3b93ee18d8">
<path id="Vector" d="M493.458 117H704.635V883.651H493.458V117Z" fill="white"/>
</g>
</mask>
<g mask="url(#mask0_16_8)">
<g id="Group">
<path id="Vector_2" d="M506.724 376.672C498.505 352.208 494.062 326.474 493.807 300.672C493.276 247.286 510.661 193.885 542.531 151.036C547.354 144.552 578.068 108.307 586.245 118.938C569.208 137.167 551.349 152.589 537.667 174.021C523.943 195.5 513.745 219.25 507.844 244.052C495.896 294.323 501.677 348.615 523.948 395.25C559.823 470.38 634.005 521.13 673.276 594.552C684.51 615.547 692.698 638.13 697.891 661.37C702.542 682.167 704.802 703.505 704.609 724.823C704.062 785.286 680.307 849.104 629.359 881.766C625.375 884.318 617.786 884.745 618.151 880.031C678.979 841.047 704.885 761.24 694.349 689.813C683.812 618.38 642.469 554.818 593.276 501.922C577.135 484.568 560.01 468.036 545.495 449.302C528.599 427.5 515.51 402.807 506.724 376.672Z" fill="#2F2851"/>
</g>
</g>
</g>
<path id="Vector_3" d="M625.266 394.25C624.375 393.495 623.609 392.552 622.875 391.63C608.078 372.964 593.953 352.745 589.047 329.438C585.026 310.313 587.547 290.25 593.521 271.63C599.495 253.021 608.807 235.672 618.563 218.729C627.74 202.802 645.385 221.568 654.109 229.792C676.412 250.823 686.396 283.313 682.432 313.698C678.469 344.089 661.412 372.047 637.922 391.745C634.828 394.339 630.734 396.948 627.021 395.359C626.375 395.089 625.797 394.698 625.266 394.25ZM631.177 403.401C634.604 402.281 637.828 400.016 640.682 397.729C672.516 372.177 693.938 331.979 690.818 291.302C689.193 270.12 680.677 249.677 667.427 233.12C656.984 220.073 632.724 193.089 616.287 209.427C612.115 213.578 609.287 218.849 606.563 224.063C597.76 240.917 589.375 258.12 584.135 276.396C578.896 294.667 576.901 314.188 581.016 332.745C585.932 354.932 599.104 374.255 611.995 392.969C615.287 397.745 619.177 402.927 624.891 403.943C627.037 404.323 629.146 404.068 631.177 403.401Z" fill="#2F2851"/>
<path id="Vector_4" d="M645.646 406.057C649.542 400.974 662.094 425.969 663.286 428.12C664.406 430.135 665.516 432.682 664.25 434.609C659.599 434.625 656.37 430.151 653.969 426.172C651.568 422.182 649.156 418.193 646.755 414.203C645.588 412.266 644.375 410.073 644.891 407.88C645.078 407.063 645.333 406.469 645.646 406.057Z" fill="#2F2851"/>
<path id="Vector_5" d="M725.172 253.641C724.885 254.141 724.432 254.693 723.781 255.297C721.792 257.156 718.797 257.234 716.083 257.401C709.141 257.823 702.281 259.5 695.922 262.328C694.755 261.115 695.13 259.005 696.266 257.76C697.396 256.516 699.057 255.922 700.651 255.37C705.667 253.641 713.677 248.958 718.927 249.052C721.406 249.099 727.167 250.182 725.172 253.641Z" fill="#2F2851"/>
<path id="Vector_6" d="M656.917 197.813C656.88 197.839 656.844 197.859 656.802 197.875C655.656 198.51 654.193 197.328 654.031 196.026C653.87 194.724 654.563 193.49 655.219 192.359C657.583 188.323 659.943 184.286 662.307 180.245C663.781 177.724 674.781 167.271 673.188 176.807C672.906 178.49 671.786 179.885 670.698 181.203C666.349 186.5 661.99 191.802 657.635 197.094C657.417 197.359 657.193 197.625 656.917 197.813Z" fill="#2F2851"/>
<path id="Vector_7" d="M704.75 307.26C704.672 307.188 704.604 307.115 704.536 307.031C703.328 305.542 704.818 303.182 706.682 302.698C708.536 302.208 710.469 302.87 712.365 303.172C717.302 303.964 722.115 302.323 727 301.922C728.354 301.807 733.224 301.151 734.042 302.62C734.958 304.276 731.891 306.88 730.734 307.516C728.875 308.531 726.708 308.823 724.594 308.964C718.891 309.349 713.172 308.75 707.484 308.156C706.51 308.057 705.448 307.906 704.75 307.26Z" fill="#2F2851"/>
<path id="Vector_8" d="M723.193 363.094C722.104 363.146 720.87 362.589 719.875 362.01C714.245 358.75 708.609 355.495 702.974 352.234C700.531 350.823 697.839 349.057 697.385 346.271C703.714 342.401 716.38 353.516 721.802 356.615C722.922 357.25 724.078 357.932 724.781 359.01C725.484 360.089 725.557 361.693 724.599 362.547C724.187 362.906 723.708 363.073 723.193 363.094Z" fill="#2F2851"/>
<path id="Vector_9" d="M697.021 215.693C697.271 216.26 698.094 216.526 698.62 216.167C693.458 217.422 688.536 219.661 684.208 222.74C683.224 223.432 682.062 224.214 680.911 223.859C679.557 223.448 679.115 221.609 679.677 220.312C680.25 219.016 681.474 218.156 682.641 217.365C686.75 214.568 690.859 211.776 694.963 208.984C707.479 200.469 706.724 215.339 696.984 215.578C696.99 215.615 697.01 215.651 697.021 215.693Z" fill="#2F2851"/>
<path id="Vector_10" d="M701.328 404.177C700.62 404.219 699.771 403.797 699.151 403.349C692.229 398.37 685.422 393.224 678.745 387.927C678.286 387.557 677.802 387.172 677.563 386.635C677.021 385.448 677.906 384.005 679.099 383.464C685.5 380.547 697.177 396.875 701.302 400.943C702.063 401.693 702.865 402.865 702.224 403.714C701.995 404.021 701.677 404.156 701.328 404.177Z" fill="#2F2851"/>
<path id="Vector_11" d="M632.219 270.656C632 270.672 631.781 270.698 631.573 270.714C624.948 271.349 618.297 274.031 614.026 279.13C610.479 283.359 608.844 288.849 607.74 294.25C606.573 299.948 605.912 305.911 607.422 311.526C610.453 322.792 621.953 330.286 633.552 331.63C639.214 332.292 645.109 331.708 650.271 329.286C655.688 326.74 660.068 322.245 662.953 317.005C667 309.635 668.125 300.719 666.037 292.573C664.323 285.896 660.448 279.719 655.156 275.292C649.599 270.635 639.401 270.057 632.219 270.656ZM639.833 262.911C651.287 263.63 662.339 268.62 668.245 278.969C671.537 284.75 673.208 291.302 674.328 297.854C675.021 301.938 675.505 306.13 674.781 310.208C673.995 314.604 671.823 318.661 669.146 322.245C662.912 330.563 653.656 336.641 643.469 338.714C632.693 340.906 621.063 338.516 612.031 332.255C606.667 328.542 602.156 323.406 599.938 317.276C597.521 310.604 597.953 303.234 599.104 296.224C600.193 289.578 601.974 282.88 605.797 277.333C610.797 270.099 619.005 265.417 627.635 263.724C631.609 262.948 635.745 262.656 639.833 262.911Z" fill="#2F2851"/>
<path id="Vector_12" d="M573.906 628.057C574.802 628.813 575.568 629.755 576.297 630.677C591.099 649.344 605.219 669.563 610.125 692.865C614.151 711.99 611.625 732.063 605.651 750.672C599.682 769.281 590.37 786.63 580.615 803.573C571.432 819.505 553.787 800.74 545.073 792.516C522.766 771.479 512.776 738.995 516.74 708.609C520.703 678.219 537.76 650.26 561.255 630.563C564.349 627.964 568.438 625.359 572.151 626.943C572.802 627.219 573.38 627.604 573.906 628.057ZM567.995 618.906C564.568 620.021 561.349 622.286 558.495 624.583C526.662 650.125 505.234 690.328 508.359 731C509.99 752.188 518.5 772.63 531.75 789.182C542.188 802.229 566.448 829.214 582.885 812.88C587.057 808.734 589.891 803.453 592.609 798.24C601.412 781.391 609.802 764.182 615.037 745.911C620.276 727.635 622.271 708.115 618.156 689.557C613.245 667.375 600.073 648.047 587.177 629.333C583.885 624.557 580 619.38 574.281 618.365C572.135 617.979 570.031 618.245 567.995 618.906Z" fill="#2F2851"/>
<path id="Vector_13" d="M553.531 616.245C549.635 621.333 537.078 596.333 535.891 594.193C534.771 592.172 533.656 589.625 534.922 587.698C539.573 587.677 542.807 592.151 545.203 596.135C547.615 600.125 550.016 604.109 552.422 608.099C553.588 610.036 554.802 612.229 554.286 614.427C554.099 615.245 553.838 615.844 553.531 616.245Z" fill="#2F2851"/>
<path id="Vector_14" d="M474 768.667C474.292 768.161 474.745 767.615 475.396 767.005C477.38 765.156 480.375 765.068 483.094 764.906C490.036 764.479 496.901 762.802 503.25 759.974C504.417 761.193 504.042 763.297 502.911 764.547C501.781 765.792 500.12 766.385 498.531 766.932C493.51 768.667 485.495 773.349 480.25 773.255C477.771 773.208 472.005 772.125 474 768.667Z" fill="#2F2851"/>
<path id="Vector_15" d="M542.26 824.495C542.297 824.469 542.333 824.448 542.37 824.427C543.521 823.792 544.984 824.979 545.141 826.276C545.302 827.578 544.62 828.818 543.958 829.948C541.594 833.984 539.229 838.021 536.864 842.057C535.391 844.578 524.396 855.031 525.989 845.495C526.271 843.818 527.391 842.417 528.474 841.104C532.828 835.802 537.187 830.505 541.536 825.208C541.755 824.948 541.979 824.682 542.26 824.495Z" fill="#2F2851"/>
<g id="Clip path group_2">
<mask id="mask1_16_8" style="mask-type:luminance" maskUnits="userSpaceOnUse" x="465" y="712" width="31" height="10">
<g id="196fd10997">
<path id="Vector_16" d="M465 712.401H495.365V721.495H465V712.401Z" fill="white"/>
</g>
</mask>
<g mask="url(#mask1_16_8)">
<g id="Group_2">
<path id="Vector_17" d="M494.427 715.047C494.5 715.115 494.573 715.187 494.635 715.276C495.844 716.76 494.354 719.12 492.495 719.609C490.641 720.094 488.703 719.437 486.812 719.13C481.87 718.344 477.057 719.979 472.177 720.385C470.823 720.5 465.948 721.156 465.135 719.693C464.214 718.031 467.286 715.427 468.437 714.792C470.302 713.776 472.464 713.479 474.578 713.339C480.281 712.953 486.005 713.552 491.693 714.146C492.661 714.25 493.729 714.401 494.427 715.047Z" fill="#2F2851"/>
</g>
</g>
</g>
<path id="Vector_18" d="M475.984 659.208C477.073 659.161 478.302 659.719 479.302 660.297C484.932 663.557 490.562 666.812 496.198 670.073C498.641 671.484 501.338 673.245 501.786 676.031C495.463 679.901 482.797 668.792 477.375 665.693C476.26 665.052 475.094 664.375 474.391 663.292C473.693 662.219 473.615 660.615 474.578 659.76C474.99 659.396 475.469 659.24 475.984 659.208Z" fill="#2F2851"/>
<path id="Vector_19" d="M502.151 806.615C501.901 806.042 501.078 805.781 500.557 806.141C505.719 804.885 510.641 802.641 514.969 799.573C515.953 798.87 517.115 798.089 518.271 798.443C519.62 798.854 520.057 800.693 519.495 801.99C518.932 803.287 517.698 804.146 516.531 804.943C512.427 807.74 508.318 810.531 504.214 813.328C491.703 821.833 492.453 806.964 502.193 806.729C502.182 806.693 502.167 806.651 502.151 806.615Z" fill="#2F2851"/>
<path id="Vector_20" d="M497.849 618.125C498.552 618.089 499.406 618.505 500.021 618.953C506.943 623.932 513.75 629.078 520.427 634.375C520.891 634.745 521.37 635.13 521.609 635.667C522.151 636.859 521.266 638.302 520.083 638.844C513.677 641.76 501.995 625.427 497.87 621.359C497.115 620.609 496.307 619.443 496.953 618.589C497.182 618.286 497.5 618.151 497.849 618.125Z" fill="#2F2851"/>
<path id="Vector_21" d="M566.958 751.646C567.177 751.63 567.391 751.615 567.604 751.589C574.229 750.958 580.875 748.276 585.146 743.177C588.693 738.943 590.328 733.453 591.432 728.052C592.599 722.359 593.26 716.391 591.75 710.776C588.724 699.51 577.224 692.021 565.625 690.672C559.958 690.016 554.063 690.594 548.906 693.026C543.49 695.568 539.104 700.063 536.224 705.302C532.172 712.667 531.052 721.589 533.135 729.729C534.854 736.406 538.729 742.583 544.016 747.016C549.578 751.672 559.771 752.245 566.958 751.646ZM559.344 759.391C547.885 758.672 536.839 753.688 530.932 743.333C527.635 737.563 525.964 731.005 524.849 724.448C524.156 720.365 523.667 716.177 524.391 712.094C525.177 707.698 527.349 703.641 530.026 700.063C536.26 691.745 545.516 685.667 555.708 683.594C566.479 681.401 578.109 683.786 587.141 690.052C592.505 693.766 597.021 698.896 599.234 705.026C601.651 711.703 601.224 719.068 600.073 726.078C598.984 732.724 597.203 739.422 593.375 744.974C588.38 752.208 580.167 756.885 571.542 758.583C567.563 759.365 563.427 759.646 559.344 759.391Z" fill="#2F2851"/>
</g>
</svg>
