<svg xmlns="http://www.w3.org/2000/svg" width="1200" height="1000" fill="none">
<path fill="#FD694C" d="M604.542 700.385h-2.256c-13.145-.619-26.088-4.526-37.38-11.307-9.448-5.76-20.13-10.281-34.916-14.807-7.188-2.261-14.381-5.755-21.36-10.688 0 .823-.208 1.849-1.026 2.672-1.234 1.646-3.495 2.261-5.547 1.646-12.119-3.292-23.005-9.87-31.63-18.917-1.849-1.849-3.49-3.906-4.927-5.963-9.656-3.698-18.896-8.016-27.526-13.365-6.568-3.906-15.401-10.276-16.224-19.734-.203-2.469.208-4.729 1.234-6.578 1.026-1.854 2.667-3.5 4.724-4.729a24.103 24.103 0 0 1 4.927-1.855c-3.286-4.317-6.776-8.427-10.885-11.718-4.516-3.287-9.859-5.756-14.995-8.016a2625.54 2625.54 0 0 0-6.776-3.083c-9.651-4.729-15.609-10.282-18.073-17.068-2.875-7.604-1.026-16.24.203-23.229l3.698-18.714c.62-2.875 1.235-6.369.823-9.864-.203-1.854-.823-3.5-2.052-5.761-.411-.614-.62-1.437-1.031-2.057-.615-1.229-1.229-2.464-1.844-3.286-1.437-2.058-4.521-2.469-5.755-2.469-1.438 0-2.875 0-4.516.208-2.26.203-4.521.412-6.776-.208-7.807-1.646-12.12-9.459-13.969-13.979-.822-1.849-1.437-3.703-2.052-5.552-1.437-4.318-2.875-8.428-5.546-11.928-2.261-3.083-5.136-5.343-8.422-7.812-1.641-1.229-3.287-2.672-4.724-3.906-10.266-9.25-15.813-23.641-14.584-37.417.209-1.849.412-3.906.823-5.755.615-3.495 1.026-6.99.823-10.49-.411-5.755-3.083-11.099-5.75-16.448-1.849-3.698-3.906-7.604-5.135-11.922-4.724-16.244 4.312-35.364 19.922-41.942 15.812-6.578 35.531.614 43.541 15.625 2.672 4.932 3.901 10.484 5.136 15.833.823 3.495 1.64 7.193 2.875 10.484.411 1.235.823 2.469 1.437 3.698 2.464 6.375 5.136 13.162 2.052 19.329-1.437 2.88-3.698 4.729-5.953 6.786-2.057 1.849-4.109 3.698-5.344 5.964-2.463 4.932-.203 10.895 2.672 14.39.615.823 1.438 1.646 2.052 2.464 2.672 2.88 5.756 6.375 5.136 11.515-.203 2.672-1.641 5.141-3.698 6.99-.406.411-.615.62-1.026.823.208 1.234.411 2.26.411 3.495 0 2.057-.411 3.906-1.234 5.552-.406 1.026-1.026 1.849-1.641 2.672-.411.411-.614.822-.823 1.442-2.666 4.318-3.078 9.662-3.286 14.391-.203 5.963-.203 12.745 3.495 18.094 1.849 2.672 4.515 4.317 7.187 4.932 8.834 1.437 13.558-8.432 14.995-14.599 1.844-7.604 1.844-15.625 1.844-23.229 0-4.938 0-10.078.62-15.219.822-7.604 4.104-26.312 19.099-33.099.614-.208 1.234-.614 2.052-.823 1.442-.614 2.88-1.234 4.109-2.057 4.109-3.083 4.932-8.839 5.75-14.594.208-.823.208-1.854.411-2.677a57.18 57.18 0 0 1 10.886-25.698l2.057 1.438a51.692 51.692 0 0 0-10.271 24.468c-.208.823-.208 1.646-.411 2.672-.823 5.964-1.646 12.542-6.776 16.245-1.438 1.026-3.084 1.641-4.724 2.26-.62.204-1.235.412-1.849.823-9.656 4.318-16.229 15.829-17.667 31.042-.406 4.938-.406 10.078-.614 15.01 0 7.813-.203 16.037-2.052 23.849-1.849 8.021-6.782 15.422-13.969 16.448.62.412 1.026.823 1.437 1.443.823 1.026 1.438 2.464 2.058 3.698.411.615.614 1.437 1.026 2.057 1.437 2.469 2.052 4.521 2.463 6.578.412 3.907-.203 7.813-.823 10.693l-3.901 18.708c-1.437 6.579-3.078 14.803-.411 21.792 2.26 6.172 7.807 11.307 16.844 15.833 2.26 1.026 4.515 2.058 6.572 3.084 5.339 2.26 10.678 4.729 15.401 8.224 4.933 3.703 8.834 8.427 12.323 13.156 4.11-.203 8.422.62 12.532 2.677 6.364 3.083 11.297 8.427 15.401 13.156 4.109 4.521 8.01 9.25 11.708 13.776 5.339 6.578 10.885 13.157 16.844 19.323 2.255 2.266 4.515 4.526 6.776 6.584 2.875 1.64 5.338 3.698 7.396 6.166 8.213 6.375 16.427 10.896 24.646 13.365 14.786 4.521 25.875 9.25 35.322 15.005 10.886 6.583 23.62 10.49 36.355 11.104 2.875.209 6.364 0 9.448-1.026 3.489-1.234 6.161-3.906 8.625-6.989 1.026-4.318 4.109-7.61 7.187-9.87 7.807-10.073 19.307-16.86 31.839-18.917 1.848-.203 3.692-.203 4.927.208 3.083-4.729 5.338-10.489 7.395-18.093.818-2.88 1.438-5.761 2.053-8.636 1.645-6.786 3.083-13.979 5.958-20.562 1.229-2.875 2.667-5.552 4.312-8.427 1.849-3.495 3.698-6.99 5.136-10.485l.614-1.645c1.641-4.527 3.49-9.047 3.49-13.365 0-7.609 2.672-14.599 5.135-21.589 1.438-3.703 2.875-7.609 3.698-11.515.615-2.464 1.026-4.933 1.641-7.401.411-2.464.823-5.141 1.646-7.604 2.052-8.636 6.161-16.448 10.062-24.261 1.849-3.495 3.698-7.198 5.339-10.896l.823-1.854c7.599-17.271 16.432-36.594 10.885-53.864-1.849-5.756-.411-11.719 1.234-16.86.204-.823.615-1.646.818-2.672.62-2.057 1.443-4.114 2.057-6.172-3.494 2.058-7.598 3.089-11.708 3.089-4.109 0-8.01-1.031-11.911-2.057-1.235-.412-2.464-.62-3.698-.823-2.261 1.026-4.724 1.437-7.188 1.437-2.052-.203-3.901-.614-5.75-1.437-2.672 1.026-4.724 2.88-5.343 4.932-.615 1.443-.407 3.083-.407 4.729v10.896c0 4.115 0 8.844-1.646 13.162-.203.614-.411 1.234-.822 1.645.208 3.084.619 6.37 1.437 9.453 1.646 7.407 5.344 14.599 8.833 21.386 4.724 9.25 9.651 18.708 9.86 29.193.411 13.776-10.683 25.494-25.058 26.729h-1.026c-2.26.208-4.724.411-6.984-.615-1.641-.823-2.875-2.057-4.109-3.083l-.203-.208-1.027-1.027c-.208.204-.411.412-.619.412-.615.411-1.229.411-1.844.615-8.01 1.437-16.021-.615-23.62-2.672-3.286-.823-6.37-1.646-9.656-2.261-1.229.203-2.667.203-3.698-.62-1.026-.203-1.844-.203-2.875-.203h-1.437c-2.667 0-5.339-.208-7.803-1.442-2.671-1.438-4.312-4.11-5.135-5.959-3.078-6.995-.823-15.833 5.135-21.588 5.136-4.938 12.938-7.401 21.36-6.99 6.573.412 13.146 2.261 21.567 6.167l1.027.411c2.463 1.235 5.135 2.469 7.802 2.875 3.286.62 7.395 0 9.244-3.495.615-1.229.818-2.875.204-4.109-.823-1.849-2.464-2.26-4.724-2.88-1.026-.203-2.053-.615-3.079-1.026-5.75-2.672-7.395-10.281-5.546-15.833 1.849-5.344 5.75-9.25 10.27-13.568 3.49-3.084 6.98-6.375 9.037-10.281 0-.615 0-1.026-.208-1.438-.412-4.937-.818-9.87-2.464-14.599-.823-2.672-2.052-5.141-3.078-7.604-1.031-2.266-2.057-4.526-2.875-6.787-1.438-4.317-2.672-10.692 0-16.244 1.844-3.698 5.13-6.167 8.213-8.636.615-.411 1.235-1.026 1.849-1.437 5.136-4.11 8.828-8.636 11.297-13.365.203-.203.203-.411.412-.614-2.881.614-5.547.823-8.422.823-8.011 0-16.021-2.058-23.62-4.527.411 2.672-.615 5.761-2.464 8.021-2.875 3.287-7.598 5.141-13.354 4.729-11.911-.619-21.151-8.432-30.395-16.036-1.23-1.031-2.261-1.854-3.49-2.88-24.854.203-49.912-1.235-74.557-4.115-7.188-.817-11.089-4.109-10.677-8.427 0-.614.203-1.437.614-2.057-8.833 1.031-17.25 2.469-24.031 7.609-3.49 2.672-4.516 5.141-3.49 8.016.412 1.234 1.026 2.265 2.052 3.083 3.084 2.677 7.188 2.88 11.297 3.089 9.86.411 19.719-.209 29.37-.62 10.063-.615 20.542-1.234 30.807-.615 17.047.823 40.464 5.344 55.453 22.203 1.438 1.646 3.495 4.115 4.318 6.787 1.026 3.698.203 8.224-2.469 12.13-3.901 5.964-11.088 9.87-19.713 10.896-2.875 2.672-5.136 5.964-7.396 9.25-3.286 4.729-6.573 9.667-11.708 12.75-2.255 1.437-4.313 1.849-6.162 1.437-1.437-.411-2.666-1.234-3.286-2.468-.615-1.026-.615-2.261-.203-3.287.411-1.234 1.437-2.057 2.26-2.672.615-.411 1.229-.823 1.849-1.234 3.693-2.672 7.802-5.552 9.24-9.667.208-.817.411-1.229.208-1.64-.208-.412-.411-1.032-1.234-1.443-4.724-3.698-12.12-3.083-22.183 2.266-8.01 4.109-17.047 8.224-24.849 3.698-1.849-1.026-3.906-3.292-3.083-5.964.411-1.234 1.234-2.052 2.26-2.875 6.776-5.349 16.636-7.198 28.756-5.349 3.692.62 7.39 1.443 11.088 2.266 5.75 1.229 11.5 2.463 17.459 2.875 2.052 0 3.901 0 5.75-.203.411-.412.822-.62 1.234-1.032.818-.614 2.052-1.437 3.489-2.26 3.902-2.261 9.652-5.552 8.834-8.839-.209-.411-.62-.823-1.235-1.031-3.078-1.026-6.776-.614-10.27-.203-1.438.203-2.875.411-4.313.411a180.3 180.3 0 0 0-20.948 1.849c-1.026.209-2.26.209-3.489.412-8.219 1.026-16.844 2.26-25.266.411-7.802-1.646-14.583-5.963-18.073-11.927-1.026-1.849-1.437-3.906-1.026-5.958.411-2.057 1.849-3.703 3.49-4.938.619-.411 1.234-.614 1.645-1.026-.411 0-.822.203-1.234.203-2.26.412-4.312.823-6.573 1.235-1.229.823-2.667 1.443-3.901 2.26l-.614.412c-.823.411-1.646 1.031-2.464 1.442-1.443.823-2.88 1.641-4.521 2.464a24.236 24.236 0 0 1-3.286 1.646l-.823 1.234c-1.229.615-2.875 1.438-4.516 1.438-.823 0-1.646-.615-1.849-1.438-.208-.411 0-1.026 0-1.234.615-2.875 3.078-5.141 7.188-6.375a150.271 150.271 0 0 1 13.76-3.698c3.083-1.849 6.37-3.495 9.656-4.932 7.188-2.881 14.787-4.526 22.386-4.526h3.901c16.021.619 31.63 7.197 42.719 18.916l-1.849 1.646c-8.625-8.844-19.922-14.807-32.037-17.068 1.438 1.032 2.667 2.261 3.49 3.703 2.052 3.287 2.672 6.99 1.437 10.896-.823 2.881-2.672 5.552-5.135 7.198-3.698 2.672-8.422 3.495-12.735 2.464-5.13-1.235-9.854-5.141-12.322-10.281-.204-.615-.615-1.23-.818-1.849-.823-1.849-1.646-3.495-2.875-4.521-.62-.62-1.646-.823-2.469-1.032-.411.209-.615.412-1.026.62-1.437.823-2.875 1.849-4.109 2.672-1.23.823-2.052 1.849-2.464 3.292-.411 1.437-.203 2.875.62 4.109 3.286 5.141 9.448 9.25 16.635 10.693 8.011 1.646 16.224.614 24.438-.62 1.234-.203 2.26-.203 3.495-.411a366.101 366.101 0 0 1 21.151-1.849c1.234 0 2.672-.203 4.109-.412 3.698-.411 7.599-.823 11.297.209 1.437.411 2.672 1.437 2.875 2.875 1.437 4.937-4.724 8.635-9.651 11.515 5.338-1.646 9.854-4.526 12.526-8.635 2.26-3.292 2.875-6.99 2.052-10.073-.615-2.266-2.255-4.318-3.693-5.964-14.38-16.244-37.177-20.562-53.609-21.38-10.266-.411-20.537 0-30.599.615-9.656.614-19.719 1.026-29.578.614-4.516-.203-9.037-.614-12.735-3.698-1.229-1.031-2.255-2.468-2.875-4.114-2.052-5.959 2.875-9.662 4.521-10.896 8.011-5.755 17.87-7.401 27.521-8.427.823-.823 1.849-1.235 3.078-1.646 8.834-2.672 18.078-3.906 27.115-3.495 5.135-1.442 10.474-2.672 15.812-3.083 16.224-1.234 31.631 5.141 46.417 11.51 8.219 3.495 16.635 7.198 25.266 9.256 4.927 1.229 11.5 3.083 13.963 8.015 7.807 2.469 15.818 4.938 24.031 4.938h.412a40.45 40.45 0 0 0 9.859-1.235c1.026-2.265 2.052-4.526 3.49-6.578 5.338-7.609 16.635-10.901 26.698-7.609 1.031.411 2.26.823 3.286 1.234 8.011-3.083 16.229-5.349 24.646-4.729 3.698.203 6.984 2.057 9.245 5.141 2.052 2.875 2.672 6.578 1.64 9.869-1.437 4.521-4.927 8.427-9.854 10.896-1.234.615-3.083 1.235-4.724.823-2.057-.62-3.083-2.265-4.109-3.703-4.932-7.401-10.682-12.542-16.636-15.422-2.057.823-4.312 1.854-6.369 2.677l-3.49 1.641c-6.984 3.088-14.172 6.375-21.771 8.224l-1.234 2.469c-2.667 4.937-6.573 9.869-11.912 14.187-.614.412-1.229 1.026-1.849 1.438-2.875 2.26-5.953 4.729-7.598 7.812-2.261 4.729-1.23 10.281.208 14.188.818 2.26 1.849 4.52 2.667 6.578 1.234 2.468 2.26 5.14 3.083 7.812 1.229 3.703 1.64 7.401 2.052 11.104.411-2.88.411-5.755.411-8.635v-10.896c0-1.849 0-3.703.615-5.552.823-2.26 2.464-4.115 4.932-5.552-2.468-1.438-4.724-3.083-6.781-4.729-.615-.412-1.437-1.235-1.849-2.058-1.026-2.463.412-5.135 4.109-7.192 3.287-1.849 6.573-3.703 10.271-5.349-.411-.406-.823-1.026-1.234-1.641-.615-1.234-.412-2.672.208-3.703.412-.823 1.229-1.437 2.052-1.646l.203-.411.62.208c3.287-1.437 6.776-2.057 10.266-1.646 2.26.209 5.344.823 7.193 3.084 5.541-.412 10.885.208 15.401.823 5.338.822 11.5 2.26 14.786 7.609 2.057 3.286 1.849 7.401-.615 10.073-1.437 1.646-3.286 2.88-5.135 3.906-1.229.615-2.26 1.234-3.286 2.057-.615 3.084-1.641 6.167-2.667 9.047-.208.823-.62 1.641-.823 2.464-1.646 4.729-2.875 10.281-1.234 15.422 5.958 18.093-3.078 38.036-10.886 55.718l-.817 1.849c-1.646 3.698-3.495 7.401-5.344 10.896-3.901 7.61-7.802 15.422-9.86 23.646-.614 2.464-1.026 4.932-1.437 7.401-.406 2.469-1.026 5.141-1.641 7.604-1.026 3.906-2.463 8.021-3.901 11.719-2.463 6.995-4.932 13.573-5.135 20.766 0 4.937-2.052 9.869-3.698 14.395l-.615 1.646c-1.437 3.907-3.286 7.401-5.338 10.896-1.443 2.672-2.88 5.344-4.11 8.224-2.875 6.37-4.312 13.365-5.958 20.146-.615 2.88-1.229 5.963-2.052 8.844-2.052 7.604-4.521 13.77-7.599 18.708.411.411.615.823 1.026 1.437.823 2.261-.203 4.527-1.437 6.375-7.599 11.922-18.485 21.589-31.219 27.756-2.052 1.026-4.313 2.057-6.985 2.057-2.875 0-5.75-1.234-6.979-3.495-.411-.823-.619-1.646-.823-2.469-2.057 2.261-4.52 3.907-7.395 5.141-3.079 1.026-5.954 1.234-8.422 1.234Zm18.078-9.255c0 .209 0 .412-.209.823-.203 1.443 0 2.672.412 3.703.823 1.646 3.078 2.261 4.724 2.261 2.052 0 4.109-1.026 5.958-1.849 12.323-5.964 22.797-15.214 30.188-26.729.823-1.235 1.646-2.881 1.234-3.907v-.203c-1.646 2.261-3.49 4.318-5.547 5.959-1.026 1.031-2.26 1.854-3.489 2.671-2.052 1.443-4.11 2.881-5.75 4.73-1.235 1.442-2.261 3.088-3.287 4.937-1.849 3.083-3.698 6.375-7.187 8.224l-.823.411-.615-.822c-2.26-2.881-1.234-6.375-.411-9.459.203-1.026.614-2.26.614-3.083v-.823s-.203-.203-1.234.203c-1.849.62-4.927 2.057-7.802 4.115-1.026 1.437-2.052 2.88-3.083 4.317-1.23 1.235-2.464 2.881-3.693 4.521Zm15.609-16.036c1.026 0 1.641.411 2.052.823.823.823.615 2.057.615 2.672-.203 1.234-.412 2.265-.823 3.494-.615 2.266-1.229 4.526-.406 6.375 2.255-1.437 3.692-4.109 5.13-6.578 1.031-1.849 2.057-3.703 3.495-5.14 1.849-2.058 3.901-3.698 6.161-5.141 1.026-.823 2.261-1.646 3.287-2.464 1.849-1.442 3.489-3.291 4.927-5.14a7.633 7.633 0 0 0-3.078 0c-9.448 1.437-18.282 5.958-25.266 12.541.62-.208 1.437-.619 1.849-.822 1.026-.62 1.646-.62 2.057-.62Zm-168.417-30.63c.818.817 1.438 1.64 2.256 2.463 8.422 8.844 18.896 15.214 30.604 18.302 1.234.406 2.26 0 3.083-.823.615-.62.412-1.234-.208-2.677a197.53 197.53 0 0 1-1.229-1.849c-2.469-1.849-4.724-3.906-7.193-6.166-4.927-2.881-11.089-4.526-16.839-6.375l-2.26-.615c-2.875-.411-5.547-1.234-8.214-2.26Zm-3.083-3.704c3.901 1.438 7.807 2.672 11.709 3.907l2.26.614c3.49 1.032 7.187 2.058 10.885 3.5-.411-.411-1.026-1.031-1.437-1.442-5.958-6.167-11.505-12.954-17.047-19.532-3.698-4.521-7.599-9.25-11.708-13.776-4.11-4.521-8.834-9.661-14.787-12.541-3.083-1.646-6.37-2.464-9.656-2.464.411.615.823 1.229 1.234 1.849l22.386 31.661c2.057 2.672 4.109 5.553 6.161 8.224Zm-32.656-41.734c-2.052.203-3.901.818-5.547 1.849-1.844 1.026-3.078 2.26-3.901 3.698-1.026 1.854-1.026 3.703-.818 5.141.818 8.432 8.828 14.187 14.99 17.89a178.323 178.323 0 0 0 23.417 11.719c-1.235-1.646-2.469-3.495-3.698-5.141l-22.386-31.661c-.62-1.443-1.234-2.469-2.057-3.495Zm237.016-68.469c.614.62 1.234 1.032 1.64 1.646l.208.208c1.027 1.027 2.053 2.053 3.287 2.672 1.641.823 3.901.615 5.75.412H683c12.937-1.031 23.005-11.719 22.797-24.261-.203-10.078-4.724-18.916-9.651-28.166-3.698-6.99-7.396-14.188-9.245-22-.406-2.058-.818-4.318-1.026-6.375-2.26 3.083-4.927 5.552-7.802 8.021-4.313 4.109-8.011 7.812-9.656 12.541-1.438 4.521-.203 10.896 4.312 12.745.823.411 1.646.62 2.672.823 2.26.615 4.927 1.234 6.37 4.318 1.026 2.057.818 4.317-.209 6.375-2.463 4.52-7.598 5.343-11.708 4.729-3.078-.62-5.75-1.854-8.417-3.089l-1.031-.406c-8.213-3.703-14.578-5.552-20.739-5.964-7.599-.411-14.792 1.849-19.516 6.375-5.338 4.933-7.187 12.745-4.724 18.709 1.031 2.26 2.469 3.906 4.109 4.729 2.053 1.026 4.313 1.026 6.777 1.234H628.984c-.203-1.031.204-2.057.615-2.88.823-1.437 2.469-2.469 3.698-3.083 3.698-1.854 7.807-2.672 11.708-2.469 5.547.208 11.089 2.057 16.432 5.141a29.294 29.294 0 0 1 5.542 1.849c1.438.823 3.287 1.849 4.11 3.703 0 .823.203 1.646 0 2.463Zm-31.016-2.875c1.437.412 2.88.823 4.318 1.026 7.802 2.058 15.198 3.907 22.588 2.672.412 0 .62-.203 1.026-.203-2.666-2.469-5.13-4.318-7.802-5.963H660c-6.161-.823-11.917.614-17.87 2.057-.62.203-1.234.203-2.057.411Zm-8.625-1.646c.823.204 1.849.204 2.672.412 2.463-.412 4.927-1.026 7.39-1.646 4.318-1.026 8.834-2.26 13.355-2.469-3.495-1.437-6.782-2.26-10.474-2.26-3.495-.203-7.193.62-10.48 2.26-.817.412-2.052 1.032-2.463 2.058-.203.411-.203 1.234 0 1.645Zm-292.88-201.692c-3.901 0-8.006.823-11.703 2.26-14.381 5.964-22.797 23.849-18.485 38.86 1.229 3.906 3.078 7.812 4.927 11.307 2.672 5.552 5.547 11.104 6.162 17.474.208 3.703-.203 7.406-.823 11.104-.203 1.849-.615 3.703-.818 5.552-1.234 12.953 4.104 26.521 13.761 35.365 1.437 1.437 3.078 2.672 4.723 3.906 3.079 2.463 6.365 4.932 8.829 8.427 2.875 3.703 4.312 8.224 5.958 12.542.615 1.849 1.229 3.703 2.052 5.343 1.646 4.115 5.547 11.105 12.12 12.339 1.849.411 3.901.203 6.161 0 .615 0 1.438 0 2.052-.203-1.437-1.031-2.875-2.266-3.901-3.912-4.109-5.958-4.109-13.359-3.901-19.734.203-4.938.818-10.693 3.698-15.422a6.155 6.155 0 0 1 1.026-1.437c.615-.823 1.026-1.646 1.438-2.469.614-1.235.817-2.875.817-4.521 0-.823 0-1.443-.203-2.057-5.547 2.468-11.911.614-16.224-3.084-3.494-3.083-6.161-7.812-7.599-13.567-.619-2.266-1.026-4.526-1.026-6.995-3.494-2.261-6.573-4.729-9.041-8.016-3.287-4.317-5.131-9.458-6.776-14.599-1.026-3.286-2.052-6.578-1.438-10.073 1.026-7.812 9.037-12.338 16.224-13.364 4.109-.615 6.984.203 8.833 2.26 1.438 1.854 1.641 4.318 1.641 5.964 0 6.166-1.844 11.927-3.49 17.474-1.234 3.906-2.463 8.021-3.078 12.13-.411 2.266-.411 4.526-.411 6.786 1.641 1.026 3.489 2.058 5.135 3.084a77.064 77.064 0 0 1 5.339 3.291c6.984 4.318 11.5 9.459 13.552 14.802l.208-.203c1.641-1.442 2.672-3.291 2.875-5.349.412-3.906-2.052-6.578-4.521-9.458-.817-.823-1.437-1.641-2.255-2.672-4.109-5.344-5.344-11.922-2.875-17.062 1.438-2.881 3.693-4.938 5.953-6.787 2.058-1.849 4.11-3.698 5.339-5.963 2.672-5.141.208-11.308-2.052-17.271-.412-1.229-1.026-2.464-1.438-3.698-1.234-3.495-2.052-7.198-2.875-10.693-1.234-5.344-2.463-10.484-4.927-15.213-5.755-10.073-17.458-16.448-28.963-16.448Zm263.307 103.208c.615.62 1.026 1.234 1.229 2.057.209 1.235 0 2.469-.411 3.084-1.844 4.729-6.162 7.812-10.266 10.692-.62.412-1.234.823-1.849 1.235-.614.411-1.234 1.026-1.437 1.646-.209.411 0 .823.203 1.234.411.615 1.026 1.229 1.646 1.229 1.229.209 2.666 0 4.312-1.026 4.516-2.672 7.599-7.198 10.886-11.927 1.848-2.672 3.489-5.135 5.546-7.604h-3.286c-2.057-.208-4.313-.412-6.573-.62Zm-251.802-10.276c.203 1.641.411 3.083.818 4.729 1.234 5.344 3.698 9.453 6.781 12.334 3.698 3.291 9.239 4.937 13.963 2.468-2.255-6.578-8.625-11.515-12.734-14.187-1.641-1.026-3.49-2.057-5.13-3.084-1.235-.619-2.469-1.437-3.698-2.26Zm221.609 5.141c-6.369 0-13.146 1.229-18.484 5.343-.615.412-1.234 1.026-1.234 1.646-.412 1.026.822 2.261 2.057 3.084 6.573 3.906 14.989 0 22.385-3.704 3.901-2.052 7.599-3.494 10.886-4.317-2.261-.412-4.724-1.026-6.985-1.235-2.875-.406-5.75-.817-8.625-.817Zm140.485-8.636c.411 0 .817.203 1.229.412 3.698 1.026 7.599 2.052 11.297 1.849 4.521 0 8.833-1.438 12.323-4.115.208-1.026.208-2.26.208-3.286 0-4.73-2.26-10.282-7.188-11.927-1.849-.615-3.906-.615-5.755-.615h-4.312c0 4.932-1.438 9.661-4.104 13.365-.823 1.849-2.261 3.286-3.698 4.317Zm-10.474-1.646c2.255 0 4.515.412 6.979.823 2.057-1.031 4.109-2.672 5.547-4.729 2.26-3.291 3.489-7.401 3.489-11.927l-11.911.208c-1.229 0-2.667 0-4.104-.411-4.11 1.849-8.011 4.109-11.709 6.167-1.437.823-3.698 2.672-3.083 4.114.208.406.62.818 1.234 1.229 2.875 2.266 5.339 4.115 8.214 5.349.208 0 .208 0 .411-.208a20.273 20.273 0 0 1 4.933-.615Zm-352.854-40.296c-.823 0-1.438 0-2.261.203-6.161 1.031-13.141 4.937-14.172 11.307-.406 2.88.412 5.76 1.438 8.844 1.437 4.729 3.286 9.87 6.37 13.776 1.848 2.463 4.312 4.724 6.984 6.578 0-1.854.203-3.703.411-5.349.615-4.318 1.844-8.427 3.282-12.542 1.849-5.755 3.494-11.099 3.494-16.859 0-2.052-.411-3.495-1.234-4.313-1.026-1.234-2.667-1.645-4.312-1.645Zm376.88 21.791c1.646 0 3.495 0 5.343.615 6.162 2.057 8.829 8.844 8.829 14.396v1.437c.619-.411 1.031-.614 1.645-1.026 1.641-1.031 3.287-2.057 4.516-3.292 1.646-1.849 1.849-4.932.208-7.197-2.875-4.521-8.01-5.756-12.942-6.579-4.104-.614-8.828-1.234-13.761-1.026.209.823.412 1.849.62 2.672h5.542Zm-169.443-3.698c.412.203.823.407 1.234.818 1.849 1.443 2.875 3.495 3.698 5.552.203.62.412 1.031.823 1.646 2.052 4.318 6.162 7.812 10.677 8.838 2.672.62 6.776.823 10.683-2.052 2.052-1.442 3.489-3.494 4.312-5.963 1.026-3.083.412-6.167-1.234-8.839-2.261-3.291-6.162-5.76-10.474-6.172H572.505c-3.906.209-8.219 1.646-13.146 4.318-1.026.62-2.052 1.235-3.083 1.854Zm-23.823 5.136c-1.849.411-3.698 1.031-5.338 1.646-2.875.822-4.521 2.26-5.344 3.906.823-.203 1.849-.615 2.672-1.026l.823-.412c1.026-.619 2.052-1.026 3.286-1.646 1.026-.822 2.464-1.645 3.901-2.468Zm184.641-3.698c-3.49.411-6.985 1.437-10.271 2.672l10.682-.203c0-.823-.203-1.646-.411-2.469Zm-16.433-1.235c-.203.204-.406.204-.614.412a1.326 1.326 0 0 0 0 1.234c.411.823.823 1.235 1.646 1.646 4.312-1.854 8.828-3.495 13.349-4.318-1.438-.823-3.084-1.031-4.11-1.031-2.875-.203-5.75.208-8.625 1.235l-.411.822-.823-.203-.412.203Zm-141.713-4.729c-2.875.615-5.547 1.646-8.214 2.672-.619.208-1.437.62-2.057.823 1.438-.203 2.875-.203 4.313-.203 1.645-1.031 3.286-2.057 5.135-3.083.208.203.62 0 .823-.209Zm62.026-15.422c.411.412.823.62 1.234 1.032 8.828 7.192 17.865 14.802 28.75 15.416 3.495.209 8.219-.411 11.297-3.906a7.828 7.828 0 0 0 1.849-6.578c0-.203-.203-.412-.203-.615-5.135-1.645-10.271-3.291-15.406-4.114-8.422-1.438-17.047-1.438-25.469-1.235h-2.052Zm115.63-4.52c5.755 3.291 10.886 8.224 15.61 15.213.822 1.234 1.645 2.261 2.671 2.672 1.026.208 2.052-.203 3.084-.615 4.312-2.057 7.39-5.552 8.625-9.25.817-2.677.203-5.349-1.235-7.609-1.64-2.469-4.312-3.906-7.187-4.115-7.396-.614-14.583 1.032-21.568 3.704Zm-14.375-1.646c-6.364 0-12.734 2.26-16.635 7.812-1.026 1.443-1.646 2.88-2.464 4.526 6.573-1.854 13.141-4.729 19.511-7.609l3.489-1.646c1.438-.615 2.672-1.234 4.11-1.849-.209 0-.412-.203-.615-.203-2.469-.62-4.932-1.031-7.396-1.031Zm-91.807 3.495c6.161 0 12.323.208 18.484 1.442 4.313.818 8.625 2.052 12.735 3.287-2.672-2.261-6.776-3.287-10.474-4.318-8.625-2.26-17.256-5.964-25.469-9.458-15.198-6.37-29.573-12.542-45.182-11.308a54.55 54.55 0 0 0-8.011 1.235c14.787 1.849 29.37 7.401 41.281 16.245 1.438 1.026 2.672 2.052 4.11 3.083h5.13c2.469-.208 4.932-.208 7.396-.208Zm-95.094-12.334c-.614.823-1.026 1.646-1.026 2.672-.411 4.318 5.75 5.552 8.625 5.755 23.417 2.88 47.443 4.115 71.063 4.115-.615-.412-1.026-.823-1.641-1.235-13.76-10.281-30.604-15.833-47.651-16.447-.615.203-1.026.203-1.641.411-3.906 1.026-7.807 2.057-11.911 2.875-4.318.823-8.833 1.234-13.146 1.646-.823.208-1.646.208-2.672.208Zm17.255-4.526c-2.468.208-5.135.62-7.599 1.235 1.844-.204 3.901-.412 5.75-.823.615-.204 1.23-.412 1.849-.412Z"/><path fill="#FD694C" d="M643.156 628.833c-6.573 0-13.146-1.64-18.896-4.932-2.052-1.234-4.109-2.672-5.958-3.906-2.875-2.058-5.75-4.11-8.828-5.344-1.026-.411-2.26-.823-3.495-1.234-.818-.209-1.844-.62-2.666-1.032-6.37-2.463-12.12-6.781-16.021-12.541-3.084.208-6.37-.407-9.245-1.641-1.438-.62-3.287-2.057-3.901-3.906-.412-1.031-.412-2.057.208-2.88 1.026-2.058 3.49-2.469 5.339-2.058 1.229.209 2.052.823 3.078 1.443.411.203.823.412 1.234.615 5.75 2.88 12.938.411 17.87-2.881 2.875-2.052 5.542-4.52 8.214-6.781 2.26-2.057 4.724-4.318 7.395-6.375 11.089-8.021 25.058-10.281 38.407-11.927 3.078-.411 6.364-.614 8.833 1.646.818.62 1.229 1.443 1.844 2.057.62.823 1.031 1.438 1.646 1.849 1.64 1.031 3.901.412 6.984-1.646 1.849-1.229 5.338-3.494 8.625-2.672 0-.203-.208-.411-.208-.614-.204-.62-.407-1.234-.407-1.849-.208-.823-.411-1.646-.823-2.469-.614-1.646-1.849-3.083-3.083-4.526-.411-.411-.614-.818-1.026-1.229-5.547-6.786-8.625-15.422-8.625-24.26h2.464c0 8.224 2.875 16.447 8.01 22.614.411.412.615.823 1.026 1.235 1.438 1.64 2.672 3.286 3.495 5.135.406 1.031.614 1.854.818 2.88.208.62.208 1.031.411 1.646.208.615.411 1.234.62 1.646 2.666.823 4.719 4.109 5.541 7.401 1.235 4.318 2.464 9.87 0 14.599 0 .614 0 1.026.209 1.437l.203.412c.411.614.823 1.646.208 2.875-.208.62-.823 1.031-1.234 1.234-2.052 1.443-4.313 2.057-6.573 2.057-2.26 2.881-3.901 6.167-5.547 9.662a109.453 109.453 0 0 1-3.489 6.995c-1.027 1.64-2.464 3.906-4.928 4.724-.411.208-.619.208-1.031.411-1.026 2.057-2.875 3.906-5.541 5.761-6.37 4.317-13.761 6.369-21.157 6.369Zm-52.989-29.192c3.489 4.729 8.422 8.427 13.968 10.484.818.411 1.641.62 2.667.823l3.698 1.234c3.49 1.438 6.365 3.495 9.448 5.755 1.849 1.443 3.901 2.672 5.75 3.907 11.297 6.583 26.292 5.963 37.177-1.235a18.298 18.298 0 0 0 4.104-3.698c-3.078-.619-5.953-3.291-7.39-6.375-.823-1.645-1.438-3.286-1.849-5.14-.412-1.235-.823-2.672-1.438-3.906-3.286-.823-6.781-1.235-10.271-.823-1.64.208-6.573.823-7.599-2.875-.411-1.235 0-2.469.823-3.495-1.646.411-3.286.614-4.932.823-4.927.614-10.063.203-14.99 0-6.573-.412-12.942-.823-18.895.817-1.235.412-2.672.823-3.907 1.443-2.052 1.026-4.104 1.646-6.364 2.261Zm69.213 3.083c.209.62.412 1.437.62 2.057.615 1.646 1.026 3.287 1.844 4.729 1.234 2.672 3.906 4.933 6.37 5.141 0-.208.203-.411.203-.62 1.026-4.521-3.287-8.838-7.802-10.687-.412-.209-.823-.412-1.235-.62Zm-1.437-3.083c1.234.411 2.463.823 3.495 1.437 5.13 2.266 10.062 7.401 9.239 12.953 1.234-.823 2.052-2.052 2.875-3.286 1.234-2.058 2.261-4.526 3.495-6.584 1.437-2.875 2.875-5.958 4.724-8.63-1.646-.208-3.287-.411-4.521-.823-1.641-.411-3.49-1.031-5.135-1.646-2.672-1.031-5.136-1.848-7.802-2.26-5.136-.823-10.271.203-15.61 1.641 3.287.823 6.573 2.88 8.417 5.76.411.412.62.823.823 1.438Zm-8.828-1.438c1.843 0 3.692.203 5.541.412-2.666-3.495-7.39-5.349-11.5-3.907-1.437.412-2.672 1.641-2.463 2.672.203 1.026 1.849 1.438 4.927 1.026 1.234 0 2.26-.203 3.495-.203Zm-71.068-6.375c-.818 0-1.438.203-1.641.823-.208.203-.208.615 0 1.026.412.823 1.438 1.854 2.672 2.469 2.464 1.026 5.13 1.646 8.005 1.437l1.235-.823c.208.209.208.412.411.62.412 0 .823-.208 1.235-.208 1.843-.412 3.692-1.026 5.75-1.849 1.437-.412 2.666-1.026 4.104-1.438 6.573-1.854 13.354-1.442 19.922-1.031 4.724.412 9.656.62 14.38 0 3.698-.411 7.39-1.437 11.088-2.463 6.37-1.646 12.735-3.495 19.516-2.469 2.875.411 5.542 1.437 8.214 2.469 1.64.614 3.286 1.229 4.927 1.64 1.645.412 3.698.823 5.75.823.619-.823 1.437-1.437 2.057-2.052 1.437-1.443 2.667-2.677 3.489-4.115 0-1.026.412-2.057.615-3.083.208-.823.412-1.646.412-2.469.411-3.494-1.641-6.578-3.49-9.869-.823-1.23-1.438-2.464-2.052-3.698h-.823l-.412-.209c-2.052-1.026-4.723.62-7.187 2.266-4.109 2.672-7.396 3.286-9.859 1.641-1.026-.615-1.849-1.641-2.464-2.672-.411-.615-.823-1.235-1.437-1.646-1.646-1.438-4.521-1.229-6.985-1.026-12.937 1.646-26.495 3.703-37.177 11.515-2.463 1.849-4.927 3.907-7.187 6.167-2.667 2.469-5.339 4.932-8.422 6.99-6.979 4.729-14.787 5.963-20.328 2.88-.412-.208-.823-.412-1.235-.62-.823-.411-1.646-1.026-2.463-1.234 0 .208-.412.208-.62.208Zm111.729-1.849c-.615.823-1.437 1.438-2.052 2.261.823-.209 1.437-.62 2.26-1.026l.204-.209c0-.203-.204-.614-.412-1.026ZM291.333 542.688l-2.468-.615.619-2.469c4.105-16.651 7.802-32.484 9.86-49.958 0-.412.203-.823.203-1.235-3.083 1.027-6.573.823-9.448-.822-5.75-3.287-10.474-8.224-13.146-13.776-2.26-3.287-2.26-7.193-2.26-10.896 0-3.495 0-6.787-1.844-9.459-12.734-12.744-15.609-25.494-8.219-36.39 1.849-2.672 4.521-5.552 7.808-7.813-.412-4.729.411-9.458 1.229-14.187 1.234-7.401 2.468-14.391-.818-19.943-2.057-4.109-5.547-2.672-11.505-.203-3.287 1.437-6.776 2.875-10.063 2.875h-.203l-.208-.203c-4.313-2.058-6.776-6.578-6.776-11.308v-.208l.203-.203c1.026-2.057 2.057-4.526 3.083-7.198 1.026-2.463 2.052-5.141 3.078-7.193 5.344-9.458.62-18.713-4.312-28.578-2.261-4.526-4.724-9.047-5.953-13.776-.62-3.703-.412-8.224.817-12.75-1.437-1.026-3.078-2.052-4.515-3.083l-.62-.203-.203-.209c-9.037-22.817 15.812-38.448 29.167-46.671 6.776-4.521 6.776-12.334 6.979-20.761v-4.114c-1.026-.615-2.052-1.235-3.078-1.849-4.521-3.495-7.188-7.813-7.808-12.954-1.437-11.927 8.422-25.083 15.818-34.13 9.24-14.802 25.469-24.26 49.906-29.192 15.818-3.704 31.63-2.266 47.037-1.032 10.885.823 22.177 1.849 33.271 1.032 15.197-1.443 27.317-9.256 39.843-17.48 5.75-3.698 11.5-7.401 17.87-10.692l1.229 2.265c-6.161 3.287-11.911 6.99-17.661 10.688-12.938 8.432-25.057 16.448-41.078 17.89-11.297.823-22.589 0-33.683-1.031-15.198-1.234-31.01-2.672-46.416 1.031-23.209 4.521-39.021 13.776-48.058 27.959-11.296 13.573-16.229 24.26-15.406 32.484.615 4.318 2.875 8.224 6.776 11.104.62.412 1.031.823 1.646 1.026.203-3.906 1.026-7.604 2.667-10.896 4.317-8.635 14.172-23.229 31.838-23.229h.203c5.136 1.026 9.245 4.521 11.094 9.453a15.57 15.57 0 0 1-2.057 15.219c-9.86 11.719-27.313 19.12-41.485 13.568v2.88c-.208 8.63-.208 17.677-8.01 22.818-18.896 11.719-35.328 25.291-28.344 43.38a20.604 20.604 0 0 0 3.49 2.266c1.437-4.115 3.698-8.224 6.984-11.105 4.313-4.109 9.651-5.343 15.61-3.906 2.672 0 4.927 2.469 5.135 5.141 3.49 8.224 2.464 16.859 1.229 26.109 6.985 4.729 12.735 10.485 15.198 19.12.823 2.266.412 4.526-1.026 6.583-2.255 3.287-7.187 5.344-10.474 5.344h-.614l-.412-.411c-.411-.412-1.026-.823-1.641-1.438-2.26-1.854-4.932-3.906-4.932-7.609-.823-6.787 0-13.568 1.026-20.354-4.104-2.672-8.828-4.933-13.349-7.401-3.698-1.849-7.599-3.907-11.088-5.964-.823 3.906-1.032 7.609-.62 10.896 1.234 4.318 3.495 8.844 5.75 13.161 5.135 10.073 10.271 20.354 4.318 30.839-1.032 1.849-2.058 4.521-3.084 6.989-1.026 2.469-2.052 4.938-3.078 6.99 0 3.703 2.052 6.99 5.13 8.844 2.672 0 5.756-1.443 8.834-2.672 5.338-2.266 11.5-4.938 14.583 1.229 3.698 6.172 2.464 13.984 1.234 21.589-.619 4.114-1.442 8.224-1.234 12.338 1.641-.823 3.078-1.443 4.724-1.646 3.49-.614 6.573.203 9.448 2.261 1.437 1.442 1.641 3.495.823 5.349-.823 1.849-2.261 3.083-3.698 3.083-.823 0-1.646 0-2.464.203-3.698.412-9.041.823-11.093-4.932-2.464 1.849-4.724 4.109-5.953 6.375-6.782 10.073-3.907 21.38 8.005 33.302l.208.208c2.26 3.495 2.26 7.198 2.26 10.896 0 3.495 0 6.787 1.849 9.662 2.667 5.349 6.98 9.869 12.323 12.75 2.875 1.645 6.365 1.437 9.037-.209 3.489-15.416 9.859-36.594 28.547-39.677 1.437-.208 2.672 0 3.286.615 1.026.823 1.235 2.469 1.235 3.495v.411l-1.646 2.057c-1.026 1.235-2.261 2.469-3.698 3.495-8.214 5.755-12.526 12.333-17.047 19.328-2.052 3.084-4.104 6.37-6.573 9.662-.615.823-1.229 1.437-1.849 1.849-.203 1.031-.406 2.057-.818 3.291-1.849 17.474-5.75 33.308-9.859 50.167l-.615 2.464Zm38.61-94.573h-.823c-14.787 2.26-21.151 17.062-25.464 33.51 1.849-2.672 3.49-5.141 5.136-7.812 4.312-6.99 9.036-14.183 17.661-20.146 1.229-.823 2.261-1.855 3.078-2.881l1.032-1.437c0-.823-.209-1.031-.209-1.234h-.411Zm-54.839-37.422c0 .208 0 .411.209.823 1.229 3.494 4.104 3.703 8.421 3.291 1.026 0 1.844-.203 2.667-.203.412 0 1.026-.62 1.438-1.443.411-.822.411-1.849-.204-2.468-2.057-1.438-4.52-2.052-7.395-1.641-1.849 0-3.698.823-5.136 1.641Zm-5.338-98.068c-.823 6.167-1.641 12.542-.823 18.708 0 2.672 2.057 4.318 3.906 5.964.406.411 1.026.823 1.437 1.234 2.464-.208 6.162-1.854 7.803-4.317 1.026-1.443 1.234-2.881.822-4.318-2.26-7.61-6.984-12.953-13.145-17.271Zm-26.287-17.271c3.693 2.261 7.802 4.318 11.703 6.167 4.313 2.26 8.625 4.318 12.735 6.989 1.234-8.427 1.849-16.448-1.229-23.849v-.411c0-1.438-1.438-2.875-2.881-2.875h-.203c-5.135-1.234-9.651-.208-13.349 3.286-3.286 2.672-5.338 6.584-6.776 10.693Zm31.214-75.661c12.942 5.552 29.989-1.235 39.437-12.334 2.667-3.703 3.287-8.432 1.641-12.75-1.641-4.109-4.927-6.989-9.037-7.812-16.224 0-25.468 13.776-29.573 22-1.645 3.083-2.26 6.989-2.468 10.896Z"/><mask id="a" width="402" height="262" x="481" y="76" maskUnits="userSpaceOnUse" style="mask-type:luminance"><path fill="#fff" d="M481.333 76h401.302v261.333H481.333V76Z"/></mask><g mask="url(#a)"><path fill="#FD694C" d="m755.911 336.063-1.229-2.058c1.229-.614 2.464-1.234 3.49-1.437 1.437-.412 2.672-1.026 3.698-1.849 3.286-3.292 4.724-7.813 6.364-12.542 2.261-6.786 4.724-13.984 12.532-16.656h.411c2.875 0 4.927 1.854 6.979 3.495 1.235 1.031 2.469 2.057 3.907 2.88 17.046 9.458 36.76-2.88 47.645-19.943 1.849-5.552-.203-9.25-3.698-12.953-1.026-.615-2.052-1.026-3.078-1.437-5.135 4.317-10.474 9.458-15.817 15.625-4.313 4.317-13.141 9.046-20.125 4.317l-.204-.208c-2.468-2.464-4.723-9.25-2.057-12.13 6.573-5.344 22.182-15.828 37.589-10.688 9.239-7.406 18.687-12.13 28.547-14.396 3.698-1.849 5.546-5.552 7.395-9.458 1.026-7.812 3.49-14.802 5.542-21.792 1.849-5.963 3.698-11.515 4.724-17.062v-.208c1.234-3.084.823-5.964-1.026-8.224-3.078-3.698-9.859-5.756-16.021-4.521-.823.203-1.849.614-2.875 1.026-11.708 4.114-25.26 8.635-35.12-1.438-4.927-6.578-3.901-13.984-3.083-20.562.412-2.464.62-4.933.62-6.99-2.057-19.328-9.037-32.896-22.182-44.203-11.709-11.719-27.11-14.187-38.204-14.187-1.849.208-3.901.619-5.75 1.031 2.261 5.547 3.287 11.719 2.875 18.297 0 6.166-3.901 11.104-11.088 13.364-6.781 2.261-15.609 0-17.87-4.729-1.849-5.755-1.437-10.693 1.234-15.213 4.105-6.584 12.527-10.896 21.36-13.365-2.261-4.729-5.755-8.844-9.86-12.542-13.968-12.13-36.765-17.682-56.484-13.573-20.739 4.73-39.021 5.964-55.864 4.115-3.902-.412-8.006-1.026-11.912-1.646-47.443-6.375-101.047-13.365-133.292 26.318l-1.849-1.646c33.068-40.708 87.495-33.51 135.553-27.14 4.109.62 8.01 1.03 11.911 1.645 16.432 1.854 34.505.412 55.047-4.11 20.536-4.114 44.156 1.647 58.739 14.188 4.724 4.11 8.214 8.636 10.678 13.771a40.767 40.767 0 0 1 6.572-1.229c11.709 0 27.933 2.672 40.053 14.802 13.552 11.719 20.744 25.906 23 46.052 0 2.469-.407 4.938-.615 7.61-.823 6.369-1.641 12.953 2.463 18.5 8.834 8.843 20.745 4.526 32.454.619 1.026-.411 2.052-.619 3.078-1.026 7.192-1.442 14.791.818 18.484 5.344 2.469 3.083 3.083 6.787 1.438 10.693-1.026 5.755-2.875 11.307-4.724 17.474-2.256 6.786-4.516 13.979-5.542 21.588l-.208.412c-2.052 4.317-4.313 8.635-8.828 10.896h-.209c-9.239 2.057-17.87 6.375-26.495 12.953.823.411 1.438.823 2.261 1.234l.203.203c3.495 3.495 6.984 8.224 4.318 15.625l-.209.209c-11.297 18.093-32.448 31.25-50.932 20.968-1.646-.823-3.083-2.057-4.318-3.083-1.843-1.438-3.078-2.672-5.13-2.88-6.573 2.265-8.63 8.432-10.885 15.01-1.646 4.729-3.287 9.87-6.985 13.365-1.437 1.437-3.083 2.057-4.521 2.468-.817.204-1.848.615-2.875 1.027Zm42.516-44.615c5.75 3.703 13.349-.412 16.844-4.115 4.927-5.755 9.854-10.687 14.786-14.802-13.76-3.495-27.729 5.964-33.682 10.49-1.234 1.229.203 6.37 2.052 8.427Zm-46.005-181.13c-8.219 2.26-16.432 6.369-20.13 12.333-2.261 3.906-2.667 8.224-1.229 12.953 1.64 3.292 9.447 5.141 14.786 3.292 4.312-1.443 9.448-4.526 9.448-11.104.411-6.167-.615-12.131-2.875-17.474Z"/></g><path fill="#FD694C" d="M393.615 359.297c-.62 0-1.438 0-2.058-.208-3.489-.412-6.573-2.261-8.416-4.933-2.672-3.906-2.672-8.843-2.469-13.161.208-2.464.208-4.932.411-7.193.62-8.224 1.235-16.859.209-25.083-1.438-12.13-6.37-21.792-13.761-27.552-1.646-1.235-3.286-2.261-4.932-3.287a62.593 62.593 0 0 1-8.01 15.625c-9.448 13.156-28.75 22.818-45.594 15.214-7.188-3.292-12.938-10.073-15.61-18.297-2.671-8.432-1.849-17.068 2.053-24.057 2.057-3.704 4.932-6.579 8.01-8.224 4.109-2.261 8.625-2.469 12.531-2.672 11.703-.62 23 .614 33.682 3.286.615-4.109 2.667-8.224 5.954-11.51 2.671-2.469 5.958-4.526 9.859-5.755.208-10.693.62-21.797 7.187-30.433 4.521-5.963 11.506-9.661 17.047-12.13 31.016-13.979 66.344-14.594 93.657-13.568 8.833.412 18.078.823 26.703 1.438 22.385 1.443 45.39 2.672 67.776.62 4.312-.412 8.625-1.032 12.734-1.646-4.312-1.235-8.625-2.88-12.937-4.938-13.766-6.369-21.98-14.802-23.828-24.463-1.438-8.636.822-16.245 6.984-23.026 13.963-15.422 45.182-21.589 62.229-20.354 7.396.614 32.656 3.494 42.516 16.036 3.494 4.318 4.724 9.25 3.901 14.802-1.026 6.167-4.719 10.896-7.599 13.776-8.214 8.016-19.099 13.156-29.37 18.094l-.615.203c-9.036 4.115-18.687 7.401-29.166 9.87 4.317.614 8.63.823 12.734.614 14.995-.822 29.37-7.192 43.13-13.364 2.058-.823 3.907-1.849 5.959-2.672 15.609-6.781 33.89-13.365 51.349-9.661 10.062 2.057 19.713 8.838 25.26 17.473 4.313 6.99 5.75 14.396 4.109 21.386-1.031 4.109-2.875 8.016-4.724 11.922-3.494 7.401-6.984 14.39-3.494 20.765 2.463 4.526 8.218 7.61 15.609 8.021 3.495.203 6.984-.208 10.474-.823 1.646-9.255 5.344-18.297 10.885-25.906 2.261-3.083 5.344-6.786 9.86-7.812 2.463-.62 5.338-.209 7.599 1.437 1.849 1.234 2.875 2.88 3.083 4.938.203 2.052-.411 3.906-1.026 5.546-4.932 11.724-15.818 20.766-27.932 24.058-.209 1.026-.209 2.057-.412 2.88-.411 5.552-.208 11.099 0 16.651.412 6.99.615 14.391-.62 21.589-.817 5.14-2.875 10.281-4.723 15.421-4.105 10.688-7.803 20.766-2.053 29.193l-2.052 1.438c-6.573-9.454-2.26-20.558 1.849-31.454 1.849-4.937 3.693-10.078 4.724-15.01 1.229-6.786.818-13.979.615-20.969-.208-5.552-.615-11.307 0-17.067 0-.615.203-1.438.203-2.058-3.286.62-6.776 1.032-10.266.823-3.906-.203-13.557-1.64-17.666-9.25-3.901-7.609-.203-15.422 3.494-23.026 1.849-3.703 3.698-7.609 4.516-11.307 1.646-6.375.208-13.162-3.698-19.531-5.13-8.224-14.172-14.396-23.614-16.448-16.844-3.5-33.891 2.463-49.912 9.453a74.89 74.89 0 0 0-5.953 2.677c-13.969 6.37-28.552 12.745-44.161 13.568-6.162.203-12.526-.412-19.099-1.849-5.959 1.026-11.912 2.052-18.282 2.463-22.797 2.058-45.802.62-68.187-.614-8.828-.62-17.87-1.026-26.698-1.438-27.115-1.031-62.026-.411-92.427 13.36-5.339 2.468-11.912 5.76-16.224 11.515-5.75 7.813-6.365 18.094-6.573 28.167 2.26-.615 4.724-1.026 7.396-1.235 5.958-.411 14.172 0 19.719 5.349 3.078 2.875 4.927 6.99 6.567 10.688.823 2.057 1.849 4.114 2.88 5.963 9.448 15.625 31.625 17.474 49.292 13.98 5.136-1.026 7.802-2.672 8.625-5.136.615-2.057 0-4.526-.823-5.963-4.312-8.844-14.583-12.339-24.437-15.834l-2.261-.823c-8.422-3.494-22.797-10.276-23.619-23.229-.412-5.76 2.463-11.927 7.598-16.656 11.297-10.484 31.011-10.484 42.105.208 5.135 4.729 8.213 11.099 11.297 17.063 2.052 4.114 4.312 8.432 6.984 12.338 4.312 5.959 13.141 12.131 20.536 12.334 3.287 0 5.75-1.026 7.599-3.292l1.849 1.646c-2.26 2.88-5.547 4.318-9.656 4.114-8.417-.208-17.865-6.989-22.385-13.364-2.875-3.906-5.136-8.432-7.188-12.542-3.083-6.166-5.958-11.927-10.682-16.448-10.266-9.87-28.339-9.87-38.61-.208-4.52 4.318-6.984 9.667-6.776 14.807.615 11.308 13.964 17.886 21.771 20.558l2.255.822c9.86 3.495 21.157 7.401 25.881 17.063 1.437 2.88 1.849 5.76 1.026 8.021-1.641 4.521-6.776 5.963-10.474 6.786-18.485 3.698-41.896 1.641-51.964-15.01-1.229-2.057-2.26-4.115-3.078-6.375-1.646-3.698-3.286-7.193-5.958-9.87-4.927-4.521-12.323-5.135-17.87-4.521-2.667.203-5.339.615-7.802 1.438v1.854c-.208 5.547-.615 12.333-1.646 19.323a84.5 84.5 0 0 1 16.641 9.87c20.125 15.01 31.422 38.651 29.573 61.474-.615 9.046-3.49 15.833-8.625 20.151-2.875 1.849-6.573 3.083-10.474 3.083Zm-29.99-83.682c0 .208 0 .208 0 0 1.849 1.234 3.906 2.468 5.755 3.703 8.005 6.166 13.141 16.448 14.578 29.192 1.026 8.433.412 17.068-.203 25.495-.208 2.469-.411 4.729-.411 7.198-.203 4.11-.203 8.427 1.849 11.516 1.437 2.052 3.698 3.495 6.573 3.906 3.698.411 7.599-.62 10.474-3.089 5.546-4.723 7.187-12.541 7.599-18.296 1.64-21.589-9.651-44.818-28.756-59.214-4.724-3.495-10.062-6.781-15.609-9.25a32.025 32.025 0 0 1-1.849 8.839Zm-41.896-17.886c-1.849 0-3.698 0-5.338.209-3.698.203-8.011.411-11.506 2.463-2.666 1.443-5.135 3.906-6.979 7.198-3.698 6.375-4.317 14.391-1.849 22 2.464 7.604 7.599 13.776 14.375 16.859 14.995 6.782 33.479-1.854 42.516-14.395 3.49-4.73 5.953-10.073 7.802-15.417-3.698-2.261-7.391-4.938-9.448-9.047-1.026-2.057-1.437-4.318-1.641-6.578-8.833-2.057-18.072-3.292-27.932-3.292Zm30.396 4.115c.203 1.64.615 3.286 1.234 4.729 1.641 3.286 4.724 5.547 8.011 7.604.818-2.88 1.437-5.552 2.052-8.427-3.49-1.443-7.396-2.677-11.297-3.906Zm.203-2.469c4.11 1.026 8.011 2.469 11.708 4.109 1.027-6.578 1.438-12.953 1.646-18.296v-.823c-3.286 1.234-5.958 2.88-8.218 4.937-2.667 2.261-4.724 6.167-5.136 10.073Zm433.573-51.193c-.62 0-1.031 0-1.646.203-3.698 1.026-6.364 4.115-8.422 6.787-5.135 6.989-8.625 15.213-10.265 23.641 11.088-3.287 20.739-11.511 25.26-22.204.615-1.437 1.026-2.88.823-4.109-.208-1.443-1.234-2.469-2.057-3.089-.818-.817-2.255-1.229-3.693-1.229ZM618.51 115.25c-17.046 0-43.13 6.167-55.453 19.74-5.547 6.166-7.807 13.156-6.369 20.76 1.848 11.313 13.145 18.505 22.39 22.823 5.953 2.672 11.912 4.729 17.662 6.167 12.526-2.464 24.031-6.167 34.505-10.896l.614-.203c10.271-4.73 20.745-9.667 28.756-17.48 2.666-2.671 6.161-6.989 6.984-12.541.818-4.932-.411-9.25-3.286-12.948-9.245-11.724-33.48-14.599-40.875-15.219-1.641-.203-3.287-.203-4.928-.203Z"/><path fill="#FD694C" d="M509.859 188.646c-1.229-1.849-3.078-3.083-4.927-4.724-3.901-2.88-7.807-5.964-7.599-12.75 0-3.495-3.494-5.552-7.395-8.016-1.641-1.031-3.079-1.854-4.516-2.88a73.682 73.682 0 0 1-5.958-5.344c-6.985 8.016-15.61 15.006-25.261 19.943-5.958 3.083-11.094 4.729-15.818 5.141-11.703 1.026-24.026-5.964-29.984-16.86-.615-1.234-1.234-2.469-1.849-3.703-2.052-4.318-4.109-8.224-7.802-10.073-2.26-1.031-5.135-1.234-7.807-1.234-1.849 0-3.901 0-5.959.203-6.776.208-13.76.411-20.536-1.229-8.011-1.854-17.458-7.198-19.922-16.86-1.849-7.406 1.026-16.036 7.396-22 4.927-4.729 11.703-8.02 20.948-10.28 19.51-4.73 40.458-3.293 58.943 4.114 2.88 1.229 5.958 2.463 8.63 3.698 5.75 2.672 11.703 5.343 18.073 6.786 1.849.412 3.901.615 5.953.823 1.646-8.635 5.958-16.656 12.531-21.797 4.313-3.495 10.885-5.552 15.198-1.849 2.463 2.058 3.286 5.344 3.698 8.224 2.463 15.214-.615 31.25-8.422 45.235-1.849 3.494-4.109 6.781-6.573 9.864 1.849 1.854 3.698 3.495 5.958 5.141 1.23 1.031 2.667 1.849 4.313 2.672 4.109 2.468 8.828 5.349 8.625 10.078-.203 5.547 3.083 7.812 6.573 10.687 1.849 1.443 3.901 3.084 5.547 5.141l-2.058 1.849Zm-118.505-42.761c2.672 0 5.547.204 8.214 1.438 4.521 2.26 6.781 6.786 9.036 11.307.62 1.235 1.235 2.469 1.849 3.495 5.547 10.073 17.047 16.656 27.729 15.625 4.516-.411 9.24-1.849 14.787-4.932 9.448-4.933 18.073-11.719 24.646-19.532-6.985-7.609-11.5-16.447-13.146-25.703-.615-3.906-.818-7.812-.406-11.718-2.058-.204-4.318-.412-6.162-.823-6.573-1.438-12.531-4.11-18.49-6.99-2.875-1.234-5.75-2.672-8.625-3.698-18.072-7.198-38.609-8.635-57.505-3.906-8.833 2.26-15.198 5.344-19.922 9.661-5.75 5.344-8.422 13.157-6.781 19.532 2.261 8.635 11.094 13.573 18.078 15.213 6.365 1.443 13.141 1.235 19.922 1.031 2.052 0 3.901-.208 5.953-.208.412.208.62.208.823.208Zm75.375-29.812c-.411 3.698-.411 7.401.209 11.099 1.437 8.635 5.75 16.859 12.114 24.057a72.53 72.53 0 0 0 6.162-9.25c7.599-13.573 10.474-28.989 8.218-43.588-.411-2.47-1.031-5.141-2.875-6.787-3.286-2.672-8.422-1.026-12.119 1.854-5.959 4.724-10.063 11.922-11.5 19.943 6.161-.208 12.734-2.266 16.838-7.198l1.849 1.646c-4.516 5.963-11.911 8.224-18.896 8.224Z"/><g fill="#FD694C"><path d="M569.63 398.563h-.411c-3.287-.204-6.573-2.672-7.599-5.959-1.026-3.083-.412-6.786 1.64-9.666l2.053 1.442c-1.641 2.052-2.053 4.933-1.23 7.193.823 2.469 3.078 4.115 5.547 4.318 2.464.208 4.927-1.438 5.542-3.698.62-2.469-1.641-6.375-4.516-8.636l1.641-1.849c2.672 2.261 6.37 7.193 5.135 11.308-1.026 3.083-4.312 5.547-7.802 5.547ZM699.021 409.052h-.823c-2.464-.208-4.516-.62-5.953-1.646-1.438-.823-4.521-3.291-4.521-5.963h2.464c0 1.026 1.437 2.468 3.286 3.703 1.234.823 2.672 1.234 4.724 1.234 1.646 0 3.698-.208 4.932-1.442 1.026-1.235.615-3.495-.62-4.73-1.848-1.849-3.489-2.463-4.927-2.26l-.411-2.469c3.083-.614 5.547 1.443 7.187 2.88 2.261 2.058 2.672 5.756.823 8.021-1.234 1.849-3.286 2.672-6.161 2.672Z"/></g><g fill="#FD694C"><path d="M755.911 360.734c-4.312-8.635-2.666-18.916-1.026-28.989 1.235-6.99 2.464-14.391 1.235-20.969-1.031-6.995-4.724-13.365-8.219-19.531a88.146 88.146 0 0 1-3.286-5.964c-6.98-12.953-10.678-27.552-11.297-42.151v-4.318c-.203-11.098-.407-22.614-9.651-28.369-5.136-3.292-11.709-3.703-17.87-1.235-11.089 4.318-17.458 13.365-24.235 22.823-1.64 2.261-3.286 4.521-4.927 6.781-8.63 11.313-17.869 17.683-27.114 18.506-3.693.411-7.188-.203-10.677-1.235-8.219 3.495-17.459 6.787-27.11 9.256 0 .203-.208.411-.208.614-.615 2.057-1.229 3.906-1.849 5.964-3.698 11.718-9.036 24.672-19.099 33.307-8.422 7.401-20.745 11.51-34.505 11.922-14.583.208-26.495-4.521-32.453-13.156-4.313-6.167-5.75-14.391-4.724-24.469.411-4.318 1.437-8.63 2.26-12.948.823-3.703 1.646-7.609 2.058-11.313.406-3.286.614-6.578-2.261-8.838-2.463-1.849-5.958-2.057-8.833-.412-5.339 2.672-7.396 8.839-8.834 14.188-3.078 11.51-4.104 23.437-3.489 35.156 0 1.026.203 2.261.203 3.292.411 5.547.823 11.307-.615 16.859-2.666 9.662-11.5 17.063-21.562 17.886-1.031 0-2.469 0-3.495-.823-1.026-.823-1.437-2.058-1.641-3.084 0-.208 0-.411-.208-.619-3.078 2.88-5.75 6.171-7.802 9.666-2.672 4.521-6.776 12.13-13.146 10.282-5.135.817-10.677 7.192-12.937 10.484l-2.058-1.443c2.672-3.906 8.834-10.687 14.995-11.51h.412c4.312 1.437 7.599-3.906 10.474-9.047 2.463-4.526 5.75-8.432 9.651-11.719.208-7.401 5.343-13.979 9.244-19.12 1.235-1.645 2.261-2.88 3.084-4.317 1.844-2.881 4.927-3.292 7.187-2.266 2.256 1.031 4.104 3.292 3.49 6.786-1.026 4.73-3.49 8.844-6.984 11.719-1.849 1.443-4.105 2.672-6.162 3.906-.818.412-1.849 1.032-2.667 1.443-1.645.818-3.083 1.849-4.52 3.084 0 .614.208 1.437.208 2.052 0 .411.203 1.234.614 1.442.412.412 1.23.203 1.849.203 8.829-.822 16.839-7.604 19.308-16.036 1.437-5.141 1.026-10.693.614-16.036 0-1.027-.208-2.261-.208-3.287-.818-12.13.411-24.266 3.495-35.984 1.64-5.959 4.104-12.745 10.062-15.828 3.901-2.058 8.422-1.849 11.5.614 4.313 3.292 3.698 8.432 3.287 11.104-.615 3.907-1.438 7.813-2.052 11.516-.823 4.109-1.849 8.427-2.261 12.536-1.026 9.459.412 17.068 4.313 22.823 7.807 11.308 23.828 12.339 30.401 12.131 13.14-.204 24.849-4.318 32.859-11.308 9.651-8.224 14.583-20.969 18.281-32.276.615-1.646 1.026-3.5 1.641-5.14-9.859 2.463-20.125 3.906-30.396 3.906-8.422 0-28.344-1.646-33.479-17.683-2.26-6.989-.823-15.01 4.109-21.385 8.011-10.073 22.589-13.979 37.381-9.865 11.088 3.287 20.744 10.277 27.932 16.037l2.052 1.641c.615.619 1.437 1.234 2.052 1.645 1.031-1.849 2.057-3.494 3.083-5.14 8.214-12.334 21.157-19.531 33.068-18.089 3.287.412 7.599 1.438 10.677 4.933 4.724 5.552 3.084 13.979-1.026 19.119-4.104 5.141-9.859 8.021-16.021 10.693-1.64.823-3.489 1.646-5.338 2.26 2.052.412 4.312.412 6.573.412 8.625-.823 17.25-6.578 25.468-17.474 1.641-2.266 3.287-4.526 4.928-6.787 6.572-9.458 13.557-19.119 25.265-23.848 6.776-2.672 14.375-2.058 20.125 1.437 10.474 6.578 10.682 19.328 10.886 30.432v4.318c.411 14.182 4.312 28.37 10.885 41.12 1.026 2.052 2.26 3.906 3.286 5.755 3.698 6.375 7.396 12.953 8.625 20.354 1.026 6.99-.203 14.391-1.229 21.792-1.646 10.073-3.286 19.531.818 27.552l-2.464 2.26Zm-266.177-57.77c-1.026 0-2.057.411-2.875 1.64-.823 1.443-1.849 2.88-3.083 4.318-3.901 5.141-7.391 10.281-8.422 15.422 1.031-.615 1.849-1.235 2.875-1.849.823-.62 1.849-1.031 2.88-1.646 2.052-1.026 4.105-2.26 5.75-3.495 3.078-2.469 5.136-5.963 6.162-10.281.411-2.057-.823-3.292-1.849-3.906-.615-.203-1.026-.203-1.438-.203Zm84.823-80.391c-8.422 0-17.458 2.672-23.62 10.484-4.312 5.552-5.75 12.75-3.697 19.12 4.724 14.396 23.208 16.037 31.218 16.037 10.683 0 21.157-1.641 31.219-4.318 2.057-6.781 4.313-13.771 7.599-20.354-.818-.615-1.641-1.438-2.464-2.052l-2.052-1.646c-6.984-5.761-16.432-12.542-27.114-15.625-3.281-1.235-7.188-1.646-11.089-1.646Zm44.776 22.411c-2.672 5.756-4.724 11.922-6.781 17.886 8.01-2.261 15.609-4.933 22.797-7.813-5.75-2.26-10.885-6.166-16.016-10.073Zm1.229-2.265c5.75 4.729 11.912 9.047 18.282 11.104 2.875-1.234 5.75-2.469 8.422-3.495 5.953-2.672 11.5-5.344 15.198-10.073 3.489-4.318 4.723-11.515 1.026-15.833-2.464-2.88-6.162-3.906-9.037-4.11-13.349-1.442-24.854 8.224-30.604 17.063-1.229 1.646-2.464 3.495-3.287 5.344ZM499.594 626.573c-8.834 0-16.641-3.083-21.157-8.635-4.927-5.959-5.958-14.391-6.161-20.969-.411-13.573 1.438-26.729 5.339-39.683.822-2.875 1.849-5.755 2.875-8.635a241.87 241.87 0 0 0-17.25-.615h-2.672c-5.953.204-12.323.412-18.073-1.442-5.959-1.849-10.886-5.959-15.406-9.453-5.339-4.115-11.089-8.844-14.579-15.422-1.645-3.292-2.671-6.787-3.698-10.485-2.057-6.989-3.901-13.573-9.859-16.244-1.026-.412-2.26-.823-3.489-1.026-1.235-.412-2.672-.62-3.907-1.235-2.052-.823-5.541-2.469-4.927-6.166l2.464.411c-.203 1.437.614 2.26 3.495 3.495 1.026.411 2.255.823 3.489 1.026 1.234.411 2.672.62 3.901 1.234 6.985 3.084 9.037 10.485 11.094 17.682 1.026 3.495 2.052 6.99 3.489 9.87 3.079 6.167 8.834 10.688 13.761 14.594 4.521 3.495 9.036 7.198 14.583 9.047 5.547 1.854 11.5 1.646 17.25 1.443h2.672c6.162-.209 12.12 0 18.281.614 1.641-4.521 3.078-9.25 4.105-13.979 1.437-6.786 2.057-16.656-2.667-24.672-2.875-4.937-7.396-8.635-12.323-12.542-1.849-1.442-3.495-2.88-5.344-4.526-5.135-4.52-9.448-9.864-12.937-15.828-2.052-3.291-4.521-8.224-2.875-13.161 1.437-4.521 5.547-6.99 9.859-9.047 1.229-.615 2.464-1.229 3.698-1.849 1.229-.615 2.667-1.234 3.901-1.849-.62-7.198.615-14.599 1.641-21.177.208-1.026.411-2.26.619-3.495-.208 0-.619-.208-.822-.208-9.448-2.672-19.308-5.344-27.73-10.896-11.5-7.812-16.224-19.943-12.734-33.307l2.469.62c-3.287 12.333 1.026 23.437 11.703 30.63 8.01 5.349 17.667 8.021 26.906 10.692.208 0 .412.209.615.209.823-3.703 2.057-7.401 4.109-10.693 1.438-2.26 2.875-3.495 4.724-3.703 1.646-.412 3.286 0 5.135 1.031 3.698 2.057 6.162 5.755 7.188 10.485.615 3.083.411 6.578-.203 9.869 7.39 3.084 14.375 6.375 20.739 9.459 10.886 5.343 22.183 11.51 29.167 21.791 6.984 10.073 8.422 25.907-.823 34.953-6.573 6.37-17.458 8.224-27.932 4.521-9.24-3.286-16.839-9.869-23.823-16.239-8.214-7.61-17.047-16.657-20.13-28.375-.203-1.235-.615-2.261-.615-3.495-1.026.615-2.052 1.026-3.078 1.646-1.234.614-2.469 1.234-3.698 1.849-3.698 1.849-7.396 4.114-8.625 7.609-1.031 2.875-.208 6.37 2.667 11.099 3.286 5.76 7.599 10.693 12.531 15.219 1.641 1.437 3.49 2.875 5.135 4.312 4.724 3.912 9.651 7.818 12.938 13.162 5.135 8.838 4.516 19.328 2.875 26.521-1.026 4.729-2.464 9.255-4.109 13.776 3.494.411 6.781.823 10.27 1.437 6.573 1.235 13.349 2.672 18.896 6.99 5.136 4.114 9.037 10.281 11.912 19.328 2.463 7.812 3.494 15.625 3.698 23.849 0 4.729-.412 11.515-3.901 17.068-4.11 6.369-11.912 10.484-21.771 11.307-.823 0-1.849.203-2.875.203Zm-16.433-77.714c0 .204-.208.412-.208.615-1.026 2.88-2.052 5.755-2.875 8.635-3.901 12.542-5.75 25.698-5.338 38.86.208 6.166 1.026 13.979 5.546 19.323 4.516 5.552 12.938 8.432 22.386 7.609 9.036-.823 16.224-4.521 19.922-10.281 3.083-4.932 3.495-11.307 3.495-15.625 0-7.813-1.235-15.625-3.495-23.026-2.667-8.427-6.162-14.391-10.886-18.094-5.135-3.906-11.5-5.552-17.661-6.578-3.901-.615-7.396-1.026-10.886-1.438Zm-13.557-98.484c.208 1.438.412 2.672.823 3.906 2.875 11.104 11.5 19.74 19.307 27.141 6.776 6.167 13.964 12.542 22.797 15.625 9.448 3.292 19.511 1.849 25.469-4.115 8.422-8.224 6.776-22.614.411-31.661-6.781-9.662-17.666-15.625-28.343-20.969-6.162-3.083-12.943-6.375-20.334-9.25-.823 2.261-2.057 4.521-3.494 6.37-4.313 5.76-10.266 9.667-16.636 12.953Zm1.849-25.495c-.203 1.031-.411 2.058-.614 3.084-1.027 6.171-2.053 12.953-1.646 19.536 5.755-3.089 11.297-6.583 15.203-11.724 1.229-1.641 2.255-3.698 3.078-5.755-3.287-1.235-6.573-2.469-9.859-3.495-2.053-.411-4.105-1.026-6.162-1.646Zm.615-2.463c2.057.614 4.317 1.229 6.369 1.849 3.287 1.026 6.573 2.26 9.86 3.494.614-2.88.818-5.755.203-8.432-.615-2.875-2.052-6.578-5.953-8.838-1.235-.823-2.469-1.026-3.495-.823-1.026.208-2.052 1.026-3.286 2.672-1.849 3.083-3.079 6.578-3.698 10.078Z"/></g><mask id="b" width="312" height="389" x="246" y="541" maskUnits="userSpaceOnUse" style="mask-type:luminance"><path fill="#fff" d="M246.667 541.333h310.666V930H246.667V541.333Z"/></mask><g mask="url(#b)"><path fill="#FD694C" d="M536.766 929.833c-4.313 0-8.625-1.646-11.709-4.114-4.312-3.287-7.599-7.813-10.677-12.13-.614-1.027-1.437-1.849-2.052-2.875-6.573-9.047-14.583-17.068-23.62-23.849-2.26-1.646-3.906-4.318-4.109-7.198-.412-2.881.615-5.964 2.463-8.433 5.547-6.578 8.219-16.651 6.985-26.312-.208-1.854-.615-3.703-1.026-5.552-3.084.203-5.959.203-8.834-1.031-9.239-3.495-11.088-15.214-11.708-23.849a181.958 181.958 0 0 1-.614-14.803c-5.339-8.427-10.271-17.27-12.526-27.14-.823-3.495-1.235-7.193-1.646-10.688-.615-4.526-1.026-9.047-2.464-13.364-4.521-14.599-17.661-26.933-35.739-32.896-7.188-2.469-14.579-3.703-22.178-4.526.818 4.937 2.053 9.667 3.49 14.187 9.651 33.927 24.443 65.792 43.953 95.193l.823 1.234c6.365 9.459 12.938 19.329 12.526 30.636 0 1.849-.411 4.521-2.052 6.37-2.26 2.677-6.161 2.677-9.245 2.468-10.677-.614-20.948-4.729-29.37-11.718-27.317-22-50.317-48.521-68.598-78.745-2.464-3.906-4.724-8.016-6.985-11.922-9.036-15.625-18.276-31.661-32.036-43.177-2.672-2.26-5.547-4.526-8.631-6.375-1.64-.203-3.281-.412-4.927-.412-18.484-2.057-32.859-5.552-45.39-11.307-3.287-1.437-3.901-4.729-2.875-7.198.823-2.463 3.489-4.312 6.984-3.286 15.401 4.932 32.448 10.484 47.031 19.943 20.542 1.848 41.693 1.645 62.026 1.645h4.521c8.214 0 16.839-.208 25.672.615-.203-1.646-.411-3.495-.411-5.141-.203-5.14 0-10.484.411-15.625.203-4.109.615-8.224.615-12.333-.203-23.031-11.912-45.849-31.011-61.063-19.307-15.218-45.187-22.411-71.474-19.536-4.109.411-7.599.208-10.682-1.026-4.724-1.646-7.802-4.729-9.24-8.839-2.26-6.989.615-15.421 4.313-21.177 1.026-1.645 2.26-3.291 3.49-4.937 3.901-5.547 8.01-11.511 8.421-18.089l2.464.203c-.411 7.401-4.724 13.568-8.828 19.329-1.235 1.64-2.261 3.286-3.287 4.932-3.286 5.14-6.161 12.953-4.109 18.917 1.234 3.494 3.698 5.963 7.802 7.401 2.672 1.026 5.958 1.234 9.656.822 26.698-2.88 53.401 4.318 73.323 20.146 19.714 15.625 31.63 39.068 31.834 62.917 0 4.318-.204 8.427-.615 12.542-.411 4.932-.823 10.073-.411 15.213.203 1.849.203 3.698.614 5.552 7.807.823 15.61 2.052 23.208 4.521 18.693 6.167 32.657 19.12 37.178 34.542 1.437 4.521 2.052 9.25 2.463 13.776.412 3.495.823 6.989 1.641 10.484 1.849 8.224 5.755 16.037 10.271 23.235.614-8.224 2.671-15.834 7.599-22.209 1.234-1.64 2.875-3.286 4.312-4.729 1.646-1.641 3.286-3.286 4.724-5.344 3.286-4.521 4.932-10.281 6.37-16.036.411-1.646.817-3.292 1.437-4.932 6.162-20.151 19.922-37.834 38.198-48.318 6.573-3.703 13.761-9.458 10.886-15.011l2.26-1.026c2.057 4.11 1.646 10.485-11.911 18.297-17.662 10.282-31.016 27.344-36.969 46.88-.412 1.641-1.026 3.287-1.438 4.933-1.646 5.755-3.083 11.719-6.776 16.859-1.437 2.057-3.286 3.906-4.932 5.552-1.438 1.438-2.875 2.875-4.109 4.521-5.339 6.787-6.98 15.214-7.391 24.26 1.437 2.261 2.875 4.527 4.516 6.787l1.234 1.849c5.958 9.047 12.12 18.917 14.995 29.401h1.64c19.922-.823 39.844 9.25 50.73 26.109 10.885 16.86 11.911 39.271 2.875 56.953-1.23 2.469-2.875 5.344-5.75 7.401a18.678 18.678 0 0 1-7.599 1.646Zm-41.282-90.463c.412 1.849.823 3.495 1.026 5.344 1.235 10.281-1.64 20.973-7.599 28.166-1.437 1.854-2.26 4.115-1.849 6.375.209 2.261 1.438 4.115 3.084 5.552 9.239 6.787 17.458 15.011 24.234 24.464.615 1.031 1.438 1.854 2.052 2.88 2.875 4.318 5.959 8.635 10.063 11.719 4.521 3.291 11.505 5.14 16.64 1.646 2.256-1.646 3.693-4.115 4.927-6.375 8.625-17.063 7.599-38.448-2.875-54.485-10.27-16.036-29.369-25.906-48.468-25.083-.412-.203-.823-.203-1.235-.203ZM306.323 709.432c1.849 1.235 3.495 2.672 5.344 4.11 13.963 11.927 23.411 28.166 32.448 44 2.26 3.906 4.52 8.015 6.984 11.922 18.073 29.812 41.078 56.338 67.984 78.541 8.006 6.578 17.662 10.485 27.933 11.099 2.463.208 5.75.208 7.187-1.64.818-1.032 1.438-2.469 1.438-4.73.203-10.692-5.959-20.151-12.12-29.198l-.823-1.234c-19.511-29.604-34.5-61.677-44.156-95.807-1.438-4.729-2.672-9.87-3.49-15.011-8.833-.614-17.667-.614-25.88-.614h-4.516c-19.515 0-39.026.203-58.333-1.438Zm167.802 94.162c0 3.495.203 7.198.615 10.896.614 7.812 2.26 18.713 10.27 21.796 2.261.823 4.724.823 7.391.823-2.875-9.869-8.625-18.916-14.578-28.166l-1.234-1.854c-.823-1.027-1.641-2.261-2.464-3.495ZM253.13 688.87c-1.437 0-2.463 1.031-2.672 2.057-.614 1.438-.203 3.292 1.646 4.109 12.115 5.553 26.083 9.047 44.156 10.901-13.349-7.609-28.343-12.541-41.895-16.859-.412 0-.823-.208-1.235-.208Z"/></g></svg>