<svg width="1200" height="1000" viewBox="0 0 1200 1000" fill="none" xmlns="http://www.w3.org/2000/svg">
<g id="homeface1">
<g id="faceline">
<path id="facestructure" d="M604.542 700.385C603.724 700.385 603.104 700.385 602.286 700.385C589.141 699.766 576.198 695.859 564.906 689.078C555.458 683.318 544.776 678.797 529.99 674.271C522.802 672.01 515.609 668.516 508.63 663.583C508.63 664.406 508.422 665.432 507.604 666.255C506.37 667.901 504.109 668.516 502.057 667.901C489.938 664.609 479.052 658.031 470.427 648.984C468.578 647.135 466.937 645.078 465.5 643.021C455.844 639.323 446.604 635.005 437.974 629.656C431.406 625.75 422.573 619.38 421.75 609.922C421.547 607.453 421.958 605.193 422.984 603.344C424.01 601.49 425.651 599.844 427.708 598.615C429.349 597.792 430.995 597.172 432.635 596.76C429.349 592.443 425.859 588.333 421.75 585.042C417.234 581.755 411.891 579.286 406.755 577.026C404.5 575.995 402.24 574.969 399.979 573.943C390.328 569.214 384.37 563.661 381.906 556.875C379.031 549.271 380.88 540.635 382.109 533.646L385.807 514.932C386.427 512.057 387.042 508.563 386.63 505.068C386.427 503.214 385.807 501.568 384.578 499.307C384.167 498.693 383.958 497.87 383.547 497.25C382.932 496.021 382.318 494.786 381.703 493.964C380.266 491.906 377.182 491.495 375.948 491.495C374.51 491.495 373.073 491.495 371.432 491.703C369.172 491.906 366.911 492.115 364.656 491.495C356.849 489.849 352.536 482.036 350.687 477.516C349.865 475.667 349.25 473.813 348.635 471.964C347.198 467.646 345.76 463.536 343.089 460.036C340.828 456.953 337.953 454.693 334.667 452.224C333.026 450.995 331.38 449.552 329.943 448.318C319.677 439.068 314.13 424.677 315.359 410.901C315.568 409.052 315.771 406.995 316.182 405.146C316.797 401.651 317.208 398.156 317.005 394.656C316.594 388.901 313.922 383.557 311.255 378.208C309.406 374.51 307.349 370.604 306.12 366.286C301.396 350.042 310.432 330.922 326.042 324.344C341.854 317.766 361.573 324.958 369.583 339.969C372.255 344.901 373.484 350.453 374.719 355.802C375.542 359.297 376.359 362.995 377.594 366.286C378.005 367.521 378.417 368.755 379.031 369.984C381.495 376.359 384.167 383.146 381.083 389.313C379.646 392.193 377.385 394.042 375.13 396.099C373.073 397.948 371.021 399.797 369.786 402.063C367.323 406.995 369.583 412.958 372.458 416.453C373.073 417.276 373.896 418.099 374.51 418.917C377.182 421.797 380.266 425.292 379.646 430.432C379.443 433.104 378.005 435.573 375.948 437.422C375.542 437.833 375.333 438.042 374.922 438.245C375.13 439.479 375.333 440.505 375.333 441.74C375.333 443.797 374.922 445.646 374.099 447.292C373.693 448.318 373.073 449.141 372.458 449.964C372.047 450.375 371.844 450.786 371.635 451.406C368.969 455.724 368.557 461.068 368.349 465.797C368.146 471.76 368.146 478.542 371.844 483.891C373.693 486.563 376.359 488.208 379.031 488.823C387.865 490.26 392.589 480.391 394.026 474.224C395.87 466.62 395.87 458.599 395.87 450.995C395.87 446.057 395.87 440.917 396.49 435.776C397.312 428.172 400.594 409.464 415.589 402.677C416.203 402.469 416.823 402.063 417.641 401.854C419.083 401.24 420.521 400.62 421.75 399.797C425.859 396.714 426.682 390.958 427.5 385.203C427.708 384.38 427.708 383.349 427.911 382.526C429.349 373.276 433.047 364.438 438.797 356.828L440.854 358.266C435.307 365.464 431.812 373.891 430.583 382.734C430.375 383.557 430.375 384.38 430.172 385.406C429.349 391.37 428.526 397.948 423.396 401.651C421.958 402.677 420.312 403.292 418.672 403.911C418.052 404.115 417.437 404.323 416.823 404.734C407.167 409.052 400.594 420.563 399.156 435.776C398.75 440.714 398.75 445.854 398.542 450.786C398.542 458.599 398.339 466.823 396.49 474.635C394.641 482.656 389.708 490.057 382.521 491.083C383.141 491.495 383.547 491.906 383.958 492.526C384.781 493.552 385.396 494.99 386.016 496.224C386.427 496.839 386.63 497.661 387.042 498.281C388.479 500.75 389.094 502.802 389.505 504.859C389.917 508.766 389.302 512.672 388.682 515.552L384.781 534.26C383.344 540.839 381.703 549.063 384.37 556.052C386.63 562.224 392.177 567.359 401.214 571.885C403.474 572.911 405.729 573.943 407.786 574.969C413.125 577.229 418.464 579.698 423.187 583.193C428.12 586.896 432.021 591.62 435.51 596.349C439.62 596.146 443.932 596.969 448.042 599.026C454.406 602.109 459.339 607.453 463.443 612.182C467.552 616.703 471.453 621.432 475.151 625.958C480.49 632.536 486.036 639.115 491.995 645.281C494.25 647.547 496.51 649.807 498.771 651.865C501.646 653.505 504.109 655.563 506.167 658.031C514.38 664.406 522.594 668.927 530.813 671.396C545.599 675.917 556.688 680.646 566.135 686.401C577.021 692.984 589.755 696.891 602.49 697.505C605.365 697.714 608.854 697.505 611.938 696.479C615.427 695.245 618.099 692.573 620.563 689.49C621.589 685.172 624.672 681.88 627.75 679.62C635.557 669.547 647.057 662.76 659.589 660.703C661.437 660.5 663.281 660.5 664.516 660.911C667.599 656.182 669.854 650.422 671.911 642.818C672.729 639.938 673.349 637.057 673.964 634.182C675.609 627.396 677.047 620.203 679.922 613.62C681.151 610.745 682.589 608.068 684.234 605.193C686.083 601.698 687.932 598.203 689.37 594.708L689.984 593.063C691.625 588.536 693.474 584.016 693.474 579.698C693.474 572.089 696.146 565.099 698.609 558.109C700.047 554.406 701.484 550.5 702.307 546.594C702.922 544.13 703.333 541.661 703.948 539.193C704.359 536.729 704.771 534.052 705.594 531.589C707.646 522.953 711.755 515.141 715.656 507.328C717.505 503.833 719.354 500.13 720.995 496.432L721.818 494.578C729.417 477.307 738.25 457.984 732.703 440.714C730.854 434.958 732.292 428.995 733.937 423.854C734.141 423.031 734.552 422.208 734.755 421.182C735.375 419.125 736.198 417.068 736.812 415.01C733.318 417.068 729.214 418.099 725.104 418.099C720.995 418.099 717.094 417.068 713.193 416.042C711.958 415.63 710.729 415.422 709.495 415.219C707.234 416.245 704.771 416.656 702.307 416.656C700.255 416.453 698.406 416.042 696.557 415.219C693.885 416.245 691.833 418.099 691.214 420.151C690.599 421.594 690.807 423.234 690.807 424.88V435.776C690.807 439.891 690.807 444.62 689.161 448.938C688.958 449.552 688.75 450.172 688.339 450.583C688.547 453.667 688.958 456.953 689.776 460.036C691.422 467.443 695.12 474.635 698.609 481.422C703.333 490.672 708.26 500.13 708.469 510.615C708.88 524.391 697.786 536.109 683.411 537.344H682.385C680.125 537.552 677.661 537.755 675.401 536.729C673.76 535.906 672.526 534.672 671.292 533.646L671.089 533.438C670.677 533.026 670.266 532.615 670.062 532.411C669.854 532.615 669.651 532.823 669.443 532.823C668.828 533.234 668.214 533.234 667.599 533.438C659.589 534.875 651.578 532.823 643.979 530.766C640.693 529.943 637.609 529.12 634.323 528.505C633.094 528.708 631.656 528.708 630.625 527.885C629.599 527.682 628.781 527.682 627.75 527.682C627.344 527.682 626.724 527.682 626.313 527.682C623.646 527.682 620.974 527.474 618.51 526.24C615.839 524.802 614.198 522.13 613.375 520.281C610.297 513.286 612.552 504.448 618.51 498.693C623.646 493.755 631.448 491.292 639.87 491.703C646.443 492.115 653.016 493.964 661.437 497.87L662.464 498.281C664.927 499.516 667.599 500.75 670.266 501.156C673.552 501.776 677.661 501.156 679.51 497.661C680.125 496.432 680.328 494.786 679.714 493.552C678.891 491.703 677.25 491.292 674.99 490.672C673.964 490.469 672.937 490.057 671.911 489.646C666.161 486.974 664.516 479.365 666.365 473.813C668.214 468.469 672.115 464.563 676.635 460.245C680.125 457.161 683.615 453.87 685.672 449.964C685.672 449.349 685.672 448.938 685.464 448.526C685.052 443.589 684.646 438.656 683 433.927C682.177 431.255 680.948 428.786 679.922 426.323C678.891 424.057 677.865 421.797 677.047 419.536C675.609 415.219 674.375 408.844 677.047 403.292C678.891 399.594 682.177 397.125 685.26 394.656C685.875 394.245 686.495 393.63 687.109 393.219C692.245 389.109 695.937 384.583 698.406 379.854C698.609 379.651 698.609 379.443 698.818 379.24C695.937 379.854 693.271 380.063 690.396 380.063C682.385 380.063 674.375 378.005 666.776 375.536C667.187 378.208 666.161 381.297 664.312 383.557C661.437 386.844 656.714 388.698 650.958 388.286C639.047 387.667 629.807 379.854 620.563 372.25C619.333 371.219 618.302 370.396 617.073 369.37C592.219 369.573 567.161 368.135 542.516 365.255C535.328 364.438 531.427 361.146 531.839 356.828C531.839 356.214 532.042 355.391 532.453 354.771C523.62 355.802 515.203 357.24 508.422 362.38C504.932 365.052 503.906 367.521 504.932 370.396C505.344 371.63 505.958 372.661 506.984 373.479C510.068 376.156 514.172 376.359 518.281 376.568C528.141 376.979 538 376.359 547.651 375.948C557.714 375.333 568.193 374.714 578.458 375.333C595.505 376.156 618.922 380.677 633.911 397.536C635.349 399.182 637.406 401.651 638.229 404.323C639.255 408.021 638.432 412.547 635.76 416.453C631.859 422.417 624.672 426.323 616.047 427.349C613.172 430.021 610.911 433.313 608.651 436.599C605.365 441.328 602.078 446.266 596.943 449.349C594.688 450.786 592.63 451.198 590.781 450.786C589.344 450.375 588.115 449.552 587.495 448.318C586.88 447.292 586.88 446.057 587.292 445.031C587.703 443.797 588.729 442.974 589.552 442.359C590.167 441.948 590.781 441.536 591.401 441.125C595.094 438.453 599.203 435.573 600.641 431.458C600.849 430.641 601.052 430.229 600.849 429.818C600.641 429.406 600.438 428.786 599.615 428.375C594.891 424.677 587.495 425.292 577.432 430.641C569.422 434.75 560.385 438.865 552.583 434.339C550.734 433.313 548.677 431.047 549.5 428.375C549.911 427.141 550.734 426.323 551.76 425.5C558.536 420.151 568.396 418.302 580.516 420.151C584.208 420.771 587.906 421.594 591.604 422.417C597.354 423.646 603.104 424.88 609.063 425.292C611.115 425.292 612.964 425.292 614.813 425.089C615.224 424.677 615.635 424.469 616.047 424.057C616.865 423.443 618.099 422.62 619.536 421.797C623.438 419.536 629.188 416.245 628.37 412.958C628.161 412.547 627.75 412.135 627.135 411.927C624.057 410.901 620.359 411.313 616.865 411.724C615.427 411.927 613.99 412.135 612.552 412.135C605.573 412.339 598.589 412.958 591.604 413.984C590.578 414.193 589.344 414.193 588.115 414.396C579.896 415.422 571.271 416.656 562.849 414.807C555.047 413.161 548.266 408.844 544.776 402.88C543.75 401.031 543.339 398.974 543.75 396.922C544.161 394.865 545.599 393.219 547.24 391.984C547.859 391.573 548.474 391.37 548.885 390.958C548.474 390.958 548.063 391.161 547.651 391.161C545.391 391.573 543.339 391.984 541.078 392.396C539.849 393.219 538.411 393.839 537.177 394.656L536.563 395.068C535.74 395.479 534.917 396.099 534.099 396.51C532.656 397.333 531.219 398.151 529.578 398.974C528.552 399.594 527.318 400.208 526.292 400.62L525.469 401.854C524.24 402.469 522.594 403.292 520.953 403.292C520.13 403.292 519.307 402.677 519.104 401.854C518.896 401.443 519.104 400.828 519.104 400.62C519.719 397.745 522.182 395.479 526.292 394.245C530.813 392.807 535.328 391.573 540.052 390.547C543.135 388.698 546.422 387.052 549.708 385.615C556.896 382.734 564.495 381.089 572.094 381.089C573.531 381.089 574.76 381.089 575.995 381.089C592.016 381.708 607.625 388.286 618.714 400.005L616.865 401.651C608.24 392.807 596.943 386.844 584.828 384.583C586.266 385.615 587.495 386.844 588.318 388.286C590.37 391.573 590.99 395.276 589.755 399.182C588.932 402.063 587.083 404.734 584.62 406.38C580.922 409.052 576.198 409.875 571.885 408.844C566.755 407.609 562.031 403.703 559.563 398.563C559.359 397.948 558.948 397.333 558.745 396.714C557.922 394.865 557.099 393.219 555.87 392.193C555.25 391.573 554.224 391.37 553.401 391.161C552.99 391.37 552.786 391.573 552.375 391.781C550.938 392.604 549.5 393.63 548.266 394.453C547.036 395.276 546.214 396.302 545.802 397.745C545.391 399.182 545.599 400.62 546.422 401.854C549.708 406.995 555.87 411.104 563.057 412.547C571.068 414.193 579.281 413.161 587.495 411.927C588.729 411.724 589.755 411.724 590.99 411.516C597.969 410.693 605.161 410.078 612.141 409.667C613.375 409.667 614.813 409.464 616.25 409.255C619.948 408.844 623.849 408.432 627.547 409.464C628.984 409.875 630.219 410.901 630.422 412.339C631.859 417.276 625.698 420.974 620.771 423.854C626.109 422.208 630.625 419.328 633.297 415.219C635.557 411.927 636.172 408.229 635.349 405.146C634.734 402.88 633.094 400.828 631.656 399.182C617.276 382.938 594.479 378.62 578.047 377.802C567.781 377.391 557.51 377.802 547.448 378.417C537.792 379.031 527.729 379.443 517.87 379.031C513.354 378.828 508.833 378.417 505.135 375.333C503.906 374.302 502.88 372.865 502.26 371.219C500.208 365.26 505.135 361.557 506.781 360.323C514.792 354.568 524.651 352.922 534.302 351.896C535.125 351.073 536.151 350.661 537.38 350.25C546.214 347.578 555.458 346.344 564.495 346.755C569.63 345.313 574.969 344.083 580.307 343.672C596.531 342.438 611.938 348.813 626.724 355.182C634.943 358.677 643.359 362.38 651.99 364.438C656.917 365.667 663.49 367.521 665.953 372.453C673.76 374.922 681.771 377.391 689.984 377.391C690.187 377.391 690.396 377.391 690.396 377.391C693.682 377.391 696.969 376.979 700.255 376.156C701.281 373.891 702.307 371.63 703.745 369.578C709.083 361.969 720.38 358.677 730.443 361.969C731.474 362.38 732.703 362.792 733.729 363.203C741.74 360.12 749.958 357.854 758.375 358.474C762.073 358.677 765.359 360.531 767.62 363.615C769.672 366.49 770.292 370.193 769.26 373.484C767.823 378.005 764.333 381.911 759.406 384.38C758.172 384.995 756.323 385.615 754.682 385.203C752.625 384.583 751.599 382.938 750.573 381.5C745.641 374.099 739.891 368.958 733.937 366.078C731.88 366.901 729.625 367.932 727.568 368.755L724.078 370.396C717.094 373.484 709.906 376.771 702.307 378.62C701.896 379.443 701.484 380.266 701.073 381.089C698.406 386.026 694.5 390.958 689.161 395.276C688.547 395.688 687.932 396.302 687.312 396.714C684.437 398.974 681.359 401.443 679.714 404.526C677.453 409.255 678.484 414.807 679.922 418.714C680.74 420.974 681.771 423.234 682.589 425.292C683.823 427.76 684.849 430.432 685.672 433.104C686.901 436.807 687.312 440.505 687.724 444.208C688.135 441.328 688.135 438.453 688.135 435.573V424.677C688.135 422.828 688.135 420.974 688.75 419.125C689.573 416.865 691.214 415.01 693.682 413.573C691.214 412.135 688.958 410.49 686.901 408.844C686.286 408.432 685.464 407.609 685.052 406.786C684.026 404.323 685.464 401.651 689.161 399.594C692.448 397.745 695.734 395.891 699.432 394.245C699.021 393.839 698.609 393.219 698.198 392.604C697.583 391.37 697.786 389.932 698.406 388.901C698.818 388.078 699.635 387.464 700.458 387.255L700.661 386.844L701.281 387.052C704.568 385.615 708.057 384.995 711.547 385.406C713.807 385.615 716.891 386.229 718.74 388.49C724.281 388.078 729.625 388.698 734.141 389.313C739.479 390.135 745.641 391.573 748.927 396.922C750.984 400.208 750.776 404.323 748.312 406.995C746.875 408.641 745.026 409.875 743.177 410.901C741.948 411.516 740.917 412.135 739.891 412.958C739.276 416.042 738.25 419.125 737.224 422.005C737.016 422.828 736.604 423.646 736.401 424.469C734.755 429.198 733.526 434.75 735.167 439.891C741.125 457.984 732.089 477.927 724.281 495.609L723.464 497.458C721.818 501.156 719.969 504.859 718.12 508.354C714.219 515.964 710.318 523.776 708.26 532C707.646 534.464 707.234 536.932 706.823 539.401C706.417 541.87 705.797 544.542 705.182 547.005C704.156 550.911 702.719 555.026 701.281 558.724C698.818 565.719 696.349 572.297 696.146 579.49C696.146 584.427 694.094 589.359 692.448 593.885L691.833 595.531C690.396 599.438 688.547 602.932 686.495 606.427C685.052 609.099 683.615 611.771 682.385 614.651C679.51 621.021 678.073 628.016 676.427 634.797C675.812 637.677 675.198 640.76 674.375 643.641C672.323 651.245 669.854 657.411 666.776 662.349C667.187 662.76 667.391 663.172 667.802 663.786C668.625 666.047 667.599 668.313 666.365 670.161C658.766 682.083 647.88 691.75 635.146 697.917C633.094 698.943 630.833 699.974 628.161 699.974C625.286 699.974 622.411 698.74 621.182 696.479C620.771 695.656 620.563 694.833 620.359 694.01C618.302 696.271 615.839 697.917 612.964 699.151C609.885 700.177 607.01 700.385 604.542 700.385ZM622.62 691.13C622.62 691.339 622.62 691.542 622.411 691.953C622.208 693.396 622.411 694.625 622.823 695.656C623.646 697.302 625.901 697.917 627.547 697.917C629.599 697.917 631.656 696.891 633.505 696.068C645.828 690.104 656.302 680.854 663.693 669.339C664.516 668.104 665.339 666.458 664.927 665.432V665.229C663.281 667.49 661.437 669.547 659.38 671.188C658.354 672.219 657.12 673.042 655.891 673.859C653.839 675.302 651.781 676.74 650.141 678.589C648.906 680.031 647.88 681.677 646.854 683.526C645.005 686.609 643.156 689.901 639.667 691.75L638.844 692.161L638.229 691.339C635.969 688.458 636.995 684.964 637.818 681.88C638.021 680.854 638.432 679.62 638.432 678.797C638.432 678.177 638.432 677.974 638.432 677.974C638.432 677.974 638.229 677.771 637.198 678.177C635.349 678.797 632.271 680.234 629.396 682.292C628.37 683.729 627.344 685.172 626.313 686.609C625.083 687.844 623.849 689.49 622.62 691.13ZM638.229 675.094C639.255 675.094 639.87 675.505 640.281 675.917C641.104 676.74 640.896 677.974 640.896 678.589C640.693 679.823 640.484 680.854 640.073 682.083C639.458 684.349 638.844 686.609 639.667 688.458C641.922 687.021 643.359 684.349 644.797 681.88C645.828 680.031 646.854 678.177 648.292 676.74C650.141 674.682 652.193 673.042 654.453 671.599C655.479 670.776 656.714 669.953 657.74 669.135C659.589 667.693 661.229 665.844 662.667 663.995C661.641 663.786 660.615 663.786 659.589 663.995C650.141 665.432 641.307 669.953 634.323 676.536C634.943 676.328 635.76 675.917 636.172 675.714C637.198 675.094 637.818 675.094 638.229 675.094ZM469.812 644.464C470.63 645.281 471.25 646.104 472.068 646.927C480.49 655.771 490.964 662.141 502.672 665.229C503.906 665.635 504.932 665.229 505.755 664.406C506.37 663.786 506.167 663.172 505.547 661.729C505.135 661.115 504.724 660.5 504.318 659.88C501.849 658.031 499.594 655.974 497.125 653.714C492.198 650.833 486.036 649.188 480.286 647.339L478.026 646.724C475.151 646.313 472.479 645.49 469.812 644.464ZM466.729 640.76C470.63 642.198 474.536 643.432 478.438 644.667L480.698 645.281C484.188 646.313 487.885 647.339 491.583 648.781C491.172 648.37 490.557 647.75 490.146 647.339C484.188 641.172 478.641 634.385 473.099 627.807C469.401 623.286 465.5 618.557 461.391 614.031C457.281 609.51 452.557 604.37 446.604 601.49C443.521 599.844 440.234 599.026 436.948 599.026C437.359 599.641 437.771 600.255 438.182 600.875L460.568 632.536C462.625 635.208 464.677 638.089 466.729 640.76ZM434.073 599.026C432.021 599.229 430.172 599.844 428.526 600.875C426.682 601.901 425.448 603.135 424.625 604.573C423.599 606.427 423.599 608.276 423.807 609.714C424.625 618.146 432.635 623.901 438.797 627.604C446.396 632.125 454.203 636.031 462.214 639.323C460.979 637.677 459.745 635.828 458.516 634.182L436.13 602.521C435.51 601.078 434.896 600.052 434.073 599.026ZM671.089 530.557C671.703 531.177 672.323 531.589 672.729 532.203L672.937 532.411C673.964 533.438 674.99 534.464 676.224 535.083C677.865 535.906 680.125 535.698 681.974 535.495H683C695.937 534.464 706.005 523.776 705.797 511.234C705.594 501.156 701.073 492.318 696.146 483.068C692.448 476.078 688.75 468.88 686.901 461.068C686.495 459.01 686.083 456.75 685.875 454.693C683.615 457.776 680.948 460.245 678.073 462.714C673.76 466.823 670.062 470.526 668.417 475.255C666.979 479.776 668.214 486.151 672.729 488C673.552 488.411 674.375 488.62 675.401 488.823C677.661 489.438 680.328 490.057 681.771 493.141C682.797 495.198 682.589 497.458 681.562 499.516C679.099 504.036 673.964 504.859 669.854 504.245C666.776 503.625 664.104 502.391 661.437 501.156L660.406 500.75C652.193 497.047 645.828 495.198 639.667 494.786C632.068 494.375 624.875 496.635 620.151 501.161C614.813 506.094 612.964 513.906 615.427 519.87C616.458 522.13 617.896 523.776 619.536 524.599C621.589 525.625 623.849 525.625 626.313 525.833C626.724 525.833 627.344 525.833 627.75 525.833C628.161 525.833 628.573 525.833 628.984 525.833C628.781 524.802 629.188 523.776 629.599 522.953C630.422 521.516 632.068 520.484 633.297 519.87C636.995 518.016 641.104 517.198 645.005 517.401C650.552 517.609 656.094 519.458 661.437 522.542C663.281 522.953 665.13 523.568 666.979 524.391C668.417 525.214 670.266 526.24 671.089 528.094C671.089 528.917 671.292 529.74 671.089 530.557ZM640.073 527.682C641.51 528.094 642.953 528.505 644.391 528.708C652.193 530.766 659.589 532.615 666.979 531.38C667.391 531.38 667.599 531.177 668.005 531.177C665.339 528.708 662.875 526.859 660.203 525.214H660C653.839 524.391 648.083 525.828 642.13 527.271C641.51 527.474 640.896 527.474 640.073 527.682ZM631.448 526.036C632.271 526.24 633.297 526.24 634.12 526.448C636.583 526.036 639.047 525.422 641.51 524.802C645.828 523.776 650.344 522.542 654.865 522.333C651.37 520.896 648.083 520.073 644.391 520.073C640.896 519.87 637.198 520.693 633.911 522.333C633.094 522.745 631.859 523.365 631.448 524.391C631.245 524.802 631.245 525.625 631.448 526.036ZM338.568 324.344C334.667 324.344 330.562 325.167 326.865 326.604C312.484 332.568 304.068 350.453 308.38 365.464C309.609 369.37 311.458 373.276 313.307 376.771C315.979 382.323 318.854 387.875 319.469 394.245C319.677 397.948 319.266 401.651 318.646 405.349C318.443 407.198 318.031 409.052 317.828 410.901C316.594 423.854 321.932 437.422 331.589 446.266C333.026 447.703 334.667 448.938 336.312 450.172C339.391 452.635 342.677 455.104 345.141 458.599C348.016 462.302 349.453 466.823 351.099 471.141C351.714 472.99 352.328 474.844 353.151 476.484C354.797 480.599 358.698 487.589 365.271 488.823C367.12 489.234 369.172 489.026 371.432 488.823C372.047 488.823 372.87 488.823 373.484 488.62C372.047 487.589 370.609 486.354 369.583 484.708C365.474 478.75 365.474 471.349 365.682 464.974C365.885 460.036 366.5 454.281 369.38 449.552C369.583 449.141 369.995 448.526 370.406 448.115C371.021 447.292 371.432 446.469 371.844 445.646C372.458 444.411 372.661 442.771 372.661 441.125C372.661 440.302 372.661 439.682 372.458 439.068C366.911 441.536 360.547 439.682 356.234 435.984C352.74 432.901 350.073 428.172 348.635 422.417C348.016 420.151 347.609 417.891 347.609 415.422C344.115 413.161 341.036 410.693 338.568 407.406C335.281 403.089 333.437 397.948 331.792 392.807C330.766 389.521 329.74 386.229 330.354 382.734C331.38 374.922 339.391 370.396 346.578 369.37C350.687 368.755 353.562 369.573 355.411 371.63C356.849 373.484 357.052 375.948 357.052 377.594C357.052 383.76 355.208 389.521 353.562 395.068C352.328 398.974 351.099 403.089 350.484 407.198C350.073 409.464 350.073 411.724 350.073 413.984C351.714 415.01 353.562 416.042 355.208 417.068C357.052 418.099 358.698 419.125 360.547 420.359C367.531 424.677 372.047 429.818 374.099 435.161L374.307 434.958C375.948 433.516 376.979 431.667 377.182 429.609C377.594 425.703 375.13 423.031 372.661 420.151C371.844 419.328 371.224 418.51 370.406 417.479C366.297 412.135 365.062 405.557 367.531 400.417C368.969 397.536 371.224 395.479 373.484 393.63C375.542 391.781 377.594 389.932 378.823 387.667C381.495 382.526 379.031 376.359 376.771 370.396C376.359 369.167 375.745 367.932 375.333 366.698C374.099 363.203 373.281 359.5 372.458 356.005C371.224 350.661 369.995 345.521 367.531 340.792C361.776 330.719 350.073 324.344 338.568 324.344ZM601.875 427.552C602.49 428.172 602.901 428.786 603.104 429.609C603.313 430.844 603.104 432.078 602.693 432.693C600.849 437.422 596.531 440.505 592.427 443.385C591.807 443.797 591.193 444.208 590.578 444.62C589.964 445.031 589.344 445.646 589.141 446.266C588.932 446.677 589.141 447.089 589.344 447.5C589.755 448.115 590.37 448.729 590.99 448.729C592.219 448.938 593.656 448.729 595.302 447.703C599.818 445.031 602.901 440.505 606.188 435.776C608.036 433.104 609.677 430.641 611.734 428.172C610.703 428.172 609.677 428.172 608.448 428.172C606.391 427.964 604.135 427.76 601.875 427.552ZM350.073 417.276C350.276 418.917 350.484 420.359 350.891 422.005C352.125 427.349 354.589 431.458 357.672 434.339C361.37 437.63 366.911 439.276 371.635 436.807C369.38 430.229 363.01 425.292 358.901 422.62C357.26 421.594 355.411 420.563 353.771 419.536C352.536 418.917 351.302 418.099 350.073 417.276ZM571.682 422.417C565.313 422.417 558.536 423.646 553.198 427.76C552.583 428.172 551.964 428.786 551.964 429.406C551.552 430.432 552.786 431.667 554.021 432.49C560.594 436.396 569.01 432.49 576.406 428.786C580.307 426.734 584.005 425.292 587.292 424.469C585.031 424.057 582.568 423.443 580.307 423.234C577.432 422.828 574.557 422.417 571.682 422.417ZM712.167 413.781C712.578 413.781 712.984 413.984 713.396 414.193C717.094 415.219 720.995 416.245 724.693 416.042C729.214 416.042 733.526 414.604 737.016 411.927C737.224 410.901 737.224 409.667 737.224 408.641C737.224 403.911 734.964 398.359 730.036 396.714C728.187 396.099 726.13 396.099 724.281 396.099H719.969C719.969 401.031 718.531 405.76 715.865 409.464C715.042 411.313 713.604 412.75 712.167 413.781ZM701.693 412.135C703.948 412.135 706.208 412.547 708.672 412.958C710.729 411.927 712.781 410.286 714.219 408.229C716.479 404.938 717.708 400.828 717.708 396.302L705.797 396.51C704.568 396.51 703.13 396.51 701.693 396.099C697.583 397.948 693.682 400.208 689.984 402.266C688.547 403.089 686.286 404.938 686.901 406.38C687.109 406.786 687.521 407.198 688.135 407.609C691.01 409.875 693.474 411.724 696.349 412.958C696.557 412.958 696.557 412.958 696.76 412.75C698.406 412.339 700.047 412.135 701.693 412.135ZM348.839 371.839C348.016 371.839 347.401 371.839 346.578 372.042C340.417 373.073 333.437 376.979 332.406 383.349C332 386.229 332.818 389.109 333.844 392.193C335.281 396.922 337.13 402.063 340.214 405.969C342.062 408.432 344.526 410.693 347.198 412.547C347.198 410.693 347.401 408.844 347.609 407.198C348.224 402.88 349.453 398.771 350.891 394.656C352.74 388.901 354.385 383.557 354.385 377.797C354.385 375.745 353.974 374.302 353.151 373.484C352.125 372.25 350.484 371.839 348.839 371.839ZM725.719 393.63C727.365 393.63 729.214 393.63 731.062 394.245C737.224 396.302 739.891 403.089 739.891 408.641C739.891 409.052 739.891 409.464 739.891 410.078C740.51 409.667 740.922 409.464 741.536 409.052C743.177 408.021 744.823 406.995 746.052 405.76C747.698 403.911 747.901 400.828 746.26 398.563C743.385 394.042 738.25 392.807 733.318 391.984C729.214 391.37 724.49 390.75 719.557 390.958C719.766 391.781 719.969 392.807 720.177 393.63H724.49C724.901 393.63 725.312 393.63 725.719 393.63ZM556.276 389.932C556.688 390.135 557.099 390.339 557.51 390.75C559.359 392.193 560.385 394.245 561.208 396.302C561.411 396.922 561.62 397.333 562.031 397.948C564.083 402.266 568.193 405.76 572.708 406.786C575.38 407.406 579.484 407.609 583.391 404.734C585.443 403.292 586.88 401.24 587.703 398.771C588.729 395.688 588.115 392.604 586.469 389.932C584.208 386.641 580.307 384.172 575.995 383.76H575.792C574.76 383.76 573.531 383.76 572.505 383.76C568.599 383.969 564.286 385.406 559.359 388.078C558.333 388.698 557.307 389.313 556.276 389.932ZM532.453 395.068C530.604 395.479 528.755 396.099 527.115 396.714C524.24 397.536 522.594 398.974 521.771 400.62C522.594 400.417 523.62 400.005 524.443 399.594L525.266 399.182C526.292 398.563 527.318 398.156 528.552 397.536C529.578 396.714 531.016 395.891 532.453 395.068ZM717.094 391.37C713.604 391.781 710.109 392.807 706.823 394.042L717.505 393.839C717.505 393.016 717.302 392.193 717.094 391.37ZM700.661 390.135C700.458 390.339 700.255 390.339 700.047 390.547C699.844 390.958 699.844 391.37 700.047 391.781C700.458 392.604 700.87 393.016 701.693 393.427C706.005 391.573 710.521 389.932 715.042 389.109C713.604 388.286 711.958 388.078 710.932 388.078C708.057 387.875 705.182 388.286 702.307 389.313L701.896 390.135L701.073 389.932L700.661 390.135ZM558.948 385.406C556.073 386.021 553.401 387.052 550.734 388.078C550.115 388.286 549.297 388.698 548.677 388.901C550.115 388.698 551.552 388.698 552.99 388.698C554.635 387.667 556.276 386.641 558.125 385.615C558.333 385.818 558.745 385.615 558.948 385.406ZM620.974 369.984C621.385 370.396 621.797 370.604 622.208 371.016C631.036 378.208 640.073 385.818 650.958 386.432C654.453 386.641 659.177 386.021 662.255 382.526C663.901 380.677 664.516 378.208 664.104 375.948C664.104 375.745 663.901 375.536 663.901 375.333C658.766 373.688 653.63 372.042 648.495 371.219C640.073 369.781 631.448 369.781 623.026 369.984H620.974ZM736.604 365.464C742.359 368.755 747.49 373.688 752.214 380.677C753.036 381.911 753.859 382.938 754.885 383.349C755.911 383.557 756.937 383.146 757.969 382.734C762.281 380.677 765.359 377.182 766.594 373.484C767.411 370.807 766.797 368.135 765.359 365.875C763.719 363.406 761.047 361.969 758.172 361.76C750.776 361.146 743.589 362.792 736.604 365.464ZM722.229 363.818C715.865 363.818 709.495 366.078 705.594 371.63C704.568 373.073 703.948 374.51 703.13 376.156C709.703 374.302 716.271 371.427 722.641 368.547L726.13 366.901C727.568 366.286 728.802 365.667 730.24 365.052C730.031 365.052 729.828 364.849 729.625 364.849C727.156 364.229 724.693 363.818 722.229 363.818ZM630.422 367.313C636.583 367.313 642.745 367.521 648.906 368.755C653.219 369.573 657.531 370.807 661.641 372.042C658.969 369.781 654.865 368.755 651.167 367.724C642.542 365.464 633.911 361.76 625.698 358.266C610.5 351.896 596.125 345.724 580.516 346.958C577.844 347.167 575.172 347.578 572.505 348.193C587.292 350.042 601.875 355.594 613.786 364.438C615.224 365.464 616.458 366.49 617.896 367.521C618.714 367.521 619.536 367.521 620.151 367.521H623.026C625.495 367.313 627.958 367.313 630.422 367.313ZM535.328 354.979C534.714 355.802 534.302 356.625 534.302 357.651C533.891 361.969 540.052 363.203 542.927 363.406C566.344 366.286 590.37 367.521 613.99 367.521C613.375 367.109 612.964 366.698 612.349 366.286C598.589 356.005 581.745 350.453 564.698 349.839C564.083 350.042 563.672 350.042 563.057 350.25C559.151 351.276 555.25 352.307 551.146 353.125C546.828 353.948 542.313 354.359 538 354.771C537.177 354.979 536.354 354.979 535.328 354.979ZM552.583 350.453C550.115 350.661 547.448 351.073 544.984 351.688C546.828 351.484 548.885 351.276 550.734 350.865C551.349 350.661 551.964 350.453 552.583 350.453Z" fill="#FD694C"/>
</g>
<g id="lips">
<path id="lips_2" d="M643.156 628.833C636.583 628.833 630.01 627.193 624.26 623.901C622.208 622.667 620.151 621.229 618.302 619.995C615.427 617.937 612.552 615.885 609.474 614.651C608.448 614.24 607.214 613.828 605.979 613.417C605.161 613.208 604.135 612.797 603.313 612.385C596.943 609.922 591.193 605.604 587.292 599.844C584.208 600.052 580.922 599.437 578.047 598.203C576.609 597.583 574.76 596.146 574.146 594.297C573.734 593.266 573.734 592.24 574.354 591.417C575.38 589.359 577.844 588.948 579.693 589.359C580.922 589.568 581.745 590.182 582.771 590.802C583.182 591.005 583.594 591.214 584.005 591.417C589.755 594.297 596.943 591.828 601.875 588.536C604.75 586.484 607.417 584.016 610.089 581.755C612.349 579.698 614.813 577.437 617.484 575.38C628.573 567.359 642.542 565.099 655.891 563.453C658.969 563.042 662.255 562.839 664.724 565.099C665.542 565.719 665.953 566.542 666.568 567.156C667.188 567.979 667.599 568.594 668.214 569.005C669.854 570.036 672.115 569.417 675.198 567.359C677.047 566.13 680.536 563.865 683.823 564.687C683.823 564.484 683.615 564.276 683.615 564.073C683.411 563.453 683.208 562.839 683.208 562.224C683 561.401 682.797 560.578 682.385 559.755C681.771 558.109 680.536 556.672 679.302 555.229C678.891 554.818 678.688 554.411 678.276 554C672.729 547.214 669.651 538.578 669.651 529.74H672.115C672.115 537.964 674.99 546.187 680.125 552.354C680.536 552.766 680.74 553.177 681.151 553.589C682.589 555.229 683.823 556.875 684.646 558.724C685.052 559.755 685.26 560.578 685.464 561.604C685.672 562.224 685.672 562.635 685.875 563.25C686.083 563.865 686.286 564.484 686.495 564.896C689.161 565.719 691.214 569.005 692.036 572.297C693.271 576.615 694.5 582.167 692.036 586.896C692.036 587.51 692.036 587.922 692.245 588.333L692.448 588.745C692.859 589.359 693.271 590.391 692.656 591.62C692.448 592.24 691.833 592.651 691.422 592.854C689.37 594.297 687.109 594.911 684.849 594.911C682.589 597.792 680.948 601.078 679.302 604.573C678.276 606.839 677.047 609.302 675.813 611.568C674.786 613.208 673.349 615.474 670.885 616.292C670.474 616.5 670.266 616.5 669.854 616.703C668.828 618.76 666.979 620.609 664.313 622.464C657.943 626.781 650.552 628.833 643.156 628.833ZM590.167 599.641C593.656 604.37 598.589 608.068 604.135 610.125C604.953 610.536 605.776 610.745 606.802 610.948C608.036 611.359 609.266 611.771 610.5 612.182C613.99 613.62 616.865 615.677 619.948 617.937C621.797 619.38 623.849 620.609 625.698 621.844C636.995 628.427 651.99 627.807 662.875 620.609C664.724 619.38 665.953 618.146 666.979 616.911C663.901 616.292 661.026 613.62 659.589 610.536C658.766 608.891 658.151 607.25 657.74 605.396C657.328 604.161 656.917 602.724 656.302 601.49C653.016 600.667 649.521 600.255 646.031 600.667C644.391 600.875 639.458 601.49 638.432 597.792C638.021 596.557 638.432 595.323 639.255 594.297C637.609 594.708 635.969 594.911 634.323 595.12C629.396 595.734 624.26 595.323 619.333 595.12C612.76 594.708 606.391 594.297 600.438 595.937C599.203 596.349 597.766 596.76 596.531 597.38C594.479 598.406 592.427 599.026 590.167 599.641ZM659.38 602.724C659.589 603.344 659.792 604.161 660 604.781C660.615 606.427 661.026 608.068 661.844 609.51C663.078 612.182 665.75 614.443 668.214 614.651C668.214 614.443 668.417 614.24 668.417 614.031C669.443 609.51 665.13 605.193 660.615 603.344C660.203 603.135 659.792 602.932 659.38 602.724ZM657.943 599.641C659.177 600.052 660.406 600.464 661.438 601.078C666.568 603.344 671.5 608.479 670.677 614.031C671.911 613.208 672.729 611.979 673.552 610.745C674.786 608.687 675.813 606.219 677.047 604.161C678.484 601.286 679.922 598.203 681.771 595.531C680.125 595.323 678.484 595.12 677.25 594.708C675.609 594.297 673.76 593.677 672.115 593.062C669.443 592.031 666.979 591.214 664.313 590.802C659.177 589.979 654.042 591.005 648.703 592.443C651.99 593.266 655.276 595.323 657.12 598.203C657.531 598.615 657.74 599.026 657.943 599.641ZM649.115 598.203C650.958 598.203 652.807 598.406 654.656 598.615C651.99 595.12 647.266 593.266 643.156 594.708C641.719 595.12 640.484 596.349 640.693 597.38C640.896 598.406 642.542 598.818 645.62 598.406C646.854 598.406 647.88 598.203 649.115 598.203ZM578.047 591.828C577.229 591.828 576.609 592.031 576.406 592.651C576.198 592.854 576.198 593.266 576.406 593.677C576.818 594.5 577.844 595.531 579.078 596.146C581.542 597.172 584.208 597.792 587.083 597.583L588.318 596.76C588.526 596.969 588.526 597.172 588.729 597.38C589.141 597.38 589.552 597.172 589.964 597.172C591.807 596.76 593.656 596.146 595.714 595.323C597.151 594.911 598.38 594.297 599.818 593.885C606.391 592.031 613.172 592.443 619.74 592.854C624.464 593.266 629.396 593.474 634.12 592.854C637.818 592.443 641.51 591.417 645.208 590.391C651.578 588.745 657.943 586.896 664.724 587.922C667.599 588.333 670.266 589.359 672.938 590.391C674.578 591.005 676.224 591.62 677.865 592.031C679.51 592.443 681.563 592.854 683.615 592.854C684.234 592.031 685.052 591.417 685.672 590.802C687.109 589.359 688.339 588.125 689.161 586.687C689.161 585.661 689.573 584.63 689.776 583.604C689.984 582.781 690.188 581.958 690.188 581.135C690.599 577.641 688.547 574.557 686.698 571.266C685.875 570.036 685.26 568.802 684.646 567.568C684.438 567.568 684.438 567.568 684.234 567.568H683.823L683.411 567.359C681.359 566.333 678.688 567.979 676.224 569.625C672.115 572.297 668.828 572.911 666.365 571.266C665.339 570.651 664.516 569.625 663.901 568.594C663.49 567.979 663.078 567.359 662.464 566.948C660.818 565.51 657.943 565.719 655.479 565.922C642.542 567.568 628.984 569.625 618.302 577.437C615.839 579.286 613.375 581.344 611.115 583.604C608.448 586.073 605.776 588.536 602.693 590.594C595.714 595.323 587.906 596.557 582.365 593.474C581.953 593.266 581.542 593.062 581.13 592.854C580.307 592.443 579.484 591.828 578.667 591.62C578.667 591.828 578.255 591.828 578.047 591.828ZM689.776 589.979C689.161 590.802 688.339 591.417 687.724 592.24C688.547 592.031 689.161 591.62 689.984 591.214C690.188 591.005 690.188 591.005 690.188 591.005C690.188 590.802 689.984 590.391 689.776 589.979Z" fill="#FD694C"/>
</g>
<g id="hair">
<path id="hair 4" d="M291.333 542.688L288.865 542.073L289.484 539.604C293.589 522.953 297.286 507.12 299.344 489.646C299.344 489.234 299.547 488.823 299.547 488.411C296.464 489.438 292.974 489.234 290.099 487.589C284.349 484.302 279.625 479.365 276.953 473.813C274.693 470.526 274.693 466.62 274.693 462.917C274.693 459.422 274.693 456.13 272.849 453.458C260.115 440.714 257.24 427.964 264.63 417.068C266.479 414.396 269.151 411.516 272.438 409.255C272.026 404.526 272.849 399.797 273.667 395.068C274.901 387.667 276.135 380.677 272.849 375.125C270.792 371.016 267.302 372.453 261.344 374.922C258.057 376.359 254.568 377.797 251.281 377.797H251.078L250.87 377.594C246.557 375.536 244.094 371.016 244.094 366.286V366.078L244.297 365.875C245.323 363.818 246.354 361.349 247.38 358.677C248.406 356.214 249.432 353.536 250.458 351.484C255.802 342.026 251.078 332.771 246.146 322.906C243.885 318.38 241.422 313.859 240.193 309.13C239.573 305.427 239.781 300.906 241.01 296.38C239.573 295.354 237.932 294.328 236.495 293.297L235.875 293.094L235.672 292.885C226.635 270.068 251.484 254.437 264.839 246.214C271.615 241.693 271.615 233.88 271.818 225.453C271.818 224.01 271.818 222.776 271.818 221.339C270.792 220.724 269.766 220.104 268.74 219.49C264.219 215.995 261.552 211.677 260.932 206.536C259.495 194.609 269.354 181.453 276.75 172.406C285.99 157.604 302.219 148.146 326.656 143.214C342.474 139.51 358.286 140.948 373.693 142.182C384.578 143.005 395.87 144.031 406.964 143.214C422.161 141.771 434.281 133.958 446.807 125.734C452.557 122.036 458.307 118.333 464.677 115.042L465.906 117.307C459.745 120.594 453.995 124.297 448.245 127.995C435.307 136.427 423.188 144.443 407.167 145.885C395.87 146.708 384.578 145.885 373.484 144.854C358.286 143.62 342.474 142.182 327.068 145.885C303.859 150.406 288.047 159.661 279.01 173.844C267.714 187.417 262.781 198.104 263.604 206.328C264.219 210.646 266.479 214.552 270.38 217.432C271 217.844 271.411 218.255 272.026 218.458C272.229 214.552 273.052 210.854 274.693 207.562C279.01 198.927 288.865 184.333 306.531 184.333H306.734C311.87 185.359 315.979 188.854 317.828 193.786C319.88 198.927 319.057 204.687 315.771 209.005C305.911 220.724 288.458 228.125 274.286 222.573C274.286 223.599 274.286 224.63 274.286 225.453C274.078 234.083 274.078 243.13 266.276 248.271C247.38 259.99 230.948 273.562 237.932 291.651C238.958 292.474 240.193 293.297 241.422 293.917C242.859 289.802 245.12 285.693 248.406 282.812C252.719 278.703 258.057 277.469 264.016 278.906C266.688 278.906 268.943 281.375 269.151 284.047C272.641 292.271 271.615 300.906 270.38 310.156C277.365 314.885 283.115 320.641 285.578 329.276C286.401 331.542 285.99 333.802 284.552 335.859C282.297 339.146 277.365 341.203 274.078 341.203H273.464L273.052 340.792C272.641 340.38 272.026 339.969 271.411 339.354C269.151 337.5 266.479 335.448 266.479 331.745C265.656 324.958 266.479 318.177 267.505 311.391C263.401 308.719 258.677 306.458 254.156 303.99C250.458 302.141 246.557 300.083 243.068 298.026C242.245 301.932 242.036 305.635 242.448 308.922C243.682 313.24 245.943 317.766 248.198 322.083C253.333 332.156 258.469 342.437 252.516 352.922C251.484 354.771 250.458 357.443 249.432 359.911C248.406 362.38 247.38 364.849 246.354 366.901C246.354 370.604 248.406 373.891 251.484 375.745C254.156 375.745 257.24 374.302 260.318 373.073C265.656 370.807 271.818 368.135 274.901 374.302C278.599 380.474 277.365 388.286 276.135 395.891C275.516 400.005 274.693 404.115 274.901 408.229C276.542 407.406 277.979 406.786 279.625 406.583C283.115 405.969 286.198 406.786 289.073 408.844C290.51 410.286 290.714 412.339 289.896 414.193C289.073 416.042 287.635 417.276 286.198 417.276C285.375 417.276 284.552 417.276 283.734 417.479C280.036 417.891 274.693 418.302 272.641 412.547C270.177 414.396 267.917 416.656 266.688 418.922C259.906 428.995 262.781 440.302 274.693 452.224L274.901 452.432C277.161 455.927 277.161 459.63 277.161 463.328C277.161 466.823 277.161 470.115 279.01 472.99C281.677 478.339 285.99 482.859 291.333 485.74C294.208 487.385 297.698 487.177 300.37 485.531C303.859 470.115 310.229 448.937 328.917 445.854C330.354 445.646 331.589 445.854 332.203 446.469C333.229 447.292 333.438 448.938 333.438 449.964V450.375L331.792 452.432C330.766 453.667 329.531 454.901 328.094 455.927C319.88 461.682 315.568 468.26 311.047 475.255C308.995 478.339 306.943 481.625 304.474 484.917C303.859 485.74 303.245 486.354 302.625 486.766C302.422 487.797 302.219 488.823 301.807 490.057C299.958 507.531 296.057 523.365 291.948 540.224L291.333 542.688ZM329.943 448.115C329.74 448.115 329.531 448.115 329.12 448.115C314.333 450.375 307.969 465.177 303.656 481.625C305.505 478.953 307.146 476.484 308.792 473.813C313.104 466.823 317.828 459.63 326.453 453.667C327.682 452.844 328.714 451.812 329.531 450.786L330.563 449.349C330.563 448.526 330.354 448.318 330.354 448.115C330.563 448.115 330.354 448.115 329.943 448.115ZM275.104 410.693C275.104 410.901 275.104 411.104 275.313 411.516C276.542 415.01 279.417 415.219 283.734 414.807C284.76 414.807 285.578 414.604 286.401 414.604C286.813 414.604 287.427 413.984 287.839 413.161C288.25 412.339 288.25 411.312 287.635 410.693C285.578 409.255 283.115 408.641 280.24 409.052C278.391 409.052 276.542 409.875 275.104 410.693ZM269.766 312.625C268.943 318.792 268.125 325.167 268.943 331.333C268.943 334.005 271 335.651 272.849 337.297C273.255 337.708 273.875 338.12 274.286 338.531C276.75 338.323 280.448 336.677 282.089 334.214C283.115 332.771 283.323 331.333 282.911 329.896C280.651 322.286 275.927 316.943 269.766 312.625ZM243.479 295.354C247.172 297.615 251.281 299.672 255.182 301.521C259.495 303.781 263.807 305.839 267.917 308.51C269.151 300.083 269.766 292.062 266.688 284.661V284.25C266.688 282.812 265.25 281.375 263.807 281.375H263.604C258.469 280.141 253.953 281.167 250.255 284.661C246.969 287.333 244.917 291.245 243.479 295.354ZM274.693 219.693C287.635 225.245 304.682 218.458 314.13 207.359C316.797 203.656 317.417 198.927 315.771 194.609C314.13 190.5 310.844 187.62 306.734 186.797C290.51 186.797 281.266 200.573 277.161 208.797C275.516 211.88 274.901 215.786 274.693 219.693Z" fill="#FD694C"/>
<g id="hair 3">
<mask id="mask0_16_8" style="mask-type:luminance" maskUnits="userSpaceOnUse" x="481" y="76" width="402" height="262">
<g id="ddaa79e660">
<path id="Vector" d="M481.333 76H882.635V337.333H481.333V76Z" fill="white"/>
</g>
</mask>
<g mask="url(#mask0_16_8)">
<g id="Group">
<path id="Vector_2" d="M755.911 336.063L754.682 334.005C755.911 333.391 757.146 332.771 758.172 332.568C759.609 332.156 760.844 331.542 761.87 330.719C765.156 327.427 766.594 322.906 768.234 318.177C770.495 311.391 772.958 304.193 780.766 301.521H781.177C784.052 301.521 786.104 303.375 788.156 305.016C789.391 306.047 790.625 307.073 792.063 307.896C809.109 317.354 828.823 305.016 839.708 287.953C841.557 282.401 839.505 278.703 836.01 275C834.984 274.385 833.958 273.974 832.932 273.563C827.797 277.88 822.458 283.021 817.115 289.188C812.802 293.505 803.974 298.234 796.99 293.505L796.786 293.297C794.318 290.833 792.063 284.047 794.729 281.167C801.302 275.823 816.911 265.339 832.318 270.479C841.557 263.073 851.005 258.349 860.865 256.083C864.563 254.234 866.411 250.531 868.26 246.625C869.286 238.813 871.75 231.823 873.802 224.833C875.651 218.87 877.5 213.318 878.526 207.771V207.563C879.76 204.479 879.349 201.599 877.5 199.339C874.422 195.641 867.641 193.583 861.479 194.818C860.656 195.021 859.63 195.432 858.604 195.844C846.896 199.958 833.344 204.479 823.484 194.406C818.557 187.828 819.583 180.422 820.401 173.844C820.813 171.38 821.021 168.911 821.021 166.854C818.964 147.526 811.984 133.958 798.839 122.651C787.13 110.932 771.729 108.464 760.635 108.464C758.786 108.672 756.734 109.083 754.885 109.495C757.146 115.042 758.172 121.214 757.76 127.792C757.76 133.958 753.859 138.896 746.672 141.156C739.891 143.417 731.063 141.156 728.802 136.427C726.953 130.672 727.365 125.734 730.036 121.214C734.141 114.63 742.563 110.318 751.396 107.849C749.135 103.12 745.641 99.0052 741.536 95.3073C727.568 83.1771 704.771 77.625 685.052 81.7344C664.313 86.4635 646.031 87.6979 629.188 85.8489C625.286 85.4375 621.182 84.8229 617.276 84.2031C569.833 77.8281 516.229 70.8385 483.984 110.521L482.135 108.875C515.203 68.1667 569.63 75.3646 617.688 81.7344C621.797 82.3542 625.698 82.7656 629.599 83.3802C646.031 85.2344 664.104 83.7917 684.646 79.2708C705.182 75.1562 728.802 80.9167 743.385 93.4583C748.109 97.5677 751.599 102.094 754.063 107.229C756.323 106.615 758.583 106.203 760.635 106C772.344 106 788.568 108.672 800.688 120.802C814.24 132.521 821.432 146.708 823.688 166.854C823.688 169.323 823.281 171.792 823.073 174.464C822.25 180.833 821.432 187.417 825.536 192.964C834.37 201.807 846.281 197.49 857.99 193.583C859.016 193.172 860.042 192.964 861.068 192.557C868.26 191.115 875.859 193.375 879.552 197.901C882.021 200.984 882.635 204.688 880.99 208.594C879.964 214.349 878.115 219.901 876.266 226.068C874.01 232.854 871.75 240.047 870.724 247.656L870.516 248.068C868.464 252.385 866.203 256.703 861.688 258.964H861.479C852.24 261.021 843.609 265.339 834.984 271.917C835.807 272.328 836.422 272.74 837.245 273.151L837.448 273.354C840.943 276.849 844.432 281.578 841.766 288.979L841.557 289.188C830.26 307.281 809.109 320.438 790.625 310.156C788.979 309.333 787.542 308.099 786.307 307.073C784.464 305.635 783.229 304.401 781.177 304.193C774.604 306.458 772.547 312.625 770.292 319.203C768.646 323.932 767.005 329.073 763.307 332.568C761.87 334.005 760.224 334.625 758.786 335.036C757.969 335.24 756.938 335.651 755.911 336.063ZM798.427 291.448C804.177 295.151 811.776 291.036 815.271 287.333C820.198 281.578 825.125 276.646 830.057 272.531C816.297 269.036 802.328 278.495 796.375 283.021C795.141 284.25 796.578 289.391 798.427 291.448ZM752.422 110.318C744.203 112.578 735.99 116.687 732.292 122.651C730.031 126.557 729.625 130.875 731.063 135.604C732.703 138.896 740.51 140.745 745.849 138.896C750.161 137.453 755.297 134.37 755.297 127.792C755.708 121.625 754.682 115.661 752.422 110.318Z" fill="#FD694C"/>
</g>
</g>
</g>
<path id="hair 2" d="M393.615 359.297C392.995 359.297 392.177 359.297 391.557 359.089C388.068 358.677 384.984 356.828 383.141 354.156C380.469 350.25 380.469 345.313 380.672 340.995C380.88 338.531 380.88 336.063 381.083 333.802C381.703 325.578 382.318 316.943 381.292 308.719C379.854 296.589 374.922 286.927 367.531 281.167C365.885 279.932 364.245 278.906 362.599 277.88C360.75 283.224 358.083 288.568 354.589 293.505C345.141 306.661 325.839 316.323 308.995 308.719C301.807 305.427 296.057 298.646 293.385 290.422C290.714 281.99 291.536 273.354 295.438 266.365C297.495 262.661 300.37 259.786 303.448 258.141C307.557 255.88 312.073 255.672 315.979 255.469C327.682 254.849 338.979 256.083 349.661 258.755C350.276 254.646 352.328 250.531 355.615 247.245C358.286 244.776 361.573 242.719 365.474 241.49C365.682 230.797 366.094 219.693 372.661 211.057C377.182 205.094 384.167 201.396 389.708 198.927C420.724 184.948 456.052 184.333 483.365 185.359C492.198 185.771 501.443 186.182 510.068 186.797C532.453 188.24 555.458 189.469 577.844 187.417C582.156 187.005 586.469 186.385 590.578 185.771C586.266 184.536 581.953 182.891 577.641 180.833C563.875 174.464 555.661 166.031 553.813 156.37C552.375 147.734 554.635 140.125 560.797 133.344C574.76 117.922 605.979 111.755 623.026 112.99C630.422 113.604 655.682 116.484 665.542 129.026C669.036 133.344 670.266 138.276 669.443 143.828C668.417 149.995 664.724 154.724 661.844 157.604C653.63 165.62 642.745 170.76 632.474 175.698L631.859 175.901C622.823 180.016 613.172 183.302 602.693 185.771C607.01 186.385 611.323 186.594 615.427 186.385C630.422 185.563 644.797 179.193 658.557 173.021C660.615 172.198 662.464 171.172 664.516 170.349C680.125 163.568 698.406 156.984 715.865 160.688C725.927 162.745 735.578 169.526 741.125 178.161C745.438 185.151 746.875 192.557 745.234 199.547C744.203 203.656 742.359 207.563 740.51 211.469C737.016 218.87 733.526 225.859 737.016 232.234C739.479 236.76 745.234 239.844 752.625 240.255C756.12 240.458 759.609 240.047 763.099 239.432C764.745 230.177 768.443 221.135 773.984 213.526C776.245 210.443 779.328 206.74 783.844 205.714C786.307 205.094 789.182 205.505 791.443 207.151C793.292 208.385 794.318 210.031 794.526 212.089C794.729 214.141 794.115 215.995 793.5 217.635C788.568 229.359 777.682 238.401 765.568 241.693C765.359 242.719 765.359 243.75 765.156 244.573C764.745 250.125 764.948 255.672 765.156 261.224C765.568 268.214 765.771 275.615 764.536 282.813C763.719 287.953 761.661 293.094 759.813 298.234C755.708 308.922 752.01 319 757.76 327.427L755.708 328.865C749.135 319.411 753.448 308.307 757.557 297.411C759.406 292.474 761.25 287.333 762.281 282.401C763.51 275.615 763.099 268.422 762.896 261.432C762.688 255.88 762.281 250.125 762.896 244.365C762.896 243.75 763.099 242.927 763.099 242.307C759.813 242.927 756.323 243.339 752.833 243.13C748.927 242.927 739.276 241.49 735.167 233.88C731.266 226.271 734.964 218.458 738.661 210.854C740.51 207.151 742.359 203.245 743.177 199.547C744.823 193.172 743.385 186.385 739.479 180.016C734.349 171.792 725.307 165.62 715.865 163.568C699.021 160.068 681.974 166.031 665.953 173.021C663.901 173.844 662.052 174.667 660 175.698C646.031 182.068 631.448 188.443 615.839 189.266C609.677 189.469 603.313 188.854 596.74 187.417C590.781 188.443 584.828 189.469 578.458 189.88C555.661 191.938 532.656 190.5 510.271 189.266C501.443 188.646 492.401 188.24 483.573 187.828C456.458 186.797 421.547 187.417 391.146 201.188C385.807 203.656 379.234 206.948 374.922 212.703C369.172 220.516 368.557 230.797 368.349 240.87C370.609 240.255 373.073 239.844 375.745 239.635C381.703 239.224 389.917 239.635 395.464 244.984C398.542 247.859 400.391 251.974 402.031 255.672C402.854 257.729 403.88 259.786 404.911 261.635C414.359 277.26 436.536 279.109 454.203 275.615C459.339 274.589 462.005 272.943 462.828 270.479C463.443 268.422 462.828 265.953 462.005 264.516C457.693 255.672 447.422 252.177 437.568 248.682L435.307 247.859C426.885 244.365 412.51 237.583 411.688 224.63C411.276 218.87 414.151 212.703 419.286 207.974C430.583 197.49 450.297 197.49 461.391 208.182C466.526 212.911 469.604 219.281 472.688 225.245C474.74 229.359 477 233.677 479.672 237.583C483.984 243.542 492.813 249.714 500.208 249.917C503.495 249.917 505.958 248.891 507.807 246.625L509.656 248.271C507.396 251.151 504.109 252.589 500 252.385C491.583 252.177 482.135 245.396 477.615 239.021C474.74 235.115 472.479 230.589 470.427 226.479C467.344 220.313 464.469 214.552 459.745 210.031C449.479 200.161 431.406 200.161 421.135 209.823C416.615 214.141 414.151 219.49 414.359 224.63C414.974 235.938 428.323 242.516 436.13 245.188L438.385 246.01C448.245 249.505 459.542 253.411 464.266 263.073C465.703 265.953 466.115 268.833 465.292 271.094C463.651 275.615 458.516 277.057 454.818 277.88C436.333 281.578 412.922 279.521 402.854 262.87C401.625 260.813 400.594 258.755 399.776 256.495C398.13 252.797 396.49 249.302 393.818 246.625C388.891 242.104 381.495 241.49 375.948 242.104C373.281 242.307 370.609 242.719 368.146 243.542V245.396C367.938 250.943 367.531 257.729 366.5 264.719C372.458 267.391 378.005 270.682 383.141 274.589C403.266 289.599 414.563 313.24 412.714 336.063C412.099 345.109 409.224 351.896 404.089 356.214C401.214 358.063 397.516 359.297 393.615 359.297ZM363.625 275.615C363.625 275.823 363.625 275.823 363.625 275.615C365.474 276.849 367.531 278.083 369.38 279.318C377.385 285.484 382.521 295.766 383.958 308.51C384.984 316.943 384.37 325.578 383.755 334.005C383.547 336.474 383.344 338.734 383.344 341.203C383.141 345.313 383.141 349.63 385.193 352.719C386.63 354.771 388.891 356.214 391.766 356.625C395.464 357.036 399.365 356.005 402.24 353.536C407.786 348.813 409.427 340.995 409.839 335.24C411.479 313.651 400.188 290.422 381.083 276.026C376.359 272.531 371.021 269.245 365.474 266.776C365.271 269.859 364.656 272.74 363.625 275.615ZM321.729 257.729C319.88 257.729 318.031 257.729 316.391 257.938C312.693 258.141 308.38 258.349 304.885 260.401C302.219 261.844 299.75 264.307 297.906 267.599C294.208 273.974 293.589 281.99 296.057 289.599C298.521 297.203 303.656 303.375 310.432 306.458C325.427 313.24 343.911 304.604 352.948 292.063C356.438 287.333 358.901 281.99 360.75 276.646C357.052 274.385 353.359 271.708 351.302 267.599C350.276 265.542 349.865 263.281 349.661 261.021C340.828 258.964 331.589 257.729 321.729 257.729ZM352.125 261.844C352.328 263.484 352.74 265.13 353.359 266.573C355 269.859 358.083 272.12 361.37 274.177C362.188 271.297 362.807 268.625 363.422 265.75C359.932 264.307 356.026 263.073 352.125 261.844ZM352.328 259.375C356.438 260.401 360.339 261.844 364.036 263.484C365.063 256.906 365.474 250.531 365.682 245.188V244.365C362.396 245.599 359.724 247.245 357.464 249.302C354.797 251.563 352.74 255.469 352.328 259.375ZM785.901 208.182C785.281 208.182 784.87 208.182 784.255 208.385C780.557 209.411 777.891 212.5 775.833 215.172C770.698 222.161 767.208 230.385 765.568 238.813C776.656 235.526 786.307 227.302 790.828 216.609C791.443 215.172 791.854 213.729 791.651 212.5C791.443 211.057 790.417 210.031 789.594 209.411C788.776 208.594 787.339 208.182 785.901 208.182ZM618.51 115.25C601.464 115.25 575.38 121.417 563.057 134.99C557.51 141.156 555.25 148.146 556.688 155.75C558.536 167.063 569.833 174.255 579.078 178.573C585.031 181.245 590.99 183.302 596.74 184.74C609.266 182.276 620.771 178.573 631.245 173.844L631.859 173.641C642.13 168.911 652.604 163.974 660.615 156.161C663.281 153.49 666.776 149.172 667.599 143.62C668.417 138.688 667.188 134.37 664.313 130.672C655.068 118.948 630.833 116.073 623.438 115.453C621.797 115.25 620.151 115.25 618.51 115.25Z" fill="#FD694C"/>
<path id="hair 1" d="M509.859 188.646C508.63 186.797 506.781 185.563 504.932 183.922C501.031 181.042 497.125 177.958 497.333 171.172C497.333 167.677 493.839 165.62 489.938 163.156C488.297 162.125 486.859 161.302 485.422 160.276C483.365 158.63 481.313 156.781 479.464 154.932C472.479 162.948 463.854 169.938 454.203 174.875C448.245 177.958 443.109 179.604 438.385 180.016C426.682 181.042 414.359 174.052 408.401 163.156C407.786 161.922 407.167 160.687 406.552 159.453C404.5 155.135 402.443 151.229 398.75 149.38C396.49 148.349 393.615 148.146 390.943 148.146C389.094 148.146 387.042 148.146 384.984 148.349C378.208 148.557 371.224 148.76 364.448 147.12C356.437 145.266 346.99 139.922 344.526 130.26C342.677 122.854 345.552 114.224 351.922 108.26C356.849 103.531 363.625 100.24 372.87 97.9792C392.38 93.25 413.328 94.6875 431.813 102.094C434.693 103.323 437.771 104.557 440.443 105.792C446.193 108.464 452.146 111.135 458.516 112.578C460.365 112.99 462.417 113.193 464.469 113.401C466.115 104.766 470.427 96.7448 477 91.6042C481.313 88.1094 487.885 86.0521 492.198 89.7552C494.661 91.8125 495.484 95.099 495.896 97.9792C498.359 113.193 495.281 129.229 487.474 143.214C485.625 146.708 483.365 149.995 480.901 153.078C482.75 154.932 484.599 156.573 486.859 158.219C488.089 159.25 489.526 160.068 491.172 160.891C495.281 163.359 500 166.24 499.797 170.969C499.594 176.516 502.88 178.781 506.37 181.656C508.219 183.099 510.271 184.74 511.917 186.797L509.859 188.646ZM391.354 145.885C394.026 145.885 396.901 146.089 399.568 147.323C404.089 149.583 406.349 154.109 408.604 158.63C409.224 159.865 409.839 161.099 410.453 162.125C416 172.198 427.5 178.781 438.182 177.75C442.698 177.339 447.422 175.901 452.969 172.818C462.417 167.885 471.042 161.099 477.615 153.286C470.63 145.677 466.115 136.839 464.469 127.583C463.854 123.677 463.651 119.771 464.063 115.865C462.005 115.661 459.745 115.453 457.901 115.042C451.328 113.604 445.37 110.932 439.411 108.052C436.536 106.818 433.661 105.38 430.786 104.354C412.714 97.1562 392.177 95.7187 373.281 100.448C364.448 102.708 358.083 105.792 353.359 110.109C347.609 115.453 344.937 123.266 346.578 129.641C348.839 138.276 357.672 143.214 364.656 144.854C371.021 146.297 377.797 146.089 384.578 145.885C386.63 145.885 388.479 145.677 390.531 145.677C390.943 145.885 391.151 145.885 391.354 145.885ZM466.729 116.073C466.318 119.771 466.318 123.474 466.938 127.172C468.375 135.807 472.688 144.031 479.052 151.229C481.313 148.349 483.365 145.266 485.214 141.979C492.813 128.406 495.688 112.99 493.432 98.3906C493.021 95.9219 492.401 93.25 490.557 91.6042C487.271 88.9323 482.135 90.5781 478.438 93.4583C472.479 98.1823 468.375 105.38 466.938 113.401C473.099 113.193 479.672 111.135 483.776 106.203L485.625 107.849C481.109 113.812 473.714 116.073 466.729 116.073Z" fill="#FD694C"/>
</g>
<g id="pupils">
<path id="leftpupil" d="M569.63 398.563C569.422 398.563 569.219 398.563 569.219 398.563C565.932 398.359 562.646 395.891 561.62 392.604C560.594 389.521 561.208 385.818 563.26 382.938L565.313 384.38C563.672 386.432 563.26 389.313 564.083 391.573C564.906 394.042 567.161 395.688 569.63 395.891C572.094 396.099 574.557 394.453 575.172 392.193C575.792 389.724 573.531 385.818 570.656 383.557L572.297 381.708C574.969 383.969 578.667 388.901 577.432 393.016C576.406 396.099 573.12 398.563 569.63 398.563Z" fill="#FD694C"/>
<path id="rightpupil" d="M699.021 409.052C698.818 409.052 698.609 409.052 698.198 409.052C695.734 408.844 693.682 408.432 692.245 407.406C690.807 406.583 687.724 404.115 687.724 401.443H690.188C690.188 402.469 691.625 403.911 693.474 405.146C694.708 405.969 696.146 406.38 698.198 406.38C699.844 406.38 701.896 406.172 703.13 404.938C704.156 403.703 703.745 401.443 702.51 400.208C700.662 398.359 699.021 397.745 697.583 397.948L697.172 395.479C700.255 394.865 702.719 396.922 704.359 398.359C706.62 400.417 707.031 404.115 705.182 406.38C703.948 408.229 701.896 409.052 699.021 409.052Z" fill="#FD694C"/>
</g>
<g id="cheekandhariline">
<path id="hairline" d="M755.911 360.734C751.599 352.099 753.245 341.818 754.885 331.745C756.12 324.755 757.349 317.354 756.12 310.776C755.089 303.781 751.396 297.411 747.901 291.245C746.672 289.188 745.641 287.333 744.615 285.281C737.635 272.328 733.937 257.729 733.318 243.13C733.318 241.693 733.318 240.255 733.318 238.812C733.115 227.714 732.911 216.198 723.667 210.443C718.531 207.151 711.958 206.74 705.797 209.208C694.708 213.526 688.339 222.573 681.562 232.031C679.922 234.292 678.276 236.552 676.635 238.812C668.005 250.125 658.766 256.495 649.521 257.318C645.828 257.729 642.333 257.115 638.844 256.083C630.625 259.578 621.385 262.87 611.734 265.339C611.734 265.542 611.526 265.75 611.526 265.953C610.911 268.01 610.297 269.859 609.677 271.917C605.979 283.635 600.641 296.589 590.578 305.224C582.156 312.625 569.833 316.734 556.073 317.146C541.49 317.354 529.578 312.625 523.62 303.99C519.307 297.823 517.87 289.599 518.896 279.521C519.307 275.203 520.333 270.891 521.156 266.573C521.979 262.87 522.802 258.964 523.214 255.26C523.62 251.974 523.828 248.682 520.953 246.422C518.49 244.573 514.995 244.365 512.12 246.01C506.781 248.682 504.724 254.849 503.286 260.198C500.208 271.708 499.182 283.635 499.797 295.354C499.797 296.38 500 297.615 500 298.646C500.411 304.193 500.823 309.953 499.385 315.505C496.719 325.167 487.885 332.568 477.823 333.391C476.792 333.391 475.354 333.391 474.328 332.568C473.302 331.745 472.891 330.51 472.687 329.484C472.687 329.276 472.687 329.073 472.479 328.865C469.401 331.745 466.729 335.036 464.677 338.531C462.005 343.052 457.901 350.661 451.531 348.813C446.396 349.63 440.854 356.005 438.594 359.297L436.536 357.854C439.208 353.948 445.37 347.167 451.531 346.344H451.943C456.255 347.781 459.542 342.438 462.417 337.297C464.88 332.771 468.167 328.865 472.068 325.578C472.276 318.177 477.411 311.599 481.312 306.458C482.547 304.813 483.573 303.578 484.396 302.141C486.24 299.26 489.323 298.849 491.583 299.875C493.839 300.906 495.687 303.167 495.073 306.661C494.047 311.391 491.583 315.505 488.089 318.38C486.24 319.823 483.984 321.052 481.927 322.286C481.109 322.698 480.078 323.318 479.26 323.729C477.615 324.547 476.177 325.578 474.74 326.813C474.74 327.427 474.948 328.25 474.948 328.865C474.948 329.276 475.151 330.099 475.562 330.307C475.974 330.719 476.792 330.51 477.411 330.51C486.24 329.688 494.25 322.906 496.719 314.474C498.156 309.333 497.745 303.781 497.333 298.438C497.333 297.411 497.125 296.177 497.125 295.151C496.307 283.021 497.536 270.885 500.62 259.167C502.26 253.208 504.724 246.422 510.682 243.339C514.583 241.281 519.104 241.49 522.182 243.953C526.495 247.245 525.88 252.385 525.469 255.057C524.854 258.964 524.031 262.87 523.417 266.573C522.594 270.682 521.568 275 521.156 279.109C520.13 288.568 521.568 296.177 525.469 301.932C533.276 313.24 549.297 314.271 555.87 314.063C569.01 313.859 580.719 309.745 588.729 302.755C598.38 294.531 603.312 281.786 607.01 270.479C607.625 268.833 608.036 266.979 608.651 265.339C598.792 267.802 588.526 269.245 578.255 269.245C569.833 269.245 549.911 267.599 544.776 251.562C542.516 244.573 543.953 236.552 548.885 230.177C556.896 220.104 571.474 216.198 586.266 220.312C597.354 223.599 607.01 230.589 614.198 236.349L616.25 237.99C616.865 238.609 617.687 239.224 618.302 239.635C619.333 237.786 620.359 236.141 621.385 234.495C629.599 222.161 642.542 214.964 654.453 216.406C657.74 216.818 662.052 217.844 665.13 221.339C669.854 226.891 668.214 235.318 664.104 240.458C660 245.599 654.245 248.479 648.083 251.151C646.443 251.974 644.594 252.797 642.745 253.411C644.797 253.823 647.057 253.823 649.318 253.823C657.943 253 666.568 247.245 674.786 236.349C676.427 234.083 678.073 231.823 679.714 229.562C686.286 220.104 693.271 210.443 704.979 205.714C711.755 203.042 719.354 203.656 725.104 207.151C735.578 213.729 735.786 226.479 735.99 237.583C735.99 239.021 735.99 240.458 735.99 241.901C736.401 256.083 740.302 270.271 746.875 283.021C747.901 285.073 749.135 286.927 750.161 288.776C753.859 295.151 757.557 301.729 758.786 309.13C759.812 316.12 758.583 323.521 757.557 330.922C755.911 340.995 754.271 350.453 758.375 358.474L755.911 360.734ZM489.734 302.964C488.708 302.964 487.677 303.375 486.859 304.604C486.036 306.047 485.01 307.484 483.776 308.922C479.875 314.063 476.385 319.203 475.354 324.344C476.385 323.729 477.203 323.109 478.229 322.495C479.052 321.875 480.078 321.464 481.109 320.849C483.161 319.823 485.214 318.589 486.859 317.354C489.937 314.885 491.995 311.391 493.021 307.073C493.432 305.016 492.198 303.781 491.172 303.167C490.557 302.964 490.146 302.964 489.734 302.964ZM574.557 222.573C566.135 222.573 557.099 225.245 550.937 233.057C546.625 238.609 545.187 245.807 547.24 252.177C551.964 266.573 570.448 268.214 578.458 268.214C589.141 268.214 599.615 266.573 609.677 263.896C611.734 257.115 613.99 250.125 617.276 243.542C616.458 242.927 615.635 242.104 614.812 241.49L612.76 239.844C605.776 234.083 596.328 227.302 585.646 224.219C582.365 222.984 578.458 222.573 574.557 222.573ZM619.333 244.984C616.661 250.74 614.609 256.906 612.552 262.87C620.562 260.609 628.161 257.937 635.349 255.057C629.599 252.797 624.464 248.891 619.333 244.984ZM620.562 242.719C626.312 247.448 632.474 251.766 638.844 253.823C641.719 252.589 644.594 251.354 647.266 250.328C653.219 247.656 658.766 244.984 662.464 240.255C665.953 235.937 667.187 228.74 663.49 224.422C661.026 221.542 657.328 220.516 654.453 220.312C641.104 218.87 629.599 228.536 623.849 237.375C622.62 239.021 621.385 240.87 620.562 242.719Z" fill="#FD694C"/>
<path id="cheekstroke" d="M499.594 626.573C490.76 626.573 482.953 623.49 478.437 617.938C473.51 611.979 472.479 603.547 472.276 596.969C471.865 583.396 473.714 570.24 477.615 557.286C478.437 554.411 479.464 551.531 480.49 548.651C474.74 548.24 468.99 548.036 463.24 548.036C462.417 548.036 461.391 548.036 460.568 548.036C454.615 548.24 448.245 548.448 442.495 546.594C436.536 544.745 431.609 540.635 427.089 537.141C421.75 533.026 416 528.297 412.51 521.719C410.865 518.427 409.839 514.932 408.812 511.234C406.755 504.245 404.911 497.661 398.953 494.99C397.927 494.578 396.693 494.167 395.464 493.964C394.229 493.552 392.792 493.344 391.557 492.729C389.505 491.906 386.016 490.26 386.63 486.563L389.094 486.974C388.891 488.411 389.708 489.234 392.589 490.469C393.615 490.88 394.844 491.292 396.078 491.495C397.312 491.906 398.75 492.115 399.979 492.729C406.964 495.813 409.016 503.214 411.073 510.411C412.099 513.906 413.125 517.401 414.562 520.281C417.641 526.448 423.396 530.969 428.323 534.875C432.844 538.37 437.359 542.073 442.906 543.922C448.453 545.776 454.406 545.568 460.156 545.365C460.979 545.365 462.005 545.365 462.828 545.365C468.99 545.156 474.948 545.365 481.109 545.979C482.75 541.458 484.187 536.729 485.214 532C486.651 525.214 487.271 515.344 482.547 507.328C479.672 502.391 475.151 498.693 470.224 494.786C468.375 493.344 466.729 491.906 464.88 490.26C459.745 485.74 455.432 480.396 451.943 474.432C449.891 471.141 447.422 466.208 449.068 461.271C450.505 456.75 454.615 454.281 458.927 452.224C460.156 451.609 461.391 450.995 462.625 450.375C463.854 449.76 465.292 449.141 466.526 448.526C465.906 441.328 467.141 433.927 468.167 427.349C468.375 426.323 468.578 425.089 468.786 423.854C468.578 423.854 468.167 423.646 467.964 423.646C458.516 420.974 448.656 418.302 440.234 412.75C428.734 404.938 424.01 392.807 427.5 379.443L429.969 380.063C426.682 392.396 430.995 403.5 441.672 410.693C449.682 416.042 459.339 418.714 468.578 421.385C468.786 421.385 468.99 421.594 469.193 421.594C470.016 417.891 471.25 414.193 473.302 410.901C474.74 408.641 476.177 407.406 478.026 407.198C479.672 406.786 481.312 407.198 483.161 408.229C486.859 410.286 489.323 413.984 490.349 418.714C490.964 421.797 490.76 425.292 490.146 428.583C497.536 431.667 504.521 434.958 510.885 438.042C521.771 443.385 533.068 449.552 540.052 459.833C547.036 469.906 548.474 485.74 539.229 494.786C532.656 501.156 521.771 503.01 511.297 499.307C502.057 496.021 494.458 489.438 487.474 483.068C479.26 475.458 470.427 466.411 467.344 454.693C467.141 453.458 466.729 452.432 466.729 451.198C465.703 451.813 464.677 452.224 463.651 452.844C462.417 453.458 461.182 454.078 459.953 454.693C456.255 456.542 452.557 458.807 451.328 462.302C450.297 465.177 451.12 468.672 453.995 473.401C457.281 479.161 461.594 484.094 466.526 488.62C468.167 490.057 470.016 491.495 471.661 492.932C476.385 496.844 481.312 500.75 484.599 506.094C489.734 514.932 489.115 525.422 487.474 532.615C486.448 537.344 485.01 541.87 483.365 546.391C486.859 546.802 490.146 547.214 493.635 547.828C500.208 549.063 506.984 550.5 512.531 554.818C517.667 558.932 521.568 565.099 524.443 574.146C526.906 581.958 527.937 589.771 528.141 597.995C528.141 602.724 527.729 609.51 524.24 615.063C520.13 621.432 512.328 625.547 502.469 626.37C501.646 626.37 500.62 626.573 499.594 626.573ZM483.161 548.859C483.161 549.063 482.953 549.271 482.953 549.474C481.927 552.354 480.901 555.229 480.078 558.109C476.177 570.651 474.328 583.807 474.74 596.969C474.948 603.135 475.766 610.948 480.286 616.292C484.802 621.844 493.224 624.724 502.672 623.901C511.708 623.078 518.896 619.38 522.594 613.62C525.677 608.688 526.089 602.313 526.089 597.995C526.089 590.182 524.854 582.37 522.594 574.969C519.927 566.542 516.432 560.578 511.708 556.875C506.573 552.969 500.208 551.323 494.047 550.297C490.146 549.682 486.651 549.271 483.161 548.859ZM469.604 450.375C469.812 451.813 470.016 453.047 470.427 454.281C473.302 465.385 481.927 474.021 489.734 481.422C496.51 487.589 503.698 493.964 512.531 497.047C521.979 500.339 532.042 498.896 538 492.932C546.422 484.708 544.776 470.318 538.411 461.271C531.63 451.609 520.745 445.646 510.068 440.302C503.906 437.219 497.125 433.927 489.734 431.052C488.911 433.313 487.677 435.573 486.24 437.422C481.927 443.182 475.974 447.089 469.604 450.375ZM471.453 424.88C471.25 425.911 471.042 426.938 470.839 427.964C469.812 434.135 468.786 440.917 469.193 447.5C474.948 444.411 480.49 440.917 484.396 435.776C485.625 434.135 486.651 432.078 487.474 430.021C484.187 428.786 480.901 427.552 477.615 426.526C475.562 426.115 473.51 425.5 471.453 424.88ZM472.068 422.417C474.125 423.031 476.385 423.646 478.437 424.266C481.724 425.292 485.01 426.526 488.297 427.76C488.911 424.88 489.115 422.005 488.5 419.328C487.885 416.453 486.448 412.75 482.547 410.49C481.312 409.667 480.078 409.464 479.052 409.667C478.026 409.875 477 410.693 475.766 412.339C473.917 415.422 472.687 418.917 472.068 422.417Z" fill="#FD694C"/>
</g>
<g id="neck">
<mask id="mask1_16_8" style="mask-type:luminance" maskUnits="userSpaceOnUse" x="246" y="541" width="312" height="389">
<g id="539ffa38d5">
<path id="Vector_3" d="M246.667 541.333H557.333V930H246.667V541.333Z" fill="white"/>
</g>
</mask>
<g mask="url(#mask1_16_8)">
<g id="Group_2">
<path id="Vector_4" d="M536.766 929.833C532.453 929.833 528.141 928.187 525.057 925.719C520.745 922.432 517.458 917.906 514.38 913.589C513.766 912.562 512.943 911.74 512.328 910.714C505.755 901.667 497.745 893.646 488.708 886.865C486.448 885.219 484.802 882.547 484.599 879.667C484.187 876.786 485.214 873.703 487.062 871.234C492.609 864.656 495.281 854.583 494.047 844.922C493.839 843.068 493.432 841.219 493.021 839.37C489.937 839.573 487.062 839.573 484.187 838.339C474.948 834.844 473.099 823.125 472.479 814.49C472.068 809.557 471.865 804.417 471.865 799.687C466.526 791.26 461.594 782.417 459.339 772.547C458.516 769.052 458.104 765.354 457.693 761.859C457.078 757.333 456.667 752.812 455.229 748.495C450.708 733.896 437.568 721.562 419.49 715.599C412.302 713.13 404.911 711.896 397.312 711.073C398.13 716.01 399.365 720.74 400.802 725.26C410.453 759.187 425.245 791.052 444.755 820.453L445.578 821.687C451.943 831.146 458.516 841.016 458.104 852.323C458.104 854.172 457.693 856.844 456.052 858.693C453.792 861.37 449.891 861.37 446.807 861.161C436.13 860.547 425.859 856.432 417.437 849.443C390.12 827.443 367.12 800.922 348.839 770.698C346.375 766.792 344.115 762.682 341.854 758.776C332.818 743.151 323.578 727.115 309.818 715.599C307.146 713.339 304.271 711.073 301.187 709.224C299.547 709.021 297.906 708.812 296.26 708.812C277.776 706.755 263.401 703.26 250.87 697.505C247.583 696.068 246.969 692.776 247.995 690.307C248.818 687.844 251.484 685.995 254.979 687.021C270.38 691.953 287.427 697.505 302.01 706.964C322.552 708.812 343.703 708.609 364.036 708.609H368.557C376.771 708.609 385.396 708.401 394.229 709.224C394.026 707.578 393.818 705.729 393.818 704.083C393.615 698.943 393.818 693.599 394.229 688.458C394.432 684.349 394.844 680.234 394.844 676.125C394.641 653.094 382.932 630.276 363.833 615.062C344.526 599.844 318.646 592.651 292.359 595.526C288.25 595.937 284.76 595.734 281.677 594.5C276.953 592.854 273.875 589.771 272.437 585.661C270.177 578.672 273.052 570.24 276.75 564.484C277.776 562.839 279.01 561.193 280.24 559.547C284.141 554 288.25 548.036 288.661 541.458L291.125 541.661C290.714 549.062 286.401 555.229 282.297 560.99C281.062 562.63 280.036 564.276 279.01 565.922C275.724 571.062 272.849 578.875 274.901 584.839C276.135 588.333 278.599 590.802 282.703 592.24C285.375 593.266 288.661 593.474 292.359 593.062C319.057 590.182 345.76 597.38 365.682 613.208C385.396 628.833 397.312 652.276 397.516 676.125C397.516 680.443 397.312 684.552 396.901 688.667C396.49 693.599 396.078 698.74 396.49 703.88C396.693 705.729 396.693 707.578 397.104 709.432C404.911 710.255 412.714 711.484 420.312 713.953C439.005 720.12 452.969 733.073 457.49 748.495C458.927 753.016 459.542 757.745 459.953 762.271C460.365 765.766 460.776 769.26 461.594 772.755C463.443 780.979 467.349 788.792 471.865 795.99C472.479 787.766 474.536 780.156 479.464 773.781C480.698 772.141 482.339 770.495 483.776 769.052C485.422 767.411 487.062 765.766 488.5 763.708C491.786 759.187 493.432 753.427 494.87 747.672C495.281 746.026 495.687 744.38 496.307 742.74C502.469 722.589 516.229 704.906 534.505 694.422C541.078 690.719 548.266 684.964 545.391 679.411L547.651 678.385C549.708 682.495 549.297 688.87 535.74 696.682C518.078 706.964 504.724 724.026 498.771 743.562C498.359 745.203 497.745 746.849 497.333 748.495C495.687 754.25 494.25 760.214 490.557 765.354C489.12 767.411 487.271 769.26 485.625 770.906C484.187 772.344 482.75 773.781 481.516 775.427C476.177 782.214 474.536 790.641 474.125 799.687C475.562 801.948 477 804.214 478.641 806.474L479.875 808.323C485.833 817.37 491.995 827.24 494.87 837.724C495.484 837.724 495.896 837.724 496.51 837.724C516.432 836.901 536.354 846.974 547.24 863.833C558.125 880.693 559.151 903.104 550.115 920.786C548.885 923.255 547.24 926.13 544.365 928.187C542.104 929.214 539.437 929.833 536.766 929.833ZM495.484 839.37C495.896 841.219 496.307 842.865 496.51 844.714C497.745 854.995 494.87 865.687 488.911 872.88C487.474 874.734 486.651 876.995 487.062 879.255C487.271 881.516 488.5 883.37 490.146 884.807C499.385 891.594 507.604 899.818 514.38 909.271C514.995 910.302 515.818 911.125 516.432 912.151C519.307 916.469 522.391 920.786 526.495 923.87C531.016 927.161 538 929.01 543.135 925.516C545.391 923.87 546.828 921.401 548.062 919.141C556.687 902.078 555.661 880.693 545.187 864.656C534.917 848.62 515.818 838.75 496.719 839.573C496.307 839.37 495.896 839.37 495.484 839.37ZM306.323 709.432C308.172 710.667 309.818 712.104 311.667 713.542C325.63 725.469 335.078 741.708 344.115 757.542C346.375 761.448 348.635 765.557 351.099 769.464C369.172 799.276 392.177 825.802 419.083 848.005C427.089 854.583 436.745 858.49 447.016 859.104C449.479 859.312 452.766 859.312 454.203 857.464C455.021 856.432 455.641 854.995 455.641 852.734C455.844 842.042 449.682 832.583 443.521 823.536L442.698 822.302C423.187 792.698 408.198 760.625 398.542 726.495C397.104 721.766 395.87 716.625 395.052 711.484C386.219 710.87 377.385 710.87 369.172 710.87H364.656C345.141 710.87 325.63 711.073 306.323 709.432ZM474.125 803.594C474.125 807.089 474.328 810.792 474.74 814.49C475.354 822.302 477 833.203 485.01 836.286C487.271 837.109 489.734 837.109 492.401 837.109C489.526 827.24 483.776 818.193 477.823 808.943L476.589 807.089C475.766 806.062 474.948 804.828 474.125 803.594ZM253.13 688.87C251.693 688.87 250.667 689.901 250.458 690.927C249.844 692.365 250.255 694.219 252.104 695.036C264.219 700.589 278.187 704.083 296.26 705.937C282.911 698.328 267.917 693.396 254.365 689.078C253.953 689.078 253.542 688.87 253.13 688.87Z" fill="#FD694C"/>
</g>
</g>
</g>
</g>
</svg>
