<svg xmlns="http://www.w3.org/2000/svg" xmlns:xlink="http://www.w3.org/1999/xlink" width="1920" zoomAndPan="magnify" viewBox="0 0 1440 809.999993" height="1080" preserveAspectRatio="xMidYMid meet" version="1.0"><defs><clipPath id="0588bca7bc"><path d="M 640 500 L 756 500 L 756 615.851562 L 640 615.851562 Z M 640 500 " clip-rule="nonzero"/></clipPath><clipPath id="fd82a8309a"><path d="M 696 291.851562 L 701 291.851562 L 701 485 L 696 485 Z M 696 291.851562 " clip-rule="nonzero"/></clipPath></defs><g clip-path="url(#0588bca7bc)"><path fill="#2f2851" d="M 698.441406 500.644531 C 730.1875 500.644531 755.992188 526.464844 755.992188 558.222656 C 755.992188 589.984375 730.1875 615.851562 698.441406 615.851562 C 666.699219 615.851562 640.894531 590.03125 640.894531 558.269531 C 640.894531 526.511719 666.699219 500.644531 698.441406 500.644531 Z M 698.441406 611.28125 C 727.675781 611.28125 751.425781 587.515625 751.425781 558.269531 C 751.425781 529.023438 727.675781 505.261719 698.441406 505.261719 C 669.210938 505.261719 645.460938 529.023438 645.460938 558.269531 C 645.460938 587.515625 669.210938 611.28125 698.441406 611.28125 Z M 698.441406 611.28125 " fill-opacity="1" fill-rule="nonzero"/></g><path fill="#2f2851" d="M 772.207031 560.507812 L 964.675781 560.507812 L 964.675781 555.941406 L 772.207031 555.941406 Z M 772.207031 560.507812 " fill-opacity="1" fill-rule="nonzero"/><path fill="#2f2851" d="M 432.210938 560.507812 L 624.679688 560.507812 L 624.679688 555.941406 L 432.210938 555.941406 Z M 432.210938 560.507812 " fill-opacity="1" fill-rule="nonzero"/><g clip-path="url(#fd82a8309a)"><path fill="#2f2851" d="M 696.160156 484.46875 L 700.726562 484.46875 L 700.726562 291.894531 L 696.160156 291.894531 Z M 696.160156 484.46875 " fill-opacity="1" fill-rule="nonzero"/></g><path fill="#2f2851" d="M 748.96875 504.445312 L 752.199219 507.679688 L 860.136719 399.6875 L 856.90625 396.457031 Z M 748.96875 504.445312 " fill-opacity="1" fill-rule="nonzero"/><path fill="#2f2851" d="M 536.769531 399.695312 L 644.703125 507.6875 L 647.933594 504.457031 L 540 396.460938 Z M 536.769531 399.695312 " fill-opacity="1" fill-rule="nonzero"/><path fill="#2f2851" d="M 747.71875 434.855469 L 751.929688 436.621094 L 774.292969 383.273438 L 770.082031 381.503906 Z M 747.71875 434.855469 " fill-opacity="1" fill-rule="nonzero"/><path fill="#2f2851" d="M 724.875 489.304688 L 729.089844 491.074219 L 744.351562 454.664062 L 740.140625 452.894531 Z M 724.875 489.304688 " fill-opacity="1" fill-rule="nonzero"/><path fill="#2f2851" d="M 820.503906 505.832031 L 822.234375 510.0625 L 875.753906 488.164062 L 874.027344 483.933594 Z M 820.503906 505.832031 " fill-opacity="1" fill-rule="nonzero"/><path fill="#2f2851" d="M 765.863281 528.179688 L 767.589844 532.410156 L 804.074219 517.484375 L 802.347656 513.253906 Z M 765.863281 528.179688 " fill-opacity="1" fill-rule="nonzero"/><path fill="#2f2851" d="M 624.195312 382.578125 L 646.097656 436.121094 L 650.328125 434.390625 L 628.421875 380.847656 Z M 624.195312 382.578125 " fill-opacity="1" fill-rule="nonzero"/><path fill="#2f2851" d="M 653.507812 454.300781 L 668.453125 490.839844 L 672.683594 489.109375 L 657.734375 452.570312 Z M 653.507812 454.300781 " fill-opacity="1" fill-rule="nonzero"/><path fill="#2f2851" d="M 521.761719 486.570312 L 575.082031 508.949219 L 576.847656 504.734375 L 523.527344 482.355469 Z M 521.761719 486.570312 " fill-opacity="1" fill-rule="nonzero"/><path fill="#2f2851" d="M 593.167969 516.539062 L 629.558594 531.8125 L 631.324219 527.597656 L 594.933594 512.328125 Z M 593.167969 516.539062 " fill-opacity="1" fill-rule="nonzero"/></svg>