<svg width="1200" height="1000" viewBox="0 0 1200 1000" fill="none" xmlns="http://www.w3.org/2000/svg">
<g id="sunfigma">
<g id="Clip path group">
<mask id="mask0_16_8" style="mask-type:luminance" maskUnits="userSpaceOnUse" x="522" y="561" width="155" height="155">
<g id="0588bca7bc">
<path id="Vector" d="M522.052 561.531H676.719V716H522.052V561.531Z" fill="white"/>
</g>
</mask>
<g mask="url(#mask0_16_8)">
<g id="Group">
<path id="Vector_2" d="M599.974 562.391C642.302 562.391 676.708 596.818 676.708 639.162C676.708 681.51 642.302 716 599.974 716C557.651 716 523.245 681.573 523.245 639.224C523.245 596.88 557.651 562.391 599.974 562.391ZM599.974 709.906C638.953 709.906 670.62 678.219 670.62 639.224C670.62 600.229 638.953 568.547 599.974 568.547C561 568.547 529.333 600.229 529.333 639.224C529.333 678.219 561 709.906 599.974 709.906Z" fill="#2F2851"/>
</g>
</g>
</g>
<path id="Vector_3" d="M698.328 642.208H954.953V636.12H698.328V642.208Z" fill="#2F2851"/>
<path id="Vector_4" d="M245 642.208H501.625V636.12H245V642.208Z" fill="#2F2851"/>
<g id="Clip path group_2">
<mask id="mask1_16_8" style="mask-type:luminance" maskUnits="userSpaceOnUse" x="596" y="284" width="8" height="258">
<g id="fd82a8309a">
<path id="Vector_5" d="M596.719 284H603.385V541.531H596.719V284Z" fill="white"/>
</g>
</mask>
<g mask="url(#mask1_16_8)">
<g id="Group_2">
<path id="Vector_6" d="M596.932 540.823H603.021V284.057H596.932V540.823Z" fill="#2F2851"/>
</g>
</g>
</g>
<path id="Vector_7" d="M667.344 567.458L671.651 571.771L815.568 427.781L811.26 423.474L667.344 567.458Z" fill="#2F2851"/>
<path id="Vector_8" d="M384.411 427.792L528.323 571.781L532.63 567.474L388.719 423.479L384.411 427.792Z" fill="#2F2851"/>
<path id="Vector_9" d="M665.677 474.672L671.292 477.026L701.109 405.896L695.495 403.536L665.677 474.672Z" fill="#2F2851"/>
<path id="Vector_10" d="M635.219 547.271L640.839 549.63L661.188 501.083L655.573 498.724L635.219 547.271Z" fill="#2F2851"/>
<path id="Vector_11" d="M762.724 569.307L765.031 574.948L836.391 545.75L834.089 540.109L762.724 569.307Z" fill="#2F2851"/>
<path id="Vector_12" d="M689.87 599.104L692.172 604.745L740.818 584.844L738.516 579.203L689.87 599.104Z" fill="#2F2851"/>
<path id="Vector_13" d="M500.979 404.969L530.182 476.359L535.823 474.052L506.615 402.661L500.979 404.969Z" fill="#2F2851"/>
<path id="Vector_14" d="M540.062 500.599L559.99 549.318L565.63 547.01L545.698 498.292L540.062 500.599Z" fill="#2F2851"/>
<path id="Vector_15" d="M364.401 543.625L435.495 573.464L437.849 567.844L366.755 538.005L364.401 543.625Z" fill="#2F2851"/>
<path id="Vector_16" d="M459.609 583.583L508.13 603.948L510.484 598.328L461.964 577.969L459.609 583.583Z" fill="#2F2851"/>
</g>
</svg>
