<svg width="1200" height="1000" viewBox="0 0 1200 1000" fill="none" xmlns="http://www.w3.org/2000/svg">
<g id="traingles">
<g id="Group 2">
<circle id="circle" cx="596.5" cy="483.5" r="371.5" fill="#FD694C"/>
</g>
<g id="Group">
<path id="Vector" d="M710.068 354.828L813.938 251H385.172L489.042 354.828H273L599.552 681.25L926.109 354.828H710.068ZM398.505 256.531H800.599L702.26 354.828H496.844L398.505 256.531ZM696.729 360.359L599.552 457.495L502.38 360.359H696.729ZM286.333 360.359H494.521L599.552 465.349L704.531 360.417H912.719L599.552 673.453L286.333 360.359Z" fill="#2F2851"/>
<path id="Vector_2" d="M710.12 422.953L813.99 319.125H385.224L489.094 422.953H273.052L599.604 749.375L926.161 422.953H710.12ZM398.557 324.656H800.651L702.312 422.953H496.896L398.557 324.656ZM696.781 428.484L599.604 525.62L502.432 428.484H696.781ZM286.385 428.484H494.573L599.604 533.474L704.583 428.542H912.771L599.604 741.578L286.385 428.484Z" fill="#2F2851"/>
</g>
</g>
</svg>
