<svg xmlns="http://www.w3.org/2000/svg" xmlns:xlink="http://www.w3.org/1999/xlink" width="1920" zoomAndPan="magnify" viewBox="0 0 1440 809.999993" height="1080" preserveAspectRatio="xMidYMid meet" version="1.0"><defs><filter x="0%" y="0%" width="100%" height="100%" id="e95227ff3e"><feColorMatrix values="0 0 0 0 1 0 0 0 0 1 0 0 0 0 1 0 0 0 1 0" color-interpolation-filters="sRGB"/></filter><mask id="ba7204c470"><g filter="url(#e95227ff3e)"><rect x="-144" width="1728" fill="#000000" y="-80.999999" height="971.999992" fill-opacity="0.7373"/></g></mask><clipPath id="eca17c5507"><path d="M 1 285 L 381.996094 285 L 381.996094 516 L 1 516 Z M 1 285 " clip-rule="nonzero"/></clipPath><clipPath id="b4a8eceb7c"><rect x="0" width="383" y="0" height="554"/></clipPath></defs><rect x="-144" width="1728" fill="#ffffff" y="-80.999999" height="971.999992" fill-opacity="1"/><rect x="-144" width="1728" fill="#ffffff" y="-80.999999" height="971.999992" fill-opacity="1"/><rect x="-144" width="1728" fill="#ffffff" y="-80.999999" height="971.999992" fill-opacity="1"/><g mask="url(#ba7204c470)"><g transform="matrix(1, 0, 0, 1, 128, 108)"><g clip-path="url(#b4a8eceb7c)"><path fill="#2f2851" d="M 243.726562 155.085938 L 242.460938 155.085938 C 242.808594 146.574219 246.375 138.0625 250.171875 129.667969 L 244.878906 132.542969 C 243.382812 133.347656 241.542969 134.382812 239.125 132.886719 C 238.089844 132.199219 237.285156 131.277344 236.941406 130.128906 C 236.25 127.480469 237.859375 125.066406 239.816406 122.882812 C 239.585938 122.882812 239.472656 122.882812 239.242188 122.765625 C 238.78125 122.652344 238.320312 122.421875 238.089844 122.078125 C 237.515625 121.273438 237.976562 120.351562 238.089844 119.890625 C 239.125 117.246094 240.277344 114.601562 241.3125 112.070312 C 242.230469 110 243.152344 107.929688 244.648438 106.320312 C 244.417969 105.054688 244.1875 103.789062 243.957031 102.523438 C 243.726562 101.375 243.496094 100.339844 243.382812 99.1875 C 243.039062 97.234375 242.808594 94.933594 244.300781 93.207031 C 245.339844 92.058594 246.832031 91.597656 248.097656 92.289062 C 248.90625 92.75 249.480469 93.4375 249.710938 94.359375 C 250.054688 96.199219 249.019531 98.5 247.984375 99.765625 C 247.0625 100.800781 246.832031 102.066406 247.179688 103.214844 C 247.292969 103.675781 247.523438 104.019531 247.871094 104.363281 C 249.480469 103.789062 251.207031 103.789062 252.816406 103.789062 C 252.929688 103.789062 253.046875 103.789062 253.046875 103.789062 C 253.507812 103.558594 253.964844 103.214844 254.195312 102.753906 C 254.542969 102.066406 254.3125 101.144531 254.082031 100.109375 L 250.859375 88.609375 C 250.628906 87.6875 250.746094 86.769531 251.207031 86.078125 C 251.550781 85.617188 251.894531 85.386719 252.242188 85.15625 C 249.480469 85.042969 247.984375 86.996094 246.375 89.183594 C 244.992188 91.023438 243.613281 92.863281 241.542969 93.554688 C 240.964844 93.667969 240.507812 93.785156 239.929688 93.898438 C 239.585938 93.898438 239.242188 94.015625 239.011719 94.015625 C 237.398438 94.359375 235.789062 95.394531 234.292969 96.3125 C 233.832031 96.542969 233.488281 96.890625 233.027344 97.117188 C 233.027344 97.347656 233.027344 97.464844 233.027344 97.695312 C 234.0625 98.960938 234.867188 100.339844 235.445312 101.949219 C 235.90625 103.328125 236.019531 104.824219 235.90625 106.320312 C 235.789062 107.699219 234.640625 108.273438 233.71875 108.273438 C 232.683594 108.273438 231.648438 107.46875 231.648438 106.203125 C 231.648438 104.824219 231.648438 103.558594 231.761719 102.179688 C 231.761719 100.914062 231.878906 99.535156 231.878906 98.269531 C 231.761719 98.152344 231.761719 98.152344 231.648438 98.039062 C 230.265625 98.730469 228.773438 99.1875 227.046875 98.960938 C 225.78125 98.730469 224.515625 97.695312 224.285156 96.660156 C 224.054688 95.855469 224.285156 95.164062 224.859375 94.589844 C 225.433594 94.128906 226.242188 93.898438 227.046875 94.128906 C 228.773438 94.589844 230.382812 95.394531 231.761719 96.542969 C 231.648438 94.933594 231.417969 93.4375 230.957031 91.945312 C 230.496094 90.449219 229.808594 89.066406 229.117188 87.6875 L 224.515625 78.257812 C 223.480469 76.1875 221.0625 73.542969 218.992188 72.390625 C 218.1875 71.929688 217.382812 71.355469 216.691406 70.894531 C 215.886719 70.320312 214.964844 69.632812 214.046875 69.171875 C 210.59375 67.332031 206.566406 67.5625 202.3125 67.675781 C 200.355469 67.789062 198.285156 67.789062 196.328125 67.675781 C 194.601562 67.5625 192.878906 67.214844 191.265625 66.984375 C 193.796875 68.597656 196.328125 70.320312 199.203125 71.242188 C 200.585938 71.703125 203.808594 72.851562 203.460938 75.382812 L 203.347656 76.300781 L 202.542969 75.839844 C 193.683594 71.125 183.214844 66.527344 172.285156 67.332031 C 170.902344 67.445312 169.523438 67.675781 168.144531 67.789062 C 167.109375 67.90625 165.957031 68.136719 164.921875 68.136719 C 164.460938 68.25 164.117188 68.367188 163.769531 68.597656 C 160.320312 69.746094 156.867188 71.011719 153.300781 71.011719 C 152.84375 71.585938 152.613281 72.160156 152.613281 72.851562 C 152.613281 73.425781 152.84375 74 153.070312 74.691406 C 153.648438 76.417969 154.335938 78.027344 155.144531 79.636719 C 157.097656 83.777344 159.054688 83.546875 160.320312 82.972656 C 161.125 82.628906 161.929688 81.9375 162.390625 81.015625 C 165.496094 76.070312 171.824219 73.195312 177.804688 74 C 181.71875 74.578125 185.285156 76.648438 188.390625 78.488281 C 188.964844 78.832031 190.808594 79.867188 190.230469 81.59375 C 189.886719 82.628906 188.734375 83.203125 187.585938 83.085938 C 187.355469 83.085938 187.125 82.972656 186.894531 82.972656 C 185.746094 83.894531 184.019531 84.007812 183.097656 84.007812 C 175.734375 84.46875 168.488281 85.960938 161.585938 88.609375 L 160.664062 88.953125 L 160.664062 88.03125 C 160.78125 86.882812 161.585938 85.960938 162.160156 85.386719 C 163.195312 84.238281 164.230469 83.085938 165.382812 82.050781 C 165.152344 81.015625 165.613281 79.753906 166.53125 78.945312 C 168.488281 76.875 171.480469 76.417969 174.125 76.875 C 174.816406 76.761719 175.503906 76.648438 176.195312 76.648438 L 176.542969 76.648438 L 176.769531 76.992188 C 176.886719 77.222656 177 77.335938 177 77.566406 C 177 77.566406 177.117188 77.566406 177.117188 77.566406 C 178.496094 78.140625 179.878906 78.71875 181.257812 79.40625 C 182.984375 80.328125 184.710938 81.132812 186.550781 81.59375 C 186.550781 81.59375 186.550781 81.476562 186.664062 81.476562 L 187.46875 81.824219 C 187.699219 81.824219 187.816406 81.9375 188.046875 81.9375 C 188.621094 82.050781 189.082031 81.707031 189.195312 81.363281 C 189.3125 81.015625 189.3125 80.558594 187.929688 79.753906 C 184.941406 78.027344 181.488281 75.957031 177.808594 75.496094 C 172.398438 74.691406 166.53125 77.335938 163.65625 81.9375 C 162.964844 82.972656 162.046875 83.894531 161.011719 84.351562 C 158.25 85.617188 155.949219 84.238281 154.105469 80.441406 C 153.300781 78.832031 152.613281 77.105469 152.035156 75.382812 C 151.804688 74.691406 151.578125 73.886719 151.578125 73.195312 C 151.578125 72.507812 151.691406 71.929688 152.035156 71.355469 C 151.691406 71.355469 151.230469 71.242188 150.886719 71.242188 C 150.195312 71.125 149.160156 70.894531 148.699219 69.976562 C 148.355469 69.285156 148.46875 68.480469 148.816406 67.675781 C 150.082031 65.261719 153.070312 64.570312 156.0625 64.109375 L 169.867188 62.386719 C 173.433594 61.925781 177.347656 61.464844 181.144531 62.269531 C 183.789062 62.84375 186.320312 64.109375 188.621094 65.492188 C 189.3125 65.605469 189.886719 65.71875 190.578125 65.835938 C 192.53125 66.179688 194.71875 66.640625 196.675781 66.753906 C 198.515625 66.871094 200.585938 66.753906 202.542969 66.753906 C 206.683594 66.640625 211.054688 66.410156 214.851562 68.367188 C 215.886719 68.824219 216.808594 69.515625 217.613281 70.207031 C 218.300781 70.78125 219.109375 71.242188 219.796875 71.703125 C 222.097656 72.964844 224.746094 75.839844 225.894531 78.140625 L 230.496094 87.574219 C 231.1875 88.953125 231.878906 90.449219 232.339844 92.058594 C 232.796875 93.4375 233.027344 94.820312 233.144531 96.3125 C 233.375 96.199219 233.605469 96.082031 233.832031 95.855469 C 235.445312 94.820312 237.171875 93.785156 239.011719 93.4375 C 239.355469 93.324219 239.699219 93.324219 240.046875 93.207031 C 240.507812 93.09375 240.964844 93.09375 241.425781 92.863281 C 243.265625 92.289062 244.417969 90.679688 245.683594 88.953125 C 247.410156 86.652344 249.25 84.238281 252.699219 84.351562 C 253.390625 84.351562 254.082031 84.582031 254.773438 84.8125 C 257.992188 86.078125 260.640625 88.953125 262.019531 92.863281 C 263.285156 96.429688 263.398438 100.222656 263.398438 103.789062 C 263.285156 108.273438 262.824219 112.875 261.789062 117.359375 C 261.445312 118.742188 261.097656 120.464844 260.292969 121.960938 C 258.570312 125.296875 255.230469 127.480469 252.125 129.09375 C 248.097656 137.375 244.074219 146.34375 243.726562 155.085938 Z M 242.117188 122.308594 L 241.082031 123.457031 C 239.242188 125.410156 237.628906 127.597656 238.207031 129.78125 C 238.433594 130.585938 239.011719 131.277344 239.816406 131.851562 C 241.542969 132.886719 242.808594 132.199219 244.304688 131.394531 L 250.171875 128.171875 C 250.398438 128.058594 250.628906 127.941406 250.976562 127.710938 C 250.976562 127.597656 251.089844 127.480469 251.089844 127.367188 C 255.460938 117.820312 259.832031 107.929688 259.71875 98.269531 C 259.71875 96.082031 259.144531 88.839844 253.851562 86.539062 C 252.929688 86.191406 252.585938 86.308594 252.355469 86.769531 C 252.125 87.113281 252.011719 87.6875 252.125 88.261719 L 255.347656 99.765625 C 255.691406 100.914062 255.921875 102.179688 255.347656 103.328125 C 255.230469 103.558594 255 103.789062 254.886719 104.019531 C 255.460938 104.25 256.039062 104.59375 256.382812 105.167969 C 256.84375 105.976562 256.726562 107.011719 256.613281 107.699219 C 256.382812 109.308594 255.921875 111.726562 254.195312 113.105469 C 253.277344 113.910156 252.125 114.257812 250.976562 114.484375 C 250.171875 114.714844 249.363281 114.945312 248.675781 115.289062 C 247.871094 115.75 247.179688 116.554688 246.488281 117.246094 L 244.648438 119.203125 C 244.53125 119.429688 244.417969 119.660156 244.304688 119.777344 C 243.957031 120.8125 243.039062 121.730469 242.117188 122.308594 Z M 258.570312 89.066406 C 260.0625 91.367188 260.984375 94.589844 260.984375 98.269531 C 261.214844 107.816406 257.074219 117.359375 252.816406 126.675781 C 255.230469 125.296875 257.648438 123.457031 258.914062 120.925781 C 259.605469 119.546875 259.949219 118.050781 260.292969 116.671875 C 261.214844 112.300781 261.789062 107.699219 261.90625 103.328125 C 261.90625 99.878906 261.789062 96.3125 260.640625 92.863281 C 260.0625 91.484375 259.375 90.21875 258.570312 89.066406 Z M 245.109375 108.046875 C 244.074219 109.308594 243.382812 111.035156 242.691406 112.644531 C 241.542969 115.289062 240.507812 117.820312 239.472656 120.464844 C 239.355469 120.695312 239.125 121.273438 239.355469 121.5 C 239.355469 121.617188 239.585938 121.617188 239.699219 121.730469 C 240.277344 121.847656 240.851562 121.730469 241.3125 121.5 L 243.84375 118.742188 C 245.109375 116.324219 245.566406 113.222656 245.339844 109.65625 C 245.222656 108.964844 245.109375 108.503906 245.109375 108.046875 Z M 246.257812 106.78125 C 246.375 107.699219 246.488281 108.503906 246.605469 109.425781 C 246.832031 111.839844 246.605469 114.140625 246.144531 116.097656 C 246.71875 115.40625 247.410156 114.832031 248.214844 114.257812 C 249.019531 113.796875 249.941406 113.566406 250.859375 113.335938 C 251.894531 113.105469 252.929688 112.761719 253.621094 112.1875 C 254.886719 111.152344 255.230469 109.425781 255.578125 107.46875 C 255.691406 106.78125 255.808594 106.203125 255.460938 105.746094 C 255.230469 105.285156 254.65625 105.054688 253.621094 104.941406 C 253.621094 104.941406 253.507812 104.941406 253.507812 105.054688 C 252.699219 105.398438 250.054688 106.664062 247.984375 105.746094 C 247.984375 105.746094 247.867188 105.746094 247.867188 105.859375 C 247.179688 105.976562 246.71875 106.320312 246.257812 106.78125 Z M 233.027344 99.878906 C 233.027344 100.683594 233.027344 101.488281 232.914062 102.292969 C 232.914062 103.558594 232.796875 104.941406 232.796875 106.203125 C 232.796875 106.78125 233.257812 107.011719 233.605469 107.011719 C 234.0625 107.011719 234.410156 106.78125 234.523438 106.203125 C 234.640625 104.824219 234.523438 103.558594 234.179688 102.292969 C 233.949219 101.488281 233.605469 100.683594 233.027344 99.878906 Z M 246.949219 93.207031 C 246.375 93.207031 245.796875 93.4375 245.339844 94.015625 C 244.1875 95.394531 244.417969 97.234375 244.761719 98.960938 C 244.992188 99.996094 245.222656 101.144531 245.339844 102.179688 C 245.566406 103.214844 245.796875 104.25 245.914062 105.285156 C 246.144531 105.054688 246.375 104.941406 246.605469 104.824219 C 246.257812 104.480469 246.027344 104.019531 245.914062 103.558594 C 245.453125 101.949219 245.796875 100.222656 247.0625 98.960938 C 247.984375 97.925781 248.789062 95.96875 248.558594 94.589844 C 248.445312 94.015625 248.097656 93.667969 247.640625 93.4375 C 247.523438 93.324219 247.179688 93.207031 246.949219 93.207031 Z M 226.472656 95.277344 C 226.242188 95.277344 225.894531 95.394531 225.78125 95.507812 C 225.550781 95.738281 225.433594 95.96875 225.550781 96.199219 C 225.78125 96.890625 226.585938 97.464844 227.277344 97.578125 C 228.425781 97.695312 229.460938 97.464844 230.613281 97.003906 C 229.460938 96.199219 228.195312 95.507812 226.816406 95.164062 C 226.699219 95.277344 226.585938 95.277344 226.472656 95.277344 Z M 165.957031 83.085938 C 164.921875 84.121094 164 85.15625 163.082031 86.191406 C 162.851562 86.421875 162.621094 86.769531 162.390625 86.996094 C 164.691406 86.191406 166.992188 85.503906 169.410156 84.8125 C 168.488281 84.582031 167.683594 84.121094 166.992188 83.777344 C 166.761719 83.546875 166.300781 83.433594 165.957031 83.085938 Z M 166.878906 82.167969 C 167.109375 82.28125 167.335938 82.511719 167.566406 82.628906 C 168.832031 83.316406 170.214844 83.894531 171.710938 83.894531 C 173.203125 83.894531 174.699219 82.972656 175.503906 81.707031 C 176.082031 80.671875 176.3125 79.523438 175.964844 78.371094 C 175.390625 78.140625 174.699219 78.027344 174.125 77.910156 C 171.480469 78.488281 169.0625 80.097656 166.878906 82.167969 Z M 177.347656 78.832031 C 177.460938 79.980469 177.230469 81.246094 176.542969 82.28125 C 176.3125 82.742188 175.964844 83.085938 175.621094 83.433594 C 178.035156 83.085938 180.453125 82.742188 182.984375 82.628906 C 183.789062 82.628906 184.480469 82.511719 185.167969 82.28125 C 183.558594 81.707031 182.0625 81.015625 180.683594 80.328125 C 179.53125 79.867188 178.496094 79.292969 177.347656 78.832031 Z M 170.558594 77.910156 C 169.410156 78.140625 168.257812 78.71875 167.335938 79.636719 C 166.992188 79.980469 166.761719 80.328125 166.648438 80.671875 C 167.914062 79.636719 169.179688 78.71875 170.558594 77.910156 Z M 198.054688 72.160156 C 199.320312 72.738281 200.585938 73.425781 201.734375 74 C 201.046875 73.3125 199.894531 72.851562 198.746094 72.390625 C 198.515625 72.390625 198.285156 72.277344 198.054688 72.160156 Z M 174.816406 65.949219 C 182.0625 65.949219 189.082031 68.136719 195.523438 71.011719 C 193.796875 70.089844 192.074219 69.054688 190.460938 67.90625 C 189.65625 67.332031 188.734375 66.753906 187.929688 66.296875 C 187.46875 66.179688 187.011719 66.179688 186.550781 66.066406 C 182.410156 65.375 178.265625 65.375 174.125 65.949219 C 174.355469 65.949219 174.585938 65.949219 174.816406 65.949219 Z M 176.425781 62.730469 C 174.242188 62.730469 172.054688 62.960938 169.867188 63.304688 L 156.0625 65.03125 C 153.417969 65.375 150.886719 65.949219 149.851562 67.90625 C 149.621094 68.367188 149.503906 68.824219 149.734375 69.054688 C 149.851562 69.402344 150.3125 69.515625 151 69.632812 C 151.578125 69.746094 152.265625 69.746094 152.84375 69.746094 C 153.992188 68.597656 155.601562 67.90625 157.214844 67.5625 C 158.824219 67.214844 160.433594 67.214844 161.929688 67.101562 C 162.621094 67.101562 163.3125 67.101562 164 66.984375 C 164.230469 66.984375 164.578125 66.984375 164.804688 66.871094 C 165.613281 66.640625 166.417969 66.296875 167.222656 66.066406 C 172.859375 64.339844 178.957031 63.878906 184.941406 64.457031 C 183.558594 63.765625 182.292969 63.304688 180.796875 62.960938 C 179.300781 62.84375 177.808594 62.730469 176.425781 62.730469 Z M 160.203125 68.480469 C 159.285156 68.597656 158.25 68.597656 157.328125 68.824219 C 156.523438 68.941406 155.71875 69.285156 154.914062 69.632812 C 156.753906 69.515625 158.480469 69.054688 160.203125 68.480469 Z M 160.203125 68.480469 " fill-opacity="1" fill-rule="nonzero"/><path fill="#2f2851" d="M 158.59375 199.941406 C 152.726562 199.941406 146.515625 196.949219 141.566406 191.660156 C 137.539062 187.289062 134.089844 181.769531 130.753906 174.523438 L 117.523438 145.195312 C 116.371094 142.777344 115.222656 140.25 114.53125 137.601562 C 113.382812 133.578125 113.265625 129.4375 113.152344 125.296875 C 113.035156 120.582031 112.804688 115.75 111.195312 111.378906 C 110.964844 110.574219 110.621094 109.886719 110.273438 109.082031 C 109.816406 108.046875 109.355469 106.894531 108.894531 105.746094 C 108.664062 105.859375 108.433594 105.859375 108.320312 105.859375 C 107.746094 105.859375 107.285156 105.515625 106.9375 105.171875 C 106.480469 104.480469 106.363281 103.675781 106.363281 103.101562 L 105.902344 96.542969 C 105.789062 94.703125 105.558594 92.519531 106.25 90.5625 C 106.707031 88.953125 107.746094 87.457031 108.664062 86.308594 C 111.539062 82.28125 115.105469 77.796875 120.167969 76.992188 C 123.964844 76.417969 128.222656 78.140625 130.292969 81.476562 C 130.753906 82.167969 131.097656 82.859375 131.445312 83.546875 C 131.789062 84.121094 132.019531 84.8125 132.363281 85.386719 C 132.710938 85.847656 133.054688 86.308594 133.398438 86.882812 C 134.089844 87.804688 134.894531 88.839844 135.238281 89.988281 C 135.699219 91.136719 135.585938 92.632812 134.894531 93.667969 C 134.433594 94.472656 133.746094 94.933594 132.9375 95.164062 C 131.902344 95.394531 130.984375 95.050781 130.179688 94.703125 L 129.949219 94.589844 C 126.839844 93.4375 123.851562 93.207031 120.972656 93.898438 C 117.984375 94.703125 115.335938 96.660156 114.070312 99.1875 C 113.726562 99.878906 113.613281 100.800781 113.839844 101.375 C 113.957031 101.605469 114.070312 101.71875 114.300781 101.71875 C 114.53125 101.71875 114.761719 101.71875 115.105469 101.605469 C 115.222656 101.605469 115.453125 101.488281 115.566406 101.488281 C 116.027344 101.375 116.371094 101.375 116.832031 101.488281 C 117.179688 100.683594 117.523438 99.996094 117.867188 99.304688 C 118.445312 98.382812 119.019531 97.234375 120.054688 96.660156 C 121.664062 95.625 123.390625 95.738281 125.117188 96.199219 C 126.613281 95.625 128.335938 96.3125 129.71875 97.117188 C 129.949219 97.234375 130.292969 97.464844 130.523438 97.695312 C 131.328125 97.808594 132.132812 97.808594 132.824219 97.464844 L 133.285156 98.613281 C 132.363281 98.960938 131.558594 99.074219 130.636719 98.960938 C 130.523438 99.1875 130.523438 99.304688 130.292969 99.535156 C 129.144531 101.257812 127.300781 101.835938 125.460938 102.523438 C 124.3125 102.871094 123.160156 103.328125 122.238281 104.019531 C 121.664062 104.363281 121.089844 104.941406 120.515625 105.515625 C 119.132812 106.894531 117.636719 108.273438 115.566406 107.929688 L 114.992188 107.816406 L 115.105469 107.238281 C 115.335938 105.746094 115.683594 104.25 116.257812 102.871094 C 116.027344 102.871094 115.914062 102.871094 115.683594 102.871094 C 115.566406 102.871094 115.453125 102.871094 115.335938 102.984375 C 114.992188 103.101562 114.53125 103.214844 113.957031 103.101562 C 113.382812 102.984375 112.921875 102.640625 112.574219 102.066406 C 112.117188 101.03125 112.347656 99.648438 112.804688 98.84375 C 114.300781 95.96875 117.179688 93.785156 120.515625 92.980469 C 123.503906 92.171875 126.839844 92.519531 130.179688 93.785156 L 130.40625 93.898438 C 131.097656 94.128906 131.789062 94.472656 132.480469 94.359375 C 132.9375 94.242188 133.285156 94.015625 133.515625 93.554688 C 133.972656 92.863281 133.972656 91.714844 133.746094 90.910156 C 133.398438 89.875 132.710938 89.066406 132.019531 88.148438 C 131.671875 87.6875 131.214844 87.113281 130.867188 86.652344 C 130.523438 86.078125 130.179688 85.386719 129.832031 84.8125 C 129.488281 84.121094 129.144531 83.546875 128.796875 82.859375 C 126.957031 79.980469 123.273438 78.371094 119.9375 78.945312 C 118.789062 79.175781 117.753906 79.523438 116.832031 79.980469 C 118.671875 79.0625 120.628906 78.71875 122.816406 79.0625 L 123.390625 79.175781 L 123.390625 79.753906 C 123.160156 82.050781 121.664062 84.351562 118.902344 86.539062 C 118.328125 86.996094 117.753906 87.34375 117.179688 87.804688 C 115.566406 88.953125 114.070312 89.988281 112.921875 91.484375 C 110.621094 94.472656 110.273438 98.613281 109.929688 102.523438 C 109.816406 103.328125 109.816406 104.136719 109.699219 104.824219 C 109.699219 104.941406 109.699219 105.054688 109.585938 105.285156 C 109.585938 105.398438 109.585938 105.515625 109.699219 105.628906 C 110.046875 106.894531 110.621094 108.160156 111.082031 109.425781 C 111.425781 110.230469 111.769531 110.921875 112 111.726562 C 113.726562 116.324219 113.839844 121.273438 114.070312 125.988281 C 114.1875 130.011719 114.300781 134.152344 115.335938 137.949219 C 116.027344 140.480469 117.179688 143.007812 118.214844 145.425781 L 131.445312 174.753906 C 134.664062 181.882812 138.117188 187.289062 142.027344 191.542969 C 146.972656 196.949219 153.1875 199.824219 159.054688 199.363281 C 163.3125 199.136719 167.109375 197.296875 171.132812 195.453125 C 172.515625 194.765625 174.011719 194.074219 175.390625 193.5 C 174.242188 193.15625 173.433594 192.464844 173.089844 191.660156 C 172.859375 190.96875 172.859375 190.277344 173.203125 189.589844 C 173.894531 188.207031 175.621094 187.289062 177 186.828125 C 181.601562 185.332031 186.550781 184.296875 191.382812 183.378906 C 195.292969 182.574219 199.320312 181.769531 203.230469 180.617188 C 204.496094 179.238281 205.648438 177.742188 206.683594 176.363281 L 207.257812 175.671875 C 208.753906 173.601562 210.25 171.53125 212.320312 169.921875 C 214.964844 167.738281 217.957031 166.816406 220.601562 167.277344 L 220.949219 167.277344 L 221.0625 167.507812 C 221.523438 168.195312 221.640625 169 221.523438 169.808594 C 223.25 168.425781 224.859375 166.816406 226.585938 164.863281 C 233.949219 156.234375 238.320312 145.195312 238.78125 133.808594 L 240.046875 133.921875 C 239.472656 145.539062 235.097656 156.8125 227.507812 165.78125 C 225.664062 167.964844 223.824219 169.808594 221.867188 171.1875 C 221.523438 171.417969 221.179688 171.761719 220.71875 171.992188 C 220.027344 173.140625 218.992188 174.292969 217.84375 175.210938 C 214.390625 177.859375 210.480469 179.699219 206.453125 181.078125 C 205.761719 181.539062 205.074219 182.113281 204.382812 182.574219 C 202.65625 183.839844 200.929688 185.105469 199.089844 186.367188 C 198.398438 186.828125 197.710938 187.289062 197.019531 187.75 C 196.789062 187.863281 196.558594 187.980469 196.328125 188.09375 C 189.769531 192.234375 183.675781 194.191406 178.152344 194.074219 C 177.808594 194.191406 177.460938 194.304688 177.230469 194.417969 C 175.390625 195.109375 173.550781 196.03125 171.710938 196.835938 C 167.796875 198.675781 163.65625 200.628906 159.167969 200.859375 C 159.285156 199.941406 158.9375 199.941406 158.59375 199.941406 Z M 201.964844 181.539062 C 198.628906 182.34375 195.292969 183.035156 192.074219 183.722656 C 187.355469 184.644531 182.410156 185.679688 177.808594 187.171875 C 176.65625 187.519531 175.160156 188.324219 174.699219 189.359375 C 174.46875 189.703125 174.46875 190.050781 174.699219 190.394531 C 175.046875 191.429688 176.65625 191.660156 177.578125 191.773438 C 177.808594 191.773438 178.152344 191.773438 178.382812 191.773438 C 180.566406 191.085938 182.753906 190.507812 184.941406 189.933594 C 188.734375 188.898438 192.761719 187.863281 196.214844 186.023438 C 197.132812 185.449219 197.941406 184.875 198.859375 184.296875 C 200.011719 183.378906 201.046875 182.457031 201.964844 181.539062 Z M 219.683594 167.507812 C 217.613281 167.507812 215.425781 168.425781 213.585938 169.921875 C 211.746094 171.417969 210.25 173.488281 208.753906 175.441406 L 208.179688 176.132812 C 207.488281 177.050781 206.796875 177.972656 205.992188 178.894531 C 206.109375 178.894531 206.335938 178.777344 206.453125 178.777344 C 208.523438 177.28125 210.59375 175.789062 212.894531 174.523438 C 213.816406 173.949219 214.734375 173.488281 215.65625 172.914062 C 217.265625 171.992188 218.878906 171.070312 220.375 170.035156 C 220.832031 169.230469 220.949219 168.3125 220.601562 167.507812 C 220.144531 167.507812 219.914062 167.507812 219.683594 167.507812 Z M 217.035156 173.601562 C 216.691406 173.832031 216.460938 173.949219 216.117188 174.175781 C 215.195312 174.636719 214.277344 175.210938 213.355469 175.789062 C 212.78125 176.132812 212.320312 176.476562 211.859375 176.707031 C 213.699219 175.789062 215.425781 174.753906 217.035156 173.601562 Z M 117.867188 102.410156 C 117.40625 103.675781 117.0625 104.941406 116.832031 106.203125 C 117.984375 106.089844 119.019531 105.167969 120.054688 104.136719 C 120.628906 103.558594 121.203125 102.984375 121.894531 102.523438 C 122.929688 101.71875 124.195312 101.375 125.460938 100.914062 C 127.1875 100.339844 128.796875 99.765625 129.71875 98.5 C 129.71875 98.5 129.71875 98.382812 129.832031 98.382812 C 128.914062 98.152344 127.992188 97.925781 127.1875 97.578125 C 126.726562 97.464844 126.152344 97.234375 125.691406 97.117188 C 125 97.578125 124.65625 98.5 124.3125 99.417969 C 123.851562 100.570312 123.390625 101.71875 122.238281 102.410156 C 121.089844 103.101562 119.707031 102.871094 118.558594 102.640625 C 118.097656 102.523438 117.984375 102.523438 117.867188 102.410156 Z M 112.574219 83.203125 C 111.539062 84.351562 110.621094 85.617188 109.699219 86.882812 C 108.894531 88.03125 107.972656 89.414062 107.515625 90.792969 C 106.9375 92.519531 107.167969 94.472656 107.285156 96.3125 L 107.746094 102.871094 C 107.746094 103.445312 107.859375 103.90625 108.089844 104.25 C 108.203125 104.363281 108.433594 104.480469 108.550781 104.480469 C 108.664062 104.480469 108.664062 104.480469 108.78125 104.480469 C 108.78125 104.480469 108.78125 104.480469 108.78125 104.363281 C 108.203125 101.71875 108.433594 99.074219 108.550781 96.660156 C 108.894531 92.289062 109.585938 87.804688 111.886719 84.121094 C 112.117188 83.894531 112.347656 83.546875 112.574219 83.203125 Z M 118.328125 101.257812 C 118.445312 101.257812 118.558594 101.257812 118.558594 101.257812 C 119.707031 101.488281 120.628906 101.605469 121.433594 101.257812 C 122.238281 100.800781 122.585938 99.878906 122.929688 98.960938 C 123.273438 98.269531 123.503906 97.464844 124.082031 96.773438 C 122.929688 96.542969 121.894531 96.660156 121.089844 97.234375 C 120.285156 97.808594 119.707031 98.613281 119.25 99.417969 C 118.902344 99.996094 118.558594 100.683594 118.328125 101.257812 Z M 121.664062 79.40625 C 117.984375 79.40625 114.648438 82.050781 112.921875 84.8125 C 111.195312 87.6875 110.390625 91.023438 110.046875 94.359375 C 110.503906 92.75 111.195312 91.253906 112.230469 89.875 C 113.496094 88.261719 115.105469 87.113281 116.71875 85.960938 C 117.292969 85.617188 117.867188 85.15625 118.445312 84.699219 C 120.746094 82.972656 122.011719 81.246094 122.355469 79.40625 C 122.125 79.40625 121.894531 79.40625 121.664062 79.40625 Z M 121.664062 79.40625 " fill-opacity="1" fill-rule="nonzero"/><path fill="#2f2851" d="M 150.082031 197.753906 C 148.238281 197.179688 147.203125 195.453125 146.859375 193.84375 C 146.515625 192.234375 146.746094 190.738281 146.972656 189.015625 C 147.433594 186.367188 147.894531 183.722656 148.46875 181.191406 C 148.011719 180.847656 147.550781 180.503906 147.089844 180.15625 C 145.59375 179.121094 143.984375 177.972656 143.292969 176.019531 C 142.488281 173.601562 143.753906 171.070312 145.019531 169.460938 C 145.363281 168.886719 145.824219 168.425781 146.285156 167.964844 C 147.203125 166.816406 148.125 165.667969 148.699219 164.402344 C 149.390625 162.675781 149.160156 160.375 147.664062 159.457031 C 147.550781 159.339844 147.320312 159.226562 147.089844 159.226562 C 146.746094 159.109375 146.285156 158.878906 145.9375 158.535156 C 145.25 157.84375 145.019531 156.925781 145.132812 156.003906 C 142.027344 157.269531 138.691406 158.421875 135.46875 157.386719 L 135.238281 157.269531 C 134.894531 157.84375 134.320312 158.652344 133.628906 158.765625 C 133.285156 158.878906 132.824219 158.765625 132.480469 158.535156 C 131.789062 157.960938 131.902344 157.039062 131.902344 156.582031 L 132.59375 150.601562 C 133.054688 146.34375 133.746094 140.9375 136.734375 137.027344 C 137.082031 136.566406 137.539062 135.992188 138.230469 135.648438 C 139.496094 134.84375 140.878906 134.957031 142.144531 135.074219 C 142.601562 135.074219 142.949219 135.074219 143.40625 135.074219 C 144.445312 135.074219 145.480469 134.613281 146.054688 134.039062 C 146.285156 133.691406 146.398438 133.464844 146.398438 133.117188 C 145.824219 128.058594 143.753906 123.113281 140.648438 119.085938 C 140.1875 119.316406 139.726562 119.777344 139.382812 120.121094 C 139.496094 120.464844 139.496094 120.695312 139.496094 121.042969 C 139.726562 123.34375 139.035156 125.640625 138.230469 127.710938 C 138.117188 128.058594 137.769531 128.976562 136.964844 129.207031 C 136.390625 129.324219 135.816406 129.09375 135.585938 128.976562 C 132.9375 127.828125 130.523438 126.5625 129.371094 124.148438 C 128.335938 122.191406 128.566406 119.777344 128.683594 117.9375 C 128.796875 115.519531 129.027344 112.992188 129.832031 110.574219 C 130.292969 109.425781 130.753906 108.273438 131.328125 107.125 C 131.902344 105.976562 132.480469 104.824219 132.824219 103.675781 C 133.515625 101.71875 133.628906 99.535156 133.167969 97.464844 L 134.433594 97.234375 C 134.894531 99.535156 134.78125 101.949219 133.972656 104.136719 C 133.515625 105.398438 132.9375 106.550781 132.363281 107.699219 C 131.789062 108.734375 131.328125 109.886719 130.867188 110.921875 C 130.0625 113.105469 129.949219 115.636719 129.832031 117.9375 C 129.71875 119.777344 129.601562 121.847656 130.40625 123.457031 C 131.445312 125.414062 133.628906 126.5625 136.046875 127.710938 C 136.160156 127.828125 136.503906 127.941406 136.621094 127.828125 C 136.734375 127.828125 136.851562 127.597656 137.082031 127.136719 C 137.539062 125.871094 138 124.605469 138.117188 123.34375 C 137.886719 123.800781 137.425781 124.148438 136.851562 124.261719 C 136.390625 124.378906 135.816406 124.261719 135.585938 124.148438 C 132.9375 123.226562 131.214844 120.121094 131.902344 117.359375 C 132.019531 116.671875 132.363281 116.210938 132.710938 115.867188 C 133.398438 115.175781 134.433594 115.0625 135.585938 115.519531 C 137.195312 116.097656 138.230469 117.359375 138.921875 118.855469 C 139.152344 118.625 139.496094 118.394531 139.84375 118.167969 C 139.496094 117.820312 139.152344 117.359375 138.804688 117.015625 L 138.691406 116.902344 C 136.964844 115.0625 134.78125 112.761719 135.46875 110.117188 C 136.160156 107.585938 139.035156 106.664062 141.222656 106.550781 C 142.027344 106.550781 142.832031 106.550781 143.636719 106.664062 C 145.019531 106.78125 146.167969 106.894531 147.433594 106.550781 C 148.125 106.433594 148.699219 106.203125 149.390625 105.976562 C 150.3125 105.628906 151.347656 105.285156 152.382812 105.167969 C 154.453125 105.054688 156.410156 105.976562 158.019531 106.78125 C 158.710938 107.125 159.628906 107.585938 160.203125 108.503906 C 160.664062 109.308594 160.78125 110.230469 160.78125 110.921875 C 160.894531 113.449219 160.550781 115.980469 159.976562 118.511719 C 159.515625 120.464844 158.25 122.535156 156.179688 122.421875 C 155.027344 122.308594 154.222656 121.617188 153.53125 120.925781 C 153.417969 120.8125 153.1875 120.582031 153.070312 120.464844 C 152.035156 120.695312 150.769531 120.464844 149.160156 119.890625 L 148.46875 119.660156 C 146.746094 119.085938 145.019531 118.511719 143.292969 118.394531 C 142.832031 118.394531 142.257812 118.511719 141.796875 118.625 C 144.902344 122.765625 146.976562 127.828125 147.664062 133.003906 C 148.816406 132.199219 150.3125 131.738281 152.152344 131.738281 C 152.152344 131.738281 152.265625 131.738281 152.265625 131.738281 C 156.984375 131.738281 161.46875 134.152344 165.035156 136.109375 L 172.976562 140.363281 C 173.78125 140.824219 174.585938 141.628906 174.699219 142.550781 C 174.699219 143.007812 174.585938 143.46875 174.242188 143.8125 C 173.664062 144.273438 172.976562 144.273438 172.628906 144.273438 C 172.167969 144.273438 171.59375 144.160156 171.132812 144.160156 C 171.132812 144.964844 170.675781 145.65625 169.636719 146.34375 C 165.726562 148.875 161.585938 150.828125 157.097656 152.210938 C 156.179688 152.554688 155.144531 152.785156 154.222656 153.128906 C 152.613281 153.589844 150.886719 154.164062 149.160156 154.742188 C 148.355469 155.085938 147.550781 155.429688 146.746094 155.777344 C 146.285156 156.464844 146.285156 157.5 146.859375 157.960938 C 147.089844 158.191406 147.320312 158.304688 147.664062 158.421875 C 147.894531 158.535156 148.125 158.652344 148.355469 158.765625 C 150.542969 160.03125 150.886719 163.019531 149.964844 165.320312 C 149.390625 166.816406 148.355469 168.082031 147.320312 169.230469 C 146.976562 169.691406 146.515625 170.152344 146.167969 170.726562 C 145.363281 171.878906 143.984375 174.0625 144.671875 176.132812 C 145.132812 177.628906 146.515625 178.546875 148.011719 179.582031 C 148.355469 179.8125 148.699219 180.042969 149.046875 180.273438 C 150.425781 175.328125 152.613281 170.726562 156.410156 167.277344 C 162.160156 161.984375 171.25 159.914062 180.683594 161.871094 C 181.375 161.984375 183.675781 162.445312 184.132812 164.285156 C 184.363281 165.089844 184.132812 166.125 183.445312 167.160156 C 181.144531 170.84375 177.230469 172.796875 173.433594 174.867188 C 170.214844 176.59375 166.878906 178.316406 164.691406 180.964844 C 164.117188 181.652344 163.65625 182.457031 163.082031 183.148438 C 162.277344 184.296875 161.585938 185.449219 160.550781 186.367188 C 158.824219 187.980469 155.949219 189.128906 153.648438 187.75 C 152.382812 187.058594 151.804688 185.792969 151.117188 184.644531 C 150.769531 183.953125 150.425781 183.378906 149.964844 182.917969 C 149.851562 182.804688 149.734375 182.6875 149.621094 182.574219 C 149.046875 184.875 148.585938 187.289062 148.238281 189.703125 C 148.011719 191.3125 147.78125 192.695312 148.125 194.074219 C 148.46875 195.570312 149.390625 196.71875 150.542969 196.949219 Z M 149.964844 180.734375 C 150.3125 181.078125 150.65625 181.308594 150.886719 181.652344 C 151.347656 182.226562 151.804688 182.917969 152.152344 183.609375 C 152.726562 184.644531 153.300781 185.679688 154.222656 186.253906 C 155.832031 187.289062 158.132812 186.367188 159.628906 184.988281 C 160.550781 184.070312 161.238281 183.035156 161.929688 182 C 162.503906 181.191406 162.964844 180.386719 163.65625 179.699219 C 166.070312 176.824219 169.523438 174.984375 172.859375 173.257812 C 176.65625 171.300781 180.222656 169.460938 182.410156 166.011719 C 182.867188 165.207031 183.097656 164.632812 182.984375 164.171875 C 182.753906 163.480469 181.949219 163.019531 180.453125 162.675781 C 171.363281 160.835938 162.734375 162.792969 157.214844 167.851562 C 153.417969 171.1875 151.347656 175.789062 149.964844 180.734375 Z M 140.992188 136.222656 C 140.1875 136.222656 139.496094 136.339844 138.804688 136.683594 C 138.347656 136.914062 138 137.375 137.65625 137.832031 C 134.894531 141.515625 134.203125 146.6875 133.746094 150.828125 L 133.054688 156.808594 C 132.9375 157.386719 133.054688 157.5 133.167969 157.617188 C 133.398438 157.617188 133.859375 157.15625 134.089844 156.695312 C 134.320312 156.234375 134.550781 155.777344 134.664062 155.429688 C 134.664062 153.476562 135.816406 151.519531 137.539062 150.140625 C 137.539062 150.140625 137.539062 150.140625 137.65625 150.023438 C 138.578125 148.644531 140.070312 147.035156 142.027344 146 C 141.566406 146 141.105469 145.882812 140.761719 145.769531 L 140.417969 145.652344 L 140.417969 145.195312 C 140.300781 142.550781 141.335938 139.789062 143.292969 137.949219 C 143.523438 137.71875 143.753906 137.488281 143.984375 137.375 C 144.445312 137.027344 144.902344 136.566406 145.25 136.222656 C 145.25 136.222656 145.363281 136.109375 145.363281 136.109375 C 144.789062 136.339844 144.097656 136.453125 143.523438 136.453125 C 143.0625 136.453125 142.601562 136.453125 142.144531 136.453125 C 141.683594 136.222656 141.335938 136.222656 140.992188 136.222656 Z M 136.160156 156.234375 C 139.265625 157.039062 142.601562 155.777344 145.824219 154.394531 C 145.824219 154.394531 145.824219 154.28125 145.9375 154.28125 C 146.628906 153.359375 147.664062 152.785156 148.585938 152.324219 C 148.816406 152.210938 148.929688 152.09375 149.160156 151.980469 C 151 150.945312 152.726562 149.449219 154.453125 148.070312 C 155.832031 146.917969 157.214844 145.769531 158.710938 144.734375 C 160.433594 143.585938 162.621094 142.550781 164.804688 142.320312 C 163.65625 141.972656 162.503906 141.742188 161.355469 141.742188 C 158.132812 141.628906 154.914062 142.777344 152.035156 144.160156 L 151.578125 144.390625 C 150.195312 144.964844 148.816406 145.652344 147.320312 146 C 147.089844 146 146.859375 146.113281 146.628906 146.113281 C 145.25 147.496094 143.636719 148.300781 141.914062 149.105469 C 140.992188 149.566406 140.1875 150.023438 139.265625 150.484375 C 138.921875 150.714844 138.691406 150.828125 138.460938 151.058594 C 137.425781 152.554688 136.734375 154.164062 135.929688 155.777344 C 136.046875 155.890625 136.046875 156.121094 136.160156 156.234375 Z M 166.417969 143.355469 C 164 143.355469 161.355469 144.390625 159.398438 145.769531 C 157.902344 146.6875 156.636719 147.953125 155.257812 148.988281 C 153.878906 150.140625 152.496094 151.40625 150.886719 152.441406 C 151.804688 152.09375 152.84375 151.863281 153.761719 151.519531 C 154.683594 151.289062 155.71875 150.945312 156.636719 150.714844 C 160.894531 149.335938 165.035156 147.378906 168.832031 144.964844 C 169.292969 144.621094 169.523438 144.390625 169.636719 144.160156 C 168.71875 143.585938 167.566406 143.355469 166.417969 143.355469 Z M 143.984375 146.460938 C 143.0625 146.804688 142.144531 147.265625 141.335938 147.839844 C 141.335938 147.839844 141.335938 147.839844 141.453125 147.839844 C 142.371094 147.378906 143.179688 146.917969 143.984375 146.460938 Z M 147.203125 143.238281 L 146.746094 143.585938 C 146.167969 144.042969 145.480469 144.621094 144.789062 145.078125 C 145.132812 145.078125 145.363281 144.964844 145.710938 144.964844 C 145.824219 144.964844 145.9375 144.964844 146.054688 144.964844 C 146.515625 144.273438 146.859375 143.8125 147.203125 143.238281 Z M 141.566406 144.621094 C 143.0625 144.847656 144.671875 143.585938 146.054688 142.550781 L 146.398438 142.320312 C 147.089844 141.742188 147.78125 141.285156 148.585938 140.824219 C 149.621094 138.753906 150.65625 136.683594 152.726562 135.53125 C 153.648438 134.957031 154.796875 134.84375 155.71875 135.1875 C 156.292969 135.417969 156.753906 135.878906 156.984375 136.453125 C 157.328125 137.488281 156.753906 138.636719 155.949219 139.214844 C 155.257812 139.671875 154.566406 139.902344 153.878906 140.132812 L 153.648438 140.25 C 152.265625 140.59375 150.886719 141.167969 149.621094 141.972656 C 149.160156 142.894531 148.699219 143.8125 148.125 144.621094 C 149.160156 144.273438 150.195312 143.8125 151.230469 143.355469 L 151.691406 143.125 C 154.796875 141.742188 158.132812 140.363281 161.699219 140.59375 C 163.65625 140.707031 165.613281 141.285156 167.453125 141.859375 C 169.292969 142.433594 171.019531 142.894531 172.746094 143.007812 C 172.859375 143.007812 173.320312 143.007812 173.433594 142.894531 C 173.550781 142.894531 173.550781 142.777344 173.550781 142.777344 C 173.550781 142.433594 172.976562 141.859375 172.398438 141.628906 L 164.460938 137.375 C 160.78125 135.417969 156.523438 133.117188 152.152344 133.234375 C 151 133.234375 148.816406 133.464844 147.550781 134.957031 C 147.320312 135.304688 147.089844 135.648438 146.859375 135.992188 C 146.628906 136.339844 146.398438 136.796875 146.167969 137.144531 C 145.710938 137.71875 145.25 138.0625 144.789062 138.523438 C 144.558594 138.753906 144.328125 138.867188 144.097656 139.097656 C 142.488281 140.25 141.566406 142.433594 141.566406 144.621094 Z M 154.566406 136.222656 C 154.105469 136.222656 153.648438 136.339844 153.300781 136.566406 C 152.035156 137.257812 151.230469 138.410156 150.425781 139.789062 C 151.347656 139.445312 152.152344 139.097656 153.070312 138.753906 L 153.300781 138.636719 C 153.878906 138.410156 154.566406 138.292969 155.027344 137.949219 C 155.371094 137.601562 155.71875 137.144531 155.601562 136.683594 C 155.488281 136.453125 155.371094 136.339844 155.144531 136.222656 C 155.027344 136.222656 154.796875 136.222656 154.566406 136.222656 Z M 134.320312 116.441406 C 133.972656 116.441406 133.746094 116.554688 133.515625 116.671875 C 133.285156 116.785156 133.167969 117.132812 133.167969 117.476562 C 132.710938 119.660156 133.972656 122.078125 136.046875 122.882812 C 136.277344 122.996094 136.503906 122.996094 136.734375 122.996094 C 137.195312 122.882812 137.3125 122.308594 137.539062 121.386719 C 137.65625 121.15625 137.65625 120.8125 137.769531 120.582031 C 137.886719 120.351562 137.886719 120.121094 138 119.890625 C 137.539062 118.511719 136.621094 117.132812 135.125 116.554688 C 134.894531 116.554688 134.550781 116.441406 134.320312 116.441406 Z M 154.222656 119.777344 C 154.914062 120.351562 155.488281 120.925781 156.0625 121.042969 C 157.328125 121.15625 158.132812 119.546875 158.480469 118.167969 C 159.054688 115.75 159.398438 113.335938 159.285156 110.921875 C 159.285156 110.34375 159.167969 109.65625 158.9375 109.082031 C 158.59375 108.503906 157.902344 108.160156 157.214844 107.816406 C 155.71875 107.011719 153.992188 106.203125 152.265625 106.320312 C 151.347656 106.433594 150.539062 106.664062 149.621094 107.011719 C 148.929688 107.238281 148.238281 107.585938 147.550781 107.699219 C 146.167969 108.046875 144.789062 107.929688 143.40625 107.816406 C 142.601562 107.816406 141.796875 107.699219 141.105469 107.699219 C 139.152344 107.816406 137.082031 108.621094 136.621094 110.34375 C 136.046875 112.300781 137.886719 114.257812 139.496094 115.980469 L 139.613281 116.097656 C 140.070312 116.554688 140.53125 117.015625 140.878906 117.476562 C 141.683594 117.246094 142.488281 117.015625 143.179688 117.015625 C 142.371094 116.097656 142.488281 114.484375 143.179688 113.566406 C 143.867188 112.53125 144.902344 112.070312 145.824219 111.609375 C 147.320312 110.804688 149.046875 110.117188 150.769531 110.691406 C 151.460938 110.921875 151.921875 111.378906 152.382812 111.726562 C 153.300781 112.53125 154.453125 113.449219 155.144531 114.832031 C 155.832031 116.097656 155.949219 117.9375 154.796875 119.203125 C 154.683594 119.429688 154.453125 119.660156 154.222656 119.777344 Z M 149.503906 111.726562 C 148.46875 111.726562 147.433594 112.1875 146.515625 112.761719 C 145.59375 113.222656 144.789062 113.679688 144.328125 114.371094 C 143.867188 114.945312 143.753906 115.867188 144.328125 116.324219 C 144.558594 116.554688 145.019531 116.671875 145.59375 116.785156 C 146.167969 116.902344 146.746094 117.015625 147.433594 117.015625 C 149.503906 117.359375 151.691406 117.589844 153.417969 118.855469 C 153.761719 118.742188 153.992188 118.625 154.105469 118.394531 C 154.796875 117.589844 154.683594 116.324219 154.222656 115.40625 C 153.648438 114.371094 152.613281 113.449219 151.804688 112.761719 C 151.460938 112.414062 151 112.070312 150.539062 111.839844 C 150.082031 111.726562 149.851562 111.726562 149.503906 111.726562 Z M 149.503906 111.726562 " fill-opacity="1" fill-rule="nonzero"/><path fill="#2f2851" d="M 182.292969 115.175781 C 179.53125 115.175781 177 113.449219 174.699219 111.726562 C 173.433594 110.691406 172.054688 109.65625 171.019531 108.273438 C 170.214844 107.125 169.636719 105.859375 169.0625 104.59375 C 168.832031 104.25 168.71875 103.789062 168.488281 103.445312 C 166.992188 100.339844 164.921875 97.464844 162.851562 94.703125 C 160.433594 91.484375 158.019531 88.148438 156.523438 84.46875 C 156.292969 83.777344 155.949219 83.085938 155.71875 82.398438 C 155.144531 80.789062 154.566406 79.292969 153.761719 77.910156 C 152.726562 76.417969 151.347656 75.265625 150.082031 74.117188 C 149.734375 73.886719 149.503906 73.65625 149.277344 73.65625 C 148.699219 73.65625 148.46875 74.804688 148.46875 75.496094 L 148.46875 75.726562 C 148.46875 78.140625 148.355469 80.558594 147.894531 82.972656 C 147.320312 85.847656 146.054688 88.609375 144.902344 91.136719 C 144.328125 92.289062 143.867188 93.554688 143.292969 94.703125 C 141.453125 99.417969 141.105469 103.328125 142.371094 106.433594 C 142.488281 106.664062 142.71875 106.894531 142.832031 107.011719 C 142.832031 107.011719 142.71875 107.011719 142.71875 107.011719 L 143.753906 107.816406 C 143.523438 108.160156 143.179688 108.273438 142.71875 108.273438 C 142.027344 108.160156 141.453125 107.585938 141.222656 107.011719 C 139.84375 103.558594 140.1875 99.417969 142.144531 94.359375 C 142.601562 93.09375 143.179688 91.945312 143.753906 90.679688 C 144.902344 88.148438 146.167969 85.503906 146.746094 82.742188 C 147.203125 80.441406 147.320312 78.027344 147.320312 75.726562 L 147.320312 75.496094 C 147.320312 73.65625 148.238281 72.390625 149.390625 72.507812 C 150.082031 72.507812 150.65625 72.964844 151 73.3125 C 152.382812 74.578125 153.878906 75.839844 154.914062 77.453125 C 155.949219 78.945312 156.523438 80.558594 157.097656 82.167969 C 157.328125 82.859375 157.558594 83.546875 157.902344 84.238281 C 159.398438 87.917969 161.816406 91.136719 164.117188 94.242188 C 166.1875 97.003906 168.371094 99.996094 169.867188 103.214844 C 170.097656 103.675781 170.214844 104.019531 170.445312 104.480469 C 171.019531 105.746094 171.480469 106.894531 172.285156 107.929688 C 173.203125 109.195312 174.46875 110.117188 175.734375 111.152344 C 178.152344 112.992188 180.453125 114.601562 182.984375 114.371094 C 184.710938 114.257812 186.433594 113.222656 188.046875 111.378906 C 188.964844 110.34375 189.769531 109.195312 190.460938 108.046875 C 190.921875 107.46875 191.265625 106.78125 191.726562 106.203125 C 193.796875 103.214844 196.328125 100.800781 199.320312 98.730469 L 199.433594 98.613281 C 199.894531 98.269531 200.355469 97.925781 200.699219 97.578125 C 201.160156 96.890625 201.160156 95.738281 200.585938 94.820312 C 200.125 94.015625 199.320312 93.324219 198.054688 92.632812 C 195.292969 91.136719 192.074219 90.449219 188.851562 90.792969 C 187.585938 90.910156 186.203125 91.253906 184.941406 91.597656 C 182.523438 92.171875 179.992188 92.75 177.460938 92.289062 C 176.3125 92.058594 174.929688 91.367188 174.355469 90.21875 C 174.011719 89.527344 173.894531 88.839844 174.242188 88.148438 C 174.46875 87.6875 174.816406 87.226562 175.277344 86.882812 C 176.886719 85.617188 178.957031 85.386719 180.914062 85.15625 L 181.832031 85.042969 C 184.480469 84.699219 186.203125 83.894531 186.894531 82.511719 L 188.046875 83.085938 C 187.125 84.8125 185.167969 85.847656 182.0625 86.308594 L 181.144531 86.421875 C 179.300781 86.652344 177.460938 86.882812 176.082031 87.917969 C 175.734375 88.148438 175.503906 88.378906 175.390625 88.722656 C 175.277344 89.066406 175.277344 89.296875 175.503906 89.644531 C 175.851562 90.332031 176.886719 90.910156 177.808594 91.136719 C 180.109375 91.597656 182.292969 91.023438 184.710938 90.449219 C 185.976562 90.101562 187.355469 89.875 188.734375 89.644531 C 192.074219 89.296875 195.640625 89.988281 198.628906 91.597656 C 200.011719 92.402344 201.046875 93.207031 201.621094 94.242188 C 202.425781 95.625 202.425781 97.234375 201.621094 98.382812 C 201.160156 98.960938 200.585938 99.417969 200.011719 99.765625 L 199.894531 99.878906 C 197.019531 101.835938 194.601562 104.25 192.53125 107.011719 C 192.074219 107.585938 191.726562 108.273438 191.265625 108.851562 C 190.460938 110 189.65625 111.265625 188.734375 112.414062 C 187.46875 113.796875 185.515625 115.519531 182.867188 115.75 C 182.753906 115.175781 182.523438 115.175781 182.292969 115.175781 Z M 182.292969 115.175781 " fill-opacity="1" fill-rule="nonzero"/><path fill="#2f2851" d="M 201.851562 333.125 C 181.375 333.125 161.011719 325.878906 145.363281 312.765625 C 143.753906 311.386719 142.144531 309.890625 140.53125 308.511719 C 135.355469 303.910156 130.0625 299.082031 123.503906 296.78125 C 118.671875 295.054688 113.382812 294.941406 108.320312 294.710938 C 105.902344 294.59375 103.371094 294.480469 100.957031 294.25 C 89.566406 293.101562 78.636719 288.269531 70.007812 280.910156 L 68.972656 281.140625 L 69.78125 279.875 C 73.921875 272.859375 81.972656 269.984375 89.683594 267.222656 C 90.601562 266.878906 91.523438 266.53125 92.441406 266.1875 C 104.0625 261.933594 114.992188 255.605469 125.578125 249.511719 C 133.285156 245.140625 140.417969 240.539062 143.0625 233.179688 C 144.214844 230.1875 144.445312 226.96875 144.671875 223.746094 L 146.746094 196.488281 L 148.011719 196.605469 L 145.9375 223.863281 C 145.710938 227.082031 145.480469 230.417969 144.328125 233.640625 C 141.453125 241.34375 134.203125 246.058594 126.265625 250.660156 C 115.683594 256.757812 104.636719 263.082031 93.019531 267.335938 C 92.097656 267.683594 91.175781 268.027344 90.257812 268.371094 C 83.238281 270.902344 75.992188 273.433594 71.851562 279.183594 C 90.027344 274.8125 108.78125 272.628906 127.417969 272.628906 C 127.53125 272.628906 127.53125 272.628906 127.648438 272.628906 C 134.203125 272.628906 142.027344 272.859375 149.503906 274.699219 C 151.921875 275.273438 154.335938 276.078125 156.636719 276.769531 C 160.089844 277.804688 163.65625 278.953125 167.335938 279.527344 C 174.929688 280.679688 182.867188 279.414062 189.65625 275.847656 C 190 275.617188 190.460938 275.503906 190.808594 275.273438 C 189.425781 274.007812 187.929688 272.859375 186.320312 271.9375 C 183.328125 270.097656 179.878906 268.832031 176.542969 267.683594 C 174.699219 266.992188 172.859375 266.417969 171.132812 265.613281 C 164.578125 262.851562 160.433594 259.054688 158.710938 254.457031 C 157.558594 251.351562 157.902344 247.671875 159.746094 244.679688 C 161.125 242.378906 163.195312 240.882812 165.613281 240.539062 C 169.636719 239.964844 174.011719 242.609375 177.117188 247.671875 C 177.921875 248.820312 178.613281 250.085938 179.1875 251.351562 C 180.683594 254.109375 182.179688 256.871094 184.480469 258.828125 C 185.628906 259.863281 186.894531 260.667969 188.277344 261.472656 C 190.347656 262.738281 192.417969 264.003906 193.914062 266.074219 C 194.601562 266.992188 195.0625 268.027344 195.292969 269.175781 C 195.867188 272.054688 194.601562 274.007812 192.992188 275.386719 C 194.71875 277 196.328125 278.722656 197.941406 280.449219 C 205.878906 289.074219 214.160156 297.929688 221.0625 307.820312 C 221.292969 308.167969 221.640625 308.398438 221.867188 308.625 C 222.445312 308.972656 222.90625 308.742188 223.480469 307.9375 C 226.472656 304.027344 228.195312 298.964844 228.65625 292.523438 C 227.734375 289.996094 226.929688 287.351562 226.242188 284.703125 C 225.320312 281.367188 224.285156 277.804688 222.90625 274.582031 C 221.523438 271.476562 219.796875 268.371094 218.074219 265.382812 C 213.585938 257.5625 208.984375 249.511719 211.398438 240.882812 C 212.320312 237.433594 214.390625 235.019531 217.035156 234.445312 C 218.074219 234.214844 219.222656 234.214844 220.375 234.445312 C 225.550781 235.710938 228.542969 241.113281 229.117188 245.945312 C 229.578125 249.28125 229.117188 252.730469 228.773438 256.066406 C 228.542969 257.5625 228.425781 259.171875 228.3125 260.78125 C 227.964844 265.957031 228.542969 271.363281 229.230469 276.421875 C 229.578125 279.183594 229.921875 282.175781 230.039062 284.933594 C 230.152344 287.578125 230.265625 289.996094 230.039062 292.296875 C 230.382812 293.214844 230.726562 294.25 231.1875 295.171875 C 231.992188 297.011719 233.027344 297.929688 234.0625 297.929688 C 234.753906 297.929688 235.558594 297.472656 236.132812 297.011719 C 241.3125 293.101562 244.878906 286.542969 246.027344 278.492188 C 247.0625 271.246094 246.257812 263.886719 245.339844 256.757812 L 239.242188 205 C 238.320312 197.640625 237.515625 190.050781 238.320312 182.457031 C 238.664062 179.582031 239.242188 176.707031 239.929688 173.832031 L 239.125 170.382812 C 238.089844 165.4375 237.054688 158.996094 239.125 154.164062 C 239.585938 153.128906 240.621094 152.554688 241.773438 152.671875 C 242.921875 152.898438 243.726562 153.820312 243.84375 154.96875 C 244.1875 160.722656 242.921875 166.472656 241.542969 172.222656 C 241.425781 172.796875 241.3125 173.371094 241.195312 173.949219 L 251.320312 220.871094 C 253.507812 231.109375 255.808594 241.574219 260.984375 250.890625 C 266.964844 261.816406 276.746094 270.558594 288.363281 275.160156 C 289.859375 275.734375 291.472656 276.308594 293.082031 276.882812 C 297.109375 278.261719 301.136719 279.757812 304.703125 282.289062 C 309.535156 285.855469 313.214844 292.640625 310.453125 298.390625 C 309.535156 300.230469 308.152344 301.726562 306.773438 303.222656 C 305.738281 304.257812 304.703125 305.40625 303.894531 306.671875 C 302.515625 308.742188 301.941406 311.273438 301.363281 313.800781 C 300.558594 316.792969 299.871094 320.011719 297.796875 322.429688 C 292.621094 328.410156 282.957031 326.800781 276.628906 325.765625 C 266.964844 324.152344 258.566406 323.695312 250.976562 324.5 C 244.300781 325.1875 237.628906 326.914062 231.300781 328.523438 C 226.242188 329.789062 220.949219 331.167969 215.65625 332.089844 C 210.941406 332.78125 206.453125 333.125 201.851562 333.125 Z M 71.621094 280.449219 C 80.019531 287.351562 90.371094 291.835938 101.1875 292.871094 C 103.601562 293.101562 106.132812 293.214844 108.433594 293.332031 C 113.613281 293.558594 119.019531 293.789062 123.964844 295.515625 C 130.753906 297.929688 136.160156 302.761719 141.335938 307.476562 C 142.832031 308.855469 144.445312 310.351562 146.054688 311.730469 C 164.921875 327.605469 190.808594 334.734375 215.082031 330.824219 C 220.257812 330.019531 225.550781 328.640625 230.613281 327.257812 C 237.054688 325.535156 243.726562 323.808594 250.515625 323.117188 C 258.222656 322.3125 266.621094 322.773438 276.515625 324.382812 C 284.222656 325.765625 292.160156 326.570312 296.535156 321.507812 C 298.375 319.324219 299.179688 316.449219 299.871094 313.457031 C 300.558594 310.925781 301.136719 308.28125 302.628906 305.980469 C 303.4375 304.601562 304.585938 303.453125 305.621094 302.417969 C 307.003906 301.035156 308.269531 299.65625 309.074219 297.929688 C 311.488281 292.753906 308.152344 286.542969 303.667969 283.324219 C 300.328125 280.910156 296.304688 279.414062 292.390625 278.035156 C 290.78125 277.457031 289.171875 276.882812 287.675781 276.308594 C 275.824219 271.476562 265.816406 262.621094 259.71875 251.464844 C 254.542969 242.035156 252.242188 231.339844 249.941406 221.101562 L 240.390625 176.9375 C 239.929688 178.894531 239.585938 180.847656 239.355469 182.804688 C 238.433594 190.164062 239.355469 197.753906 240.277344 205 L 246.375 256.757812 C 247.179688 264.003906 248.097656 271.476562 247.0625 278.839844 C 245.796875 287.234375 242.117188 294.019531 236.710938 298.160156 C 235.90625 298.734375 234.984375 299.3125 233.949219 299.3125 C 232.339844 299.3125 231.074219 298.160156 229.921875 295.746094 C 229.808594 295.515625 229.691406 295.285156 229.691406 295.171875 C 229 300.691406 227.277344 305.175781 224.398438 308.742188 C 223.941406 309.316406 222.90625 310.695312 221.179688 309.890625 C 220.71875 309.660156 220.257812 309.316406 219.796875 308.742188 C 213.011719 298.964844 204.726562 290.109375 196.789062 281.484375 C 195.179688 279.757812 193.453125 277.917969 191.726562 276.308594 C 191.265625 276.652344 190.691406 276.882812 190.230469 277.113281 C 183.214844 280.792969 174.929688 282.058594 167.109375 280.910156 C 163.425781 280.332031 159.746094 279.183594 156.179688 278.035156 C 153.878906 277.34375 151.578125 276.539062 149.160156 275.964844 C 141.796875 274.125 134.089844 273.894531 127.53125 273.894531 C 127.417969 273.894531 127.417969 273.894531 127.300781 273.894531 C 108.664062 273.894531 89.914062 276.078125 71.621094 280.449219 Z M 218.417969 235.59375 C 217.957031 235.59375 217.496094 235.59375 217.152344 235.710938 C 215.082031 236.285156 213.242188 238.355469 212.433594 241.34375 C 210.25 249.394531 214.507812 256.988281 218.992188 264.921875 C 220.71875 267.914062 222.558594 271.132812 223.824219 274.238281 C 225.320312 277.574219 226.242188 281.140625 227.277344 284.472656 C 227.734375 285.96875 228.082031 287.464844 228.65625 288.960938 C 228.65625 287.695312 228.65625 286.429688 228.542969 285.050781 C 228.3125 282.175781 228.082031 279.296875 227.734375 276.539062 C 227.160156 271.363281 226.472656 265.957031 226.816406 260.667969 C 226.929688 259.054688 227.046875 257.445312 227.277344 255.953125 C 227.621094 252.730469 228.082031 249.394531 227.621094 246.175781 C 227.046875 241.691406 224.398438 236.746094 219.796875 235.710938 C 219.339844 235.59375 218.878906 235.59375 218.417969 235.59375 Z M 166.648438 241.804688 C 166.300781 241.804688 165.957031 241.804688 165.726562 241.917969 C 163.769531 242.148438 161.929688 243.414062 160.78125 245.484375 C 159.285156 248.015625 158.9375 251.464844 159.859375 254.109375 C 161.46875 258.367188 165.382812 261.933594 171.59375 264.460938 C 173.320312 265.152344 175.160156 265.84375 177 266.53125 C 180.335938 267.796875 183.902344 268.949219 187.011719 270.902344 C 188.734375 271.9375 190.460938 273.316406 191.957031 274.699219 C 193.453125 273.546875 194.488281 271.9375 194.027344 269.636719 C 193.796875 268.71875 193.453125 267.796875 192.878906 267.109375 C 191.496094 265.265625 189.65625 264.003906 187.585938 262.738281 C 186.203125 261.933594 184.824219 261.011719 183.675781 259.976562 C 181.257812 257.792969 179.648438 254.917969 178.152344 252.15625 C 177.460938 251.003906 176.769531 249.742188 176.082031 248.589844 C 174.929688 246.75 171.480469 241.804688 166.648438 241.804688 Z M 241.3125 154.050781 C 240.851562 154.050781 240.507812 154.28125 240.277344 154.742188 C 238.433594 159.339844 239.355469 165.4375 240.390625 170.152344 L 240.621094 170.957031 C 241.886719 165.667969 243.039062 160.261719 242.691406 155.085938 C 242.691406 154.394531 242.117188 154.050781 241.65625 153.933594 C 241.425781 154.050781 241.3125 154.050781 241.3125 154.050781 Z M 241.3125 154.050781 " fill-opacity="1" fill-rule="nonzero"/><g clip-path="url(#eca17c5507)"><path fill="#2f2851" d="M 126.613281 515.648438 C 124.769531 515.648438 122.929688 515.535156 120.972656 515.417969 C 108.894531 514.269531 98.769531 508.980469 93.132812 500.929688 C 90.027344 496.441406 88.300781 491.152344 86.691406 485.976562 C 85.308594 481.722656 83.929688 477.351562 81.742188 473.441406 C 77.71875 466.308594 70.929688 461.019531 64.488281 455.957031 C 60.34375 452.738281 56.089844 449.402344 52.40625 445.492188 C 45.621094 438.246094 41.019531 429.390625 36.644531 420.765625 L 9.035156 367.054688 C 6.042969 361.1875 2.59375 354.402344 1.902344 347.269531 C 1.210938 339.105469 3.972656 330.132812 10.417969 320.589844 C 21.921875 303.335938 39.984375 290.339844 60.117188 285.050781 L 60.460938 286.316406 C 40.671875 291.605469 22.839844 304.371094 11.566406 321.394531 C 5.355469 330.710938 2.59375 339.335938 3.285156 347.269531 C 3.859375 354.171875 7.308594 360.84375 10.300781 366.59375 L 37.910156 420.304688 C 42.285156 428.816406 46.769531 437.671875 53.441406 444.800781 C 57.007812 448.597656 61.265625 451.933594 65.292969 455.152344 C 71.851562 460.328125 78.636719 465.617188 82.894531 472.980469 C 85.195312 477.003906 86.574219 481.492188 87.957031 485.746094 C 89.566406 490.808594 91.175781 495.980469 94.167969 500.351562 C 99.574219 508.171875 109.355469 513.234375 121.089844 514.382812 C 131.671875 515.417969 142.257812 513.234375 152.496094 511.164062 C 155.371094 510.589844 158.25 509.785156 159.746094 507.597656 C 161.125 505.414062 160.664062 502.421875 159.976562 499.546875 C 158.132812 491.726562 156.179688 483.445312 153.761719 475.28125 C 151.804688 474.820312 149.851562 474.359375 148.011719 473.785156 C 140.417969 471.714844 131.902344 468.953125 126.496094 462.398438 C 119.132812 453.542969 120.167969 440.890625 125 429.851562 C 124.65625 429.621094 124.425781 429.390625 124.082031 429.160156 C 116.601562 423.0625 108.78125 416.855469 106.019531 407.652344 C 105.328125 405.238281 104.984375 402.59375 104.636719 400.175781 C 104.292969 397.53125 103.949219 394.886719 103.140625 392.355469 C 101.761719 387.984375 98.886719 384.191406 96.238281 380.507812 C 94.859375 378.667969 93.480469 376.828125 92.328125 374.988281 C 88.875 369.582031 86.691406 363.601562 85.082031 357.390625 C 80.019531 350.605469 75.1875 343.589844 71.851562 335.769531 C 70.238281 331.859375 69.203125 328.0625 69.089844 324.613281 C 68.972656 321.96875 70.816406 320.359375 72.65625 320.011719 C 74.496094 319.667969 76.796875 320.359375 77.71875 322.773438 C 80.363281 329.558594 81.859375 336.921875 83.355469 344.164062 C 84.273438 348.421875 85.082031 352.675781 86.230469 356.816406 C 87.265625 358.199219 88.300781 359.578125 89.222656 360.84375 C 94.742188 368.203125 100.496094 375.792969 104.523438 384.191406 C 106.480469 388.214844 107.972656 392.355469 109.585938 396.496094 C 112.117188 403.167969 114.648438 410.183594 118.789062 416.046875 C 121.203125 419.5 124.195312 422.605469 127.070312 425.59375 C 127.992188 423.871094 129.144531 422.144531 130.179688 420.535156 C 142.949219 402.246094 164 387.871094 192.53125 377.863281 C 206.335938 373.035156 220.71875 369.46875 234.640625 366.019531 C 244.992188 363.488281 255.808594 360.726562 266.160156 357.621094 C 275.019531 354.976562 284.222656 351.640625 291.929688 346.007812 C 300.214844 339.910156 305.507812 331.515625 306.425781 323.003906 C 306.65625 321.277344 306.65625 319.554688 306.65625 317.828125 C 306.65625 314.953125 306.65625 312.078125 307.460938 309.316406 C 309.417969 301.957031 316.667969 296.089844 325.410156 294.59375 C 332.3125 293.445312 339.789062 294.710938 348.992188 298.390625 C 360.039062 302.875 366.824219 308.855469 369.242188 316.21875 C 369.472656 316.792969 369.585938 317.484375 369.816406 318.058594 C 370.390625 320.242188 370.96875 322.3125 372.578125 323.695312 C 373.382812 324.382812 374.304688 324.730469 375.339844 325.1875 C 376.257812 325.535156 377.296875 325.992188 378.214844 326.683594 C 381.4375 329.097656 381.78125 333.355469 381.667969 337.726562 L 378.90625 473.324219 C 378.789062 476.085938 378.789062 479.652344 376.949219 482.410156 C 375.453125 484.710938 373.039062 485.976562 370.851562 487.125 L 335.992188 506.101562 C 334.726562 506.792969 331.621094 508.519531 329.207031 506.910156 C 298.027344 494.027344 261.558594 490.117188 226.242188 486.207031 C 210.132812 484.480469 193.683594 482.640625 177.691406 479.996094 C 175.734375 483.214844 174.699219 487.472656 174.46875 493.222656 C 174.355469 494.945312 173.433594 496.441406 171.824219 497.246094 C 170.328125 498.050781 168.488281 497.824219 167.109375 496.902344 C 163.082031 494.027344 160.550781 490 159.167969 487.125 C 158.480469 485.746094 157.902344 484.367188 157.445312 482.984375 C 158.824219 488.390625 160.089844 493.796875 161.355469 499.085938 C 162.046875 502.191406 162.621094 505.527344 161.011719 508.058594 C 159.285156 510.703125 156.0625 511.507812 152.957031 512.199219 C 144.328125 513.925781 135.46875 515.648438 126.613281 515.648438 Z M 325.292969 406.273438 C 325.984375 409.722656 326.789062 413.289062 327.59375 416.625 C 329.320312 423.984375 331.046875 431.460938 331.621094 439.050781 C 332.542969 449.632812 331.277344 460.445312 330.125 470.792969 C 328.859375 481.375 327.59375 492.300781 328.628906 503 C 328.746094 503.804688 328.976562 504.492188 329.320312 505.066406 C 330.472656 506.5625 332.3125 506.5625 335.417969 504.839844 L 370.277344 485.859375 C 372.347656 484.710938 374.648438 483.5625 375.914062 481.492188 C 377.523438 479.074219 377.640625 475.738281 377.640625 473.09375 L 380.515625 337.148438 C 380.632812 333.125 380.285156 329.214844 377.640625 327.144531 C 376.835938 326.570312 376.03125 326.222656 375.109375 325.878906 C 374.074219 325.417969 372.921875 324.957031 372.003906 324.269531 C 370.160156 322.660156 369.472656 320.359375 368.78125 318.058594 C 368.550781 317.484375 368.4375 316.792969 368.207031 316.21875 C 365.90625 309.203125 359.347656 303.453125 348.648438 299.195312 C 339.675781 295.515625 332.425781 294.367188 325.753906 295.402344 C 318.851562 296.550781 310.914062 301.265625 308.726562 309.203125 C 308.039062 311.847656 308.039062 314.609375 308.039062 317.484375 C 308.039062 319.207031 308.039062 321.046875 307.808594 322.773438 C 306.886719 331.628906 301.363281 340.371094 292.738281 346.695312 C 284.914062 352.445312 275.59375 355.78125 266.621094 358.542969 C 256.152344 361.761719 245.453125 364.40625 234.984375 366.9375 C 221.0625 370.390625 206.683594 373.953125 192.992188 378.785156 C 164.691406 388.789062 143.984375 402.9375 131.328125 420.996094 C 130.179688 422.605469 129.027344 424.445312 128.105469 426.285156 C 129.832031 428.011719 131.558594 429.851562 133.285156 431.804688 C 138 437.210938 141.914062 443.191406 145.132812 449.402344 C 148.929688 455.269531 152.035156 461.59375 154.105469 468.265625 C 154.683594 470.21875 155.257812 472.175781 155.832031 474.128906 C 155.832031 474.128906 155.832031 474.246094 155.832031 474.246094 C 162.734375 475.855469 169.753906 477.234375 177 478.5 C 177.578125 477.582031 178.265625 476.773438 179.070312 475.96875 C 187.46875 467.804688 201.046875 471.601562 211.976562 474.589844 L 212.894531 474.820312 C 223.363281 477.695312 234.179688 479.304688 245.109375 479.535156 C 245.914062 479.535156 246.71875 479.421875 247.410156 479.191406 C 250.976562 478.039062 251.894531 474.703125 250.171875 468.496094 L 240.160156 431.574219 C 237.285156 430.539062 234.292969 429.734375 231.417969 429.046875 L 206.222656 422.835938 C 200.816406 421.453125 194.601562 419.960938 190 416.046875 C 185.628906 412.367188 182.523438 405.351562 185.515625 399.71875 C 188.390625 394.3125 195.410156 392.242188 206.683594 393.507812 C 216.117188 394.542969 225.089844 396.035156 230.84375 402.476562 C 234.640625 406.734375 236.25 412.484375 237.628906 417.542969 L 241.195312 430.539062 C 243.613281 431.460938 245.914062 432.726562 247.984375 434.335938 C 255 439.972656 257.304688 449.058594 259.488281 457.914062 C 260.179688 460.558594 260.871094 463.203125 261.558594 465.734375 C 263.976562 473.554688 268.003906 481.03125 273.292969 487.355469 C 274.445312 488.738281 276.171875 489.542969 278.011719 489.425781 C 279.851562 489.3125 281.460938 488.390625 282.613281 486.894531 C 288.363281 478.617188 291.585938 468.496094 294.808594 458.601562 C 298.027344 448.480469 301.480469 438.132812 307.460938 429.390625 C 309.304688 426.746094 311.257812 424.328125 313.328125 421.914062 C 315.402344 419.382812 317.585938 416.738281 319.425781 413.976562 C 321.152344 411.332031 322.648438 408.6875 323.800781 405.8125 C 323.453125 403.855469 323.109375 401.902344 322.761719 400.0625 C 322.648438 399.027344 322.648438 397.761719 322.992188 396.496094 C 323.339844 395 324.71875 394.542969 325.871094 394.769531 C 327.019531 395 328.054688 396.152344 327.710938 397.648438 C 327.25 400.753906 326.328125 403.511719 325.292969 406.273438 Z M 178.496094 478.84375 C 194.257812 481.492188 210.480469 483.214844 226.355469 484.941406 C 260.984375 488.738281 296.761719 492.648438 327.59375 504.953125 C 327.367188 504.492188 327.25 503.917969 327.25 503.34375 C 326.214844 492.53125 327.480469 481.492188 328.746094 470.792969 C 329.894531 460.445312 331.160156 449.746094 330.242188 439.28125 C 329.667969 431.804688 327.941406 424.214844 326.214844 416.96875 C 325.523438 414.09375 324.949219 411.21875 324.257812 408.34375 C 323.222656 410.644531 321.957031 412.941406 320.460938 415.128906 C 318.621094 418.003906 316.4375 420.648438 314.25 423.179688 C 312.292969 425.59375 310.222656 428.011719 308.496094 430.539062 C 302.628906 439.167969 299.292969 449.515625 295.957031 459.410156 C 292.738281 469.300781 289.402344 479.535156 283.648438 487.929688 C 282.382812 489.773438 280.3125 490.921875 278.125 491.035156 C 275.941406 491.152344 273.871094 490.230469 272.375 488.507812 C 266.964844 482.066406 262.824219 474.359375 260.410156 466.425781 C 259.605469 463.894531 258.914062 461.132812 258.222656 458.488281 C 256.039062 449.863281 253.851562 441.007812 247.179688 435.601562 C 245.453125 434.21875 243.613281 433.183594 241.542969 432.265625 L 251.320312 468.265625 C 252.011719 470.792969 254.082031 478.5 247.640625 480.457031 C 246.832031 480.6875 245.914062 480.800781 244.878906 480.800781 C 233.949219 480.570312 223.019531 478.960938 212.433594 476.085938 L 211.515625 475.855469 C 200.355469 472.75 187.699219 469.183594 179.761719 476.890625 C 179.53125 477.464844 178.957031 478.15625 178.496094 478.84375 Z M 156.292969 475.738281 C 157.328125 479.421875 158.480469 483.101562 160.203125 486.550781 C 161.585938 489.3125 164 493.105469 167.796875 495.867188 C 168.832031 496.558594 170.097656 496.671875 171.25 496.097656 C 172.398438 495.523438 173.089844 494.488281 173.203125 493.105469 C 173.433594 488.964844 174.011719 483.90625 176.425781 479.652344 C 169.523438 478.617188 162.851562 477.234375 156.292969 475.738281 Z M 126.035156 430.539062 C 121.433594 441.121094 120.515625 452.96875 127.53125 461.363281 C 132.710938 467.6875 140.992188 470.335938 148.46875 472.40625 C 150.082031 472.863281 151.804688 473.324219 153.53125 473.667969 C 151.117188 465.617188 148.125 457.566406 144.214844 449.976562 C 140.417969 444.113281 135.816406 438.707031 130.523438 434.105469 C 128.914062 432.957031 127.53125 431.691406 126.035156 430.539062 Z M 126.613281 429.390625 C 128.105469 430.65625 129.71875 431.921875 131.214844 433.183594 C 133.746094 435.484375 136.160156 437.902344 138.460938 440.429688 C 136.621094 437.671875 134.550781 435.027344 132.363281 432.609375 C 130.867188 430.886719 129.144531 429.160156 127.53125 427.433594 C 127.1875 428.125 126.839844 428.699219 126.613281 429.390625 Z M 200.816406 394.65625 C 193.566406 394.65625 188.851562 396.613281 186.78125 400.636719 C 184.019531 405.699219 186.894531 412.023438 190.921875 415.359375 C 195.410156 419.039062 201.390625 420.535156 206.683594 421.800781 L 231.878906 428.011719 C 234.410156 428.699219 237.171875 429.273438 239.929688 430.308594 L 236.59375 418.117188 C 235.214844 413.171875 233.71875 407.539062 230.152344 403.511719 C 224.746094 397.417969 216 395.921875 206.796875 394.886719 C 204.613281 394.769531 202.65625 394.65625 200.816406 394.65625 Z M 87.265625 359.921875 C 88.761719 364.867188 90.71875 369.582031 93.480469 373.953125 C 94.628906 375.792969 96.007812 377.632812 97.390625 379.476562 C 100.152344 383.269531 103.027344 387.066406 104.523438 391.664062 C 105.328125 394.3125 105.671875 397.070312 106.019531 399.71875 C 106.363281 402.132812 106.59375 404.664062 107.285156 407.078125 C 109.929688 415.933594 117.523438 422.027344 124.886719 428.011719 C 125.117188 428.238281 125.347656 428.355469 125.578125 428.585938 C 125.921875 427.894531 126.265625 427.203125 126.613281 426.515625 C 123.621094 423.410156 120.515625 420.1875 117.867188 416.625 C 113.613281 410.644531 110.964844 403.628906 108.433594 396.839844 C 106.9375 392.816406 105.328125 388.5625 103.488281 384.648438 C 99.460938 376.371094 93.824219 368.777344 88.300781 361.417969 C 87.957031 360.957031 87.609375 360.382812 87.265625 359.921875 Z M 325.410156 396.265625 C 324.949219 396.265625 324.488281 396.496094 324.375 397.070312 C 324.144531 398.105469 324.027344 399.140625 324.144531 400.0625 C 324.375 401.328125 324.488281 402.59375 324.71875 403.855469 C 325.410156 401.785156 326.101562 399.71875 326.558594 397.648438 C 326.789062 396.839844 326.214844 396.382812 325.753906 396.265625 C 325.640625 396.265625 325.523438 396.265625 325.410156 396.265625 Z M 73.574219 320.933594 C 73.347656 320.933594 73.117188 320.933594 72.886719 321.046875 C 71.503906 321.277344 70.238281 322.429688 70.355469 324.382812 C 70.46875 327.605469 71.390625 331.398438 73 335.078125 C 75.875 341.75 79.902344 347.960938 84.273438 353.941406 C 83.46875 350.722656 82.78125 347.5 82.089844 344.28125 C 80.59375 337.148438 79.097656 329.789062 76.453125 323.117188 C 75.875 321.394531 74.726562 320.933594 73.574219 320.933594 Z M 73.574219 320.933594 " fill-opacity="1" fill-rule="nonzero"/></g><path fill="#2f2851" d="M 58.222656 285.597656 L 72.441406 278.035156 L 73.035156 279.152344 L 58.816406 286.714844 Z M 58.222656 285.597656 " fill-opacity="1" fill-rule="nonzero"/><path fill="#2f2851" d="M 258.222656 87.6875 C 257.648438 87.6875 257.074219 87.574219 256.613281 87.226562 L 256.496094 87.113281 L 257.1875 86.078125 L 257.304688 86.191406 C 257.992188 86.652344 258.796875 86.421875 259.257812 86.078125 C 259.71875 85.734375 260.0625 85.042969 259.832031 84.121094 C 259.488281 82.972656 258.914062 81.824219 258.453125 80.789062 C 258.222656 80.328125 258.109375 79.867188 257.878906 79.40625 C 254.773438 71.816406 253.160156 63.878906 252.929688 55.714844 C 252.929688 55.023438 252.472656 54.335938 251.894531 53.875 C 251.320312 53.53125 250.628906 53.53125 249.941406 53.757812 L 249.363281 54.105469 L 249.019531 53.53125 C 244.304688 43.292969 238.664062 33.402344 232.339844 23.972656 C 231.878906 23.28125 231.074219 22.820312 230.265625 22.707031 C 229.921875 22.707031 229.808594 22.707031 229.578125 22.820312 C 232.222656 24.890625 234.410156 27.421875 235.097656 31.21875 C 235.789062 34.78125 233.949219 38.460938 230.726562 39.726562 C 226.816406 41.339844 223.363281 39.039062 220.144531 36.851562 C 218.1875 35.585938 216.230469 34.207031 214.160156 33.632812 C 210.824219 32.710938 207.144531 33.746094 203.691406 34.78125 C 200.816406 35.585938 197.941406 36.507812 195.0625 36.277344 C 194.71875 37.542969 193.796875 38.578125 192.648438 39.269531 C 192.417969 39.382812 192.1875 39.496094 191.957031 39.613281 C 194.601562 39.152344 197.25 38.691406 200.011719 38.921875 C 207.027344 39.382812 213.699219 43.984375 216.578125 50.425781 C 217.84375 53.183594 218.417969 56.75 219.109375 60.546875 C 220.027344 66.296875 221.0625 72.277344 224.628906 75.152344 L 223.824219 76.1875 C 219.914062 72.964844 218.878906 66.871094 217.84375 60.890625 C 217.265625 57.210938 216.691406 53.757812 215.425781 51.113281 C 212.664062 45.132812 206.453125 40.761719 199.894531 40.417969 C 196.675781 40.1875 193.335938 40.878906 190.117188 41.566406 C 188.851562 41.796875 187.585938 42.027344 186.320312 42.257812 C 186.203125 42.257812 185.976562 42.257812 185.859375 42.375 C 184.824219 42.71875 183.902344 43.0625 182.867188 43.292969 C 179.761719 44.214844 176.65625 45.25 173.78125 46.628906 C 169.636719 48.8125 165.957031 52.035156 162.503906 55.253906 C 158.25 59.050781 153.878906 63.074219 148.46875 65.144531 C 144.214844 66.753906 139.496094 66.984375 134.894531 67.332031 C 128.222656 67.789062 121.894531 68.136719 117.179688 72.277344 C 115.222656 74 113.613281 76.300781 112.117188 78.488281 C 111.195312 79.867188 110.273438 81.246094 109.238281 82.511719 C 108.320312 83.546875 106.9375 84.007812 105.558594 83.546875 C 104.179688 83.085938 103.371094 81.9375 103.257812 80.558594 C 103.257812 79.636719 103.140625 78.71875 103.027344 77.796875 C 102.796875 75.152344 102.453125 72.390625 103.140625 69.746094 C 104.0625 66.296875 106.480469 63.535156 108.78125 60.773438 L 109.355469 60.085938 C 115.453125 52.953125 120.628906 45.019531 124.539062 36.507812 C 125.691406 33.976562 128.105469 27.765625 124.425781 24.777344 C 123.503906 24.085938 122.238281 23.625 120.628906 23.394531 C 118.097656 23.050781 114.878906 23.625 113.382812 25.925781 C 112.804688 26.847656 112.574219 28.113281 112.347656 29.261719 C 112.347656 29.605469 112.230469 29.953125 112.117188 30.296875 C 110.964844 35.816406 107.628906 40.53125 104.292969 45.019531 C 103.71875 45.824219 103.140625 46.628906 102.566406 47.433594 C 101.300781 49.273438 99.804688 51.460938 99.347656 53.757812 C 99 55.253906 99.117188 56.980469 99.117188 58.589844 L 99.117188 59.625 C 99.117188 61.582031 99.804688 64.109375 100.613281 66.753906 C 101.070312 68.367188 101.53125 69.976562 101.761719 71.472656 C 102.105469 73.082031 101.070312 74.347656 100.035156 74.804688 C 98.886719 75.265625 97.390625 75.035156 96.46875 73.65625 C 93.9375 69.632812 91.984375 63.535156 93.707031 59.738281 C 94.398438 58.246094 95.203125 56.75 96.007812 55.253906 C 97.964844 51.804688 99.691406 48.582031 99.921875 44.902344 C 99.921875 44.214844 99.921875 43.523438 99.921875 42.832031 C 99.921875 41.453125 99.804688 40.1875 100.152344 38.808594 C 100.726562 36.738281 102.105469 35.011719 103.488281 33.402344 C 109.46875 26.617188 116.257812 20.40625 123.503906 15.113281 C 124.769531 14.195312 126.035156 13.273438 126.496094 11.894531 C 126.613281 11.664062 126.613281 11.320312 126.613281 10.976562 C 126.382812 7.179688 129.144531 3.730469 132.824219 3.269531 C 133.628906 3.152344 134.664062 3.039062 135.699219 3.039062 L 165.613281 1.429688 C 172.746094 1.082031 180.109375 0.625 187.242188 2.464844 C 192.1875 3.730469 196.902344 6.144531 201.277344 8.445312 L 222.789062 19.371094 C 224.628906 20.289062 226.585938 21.324219 228.425781 22.589844 C 228.886719 22.246094 229.460938 22.015625 230.265625 22.015625 C 231.53125 22.015625 232.683594 22.707031 233.375 23.742188 C 239.585938 32.941406 245.109375 42.832031 249.824219 52.839844 C 250.746094 52.609375 251.550781 52.722656 252.355469 53.183594 C 253.390625 53.757812 253.964844 54.910156 254.082031 56.058594 C 254.3125 64.109375 255.921875 71.929688 258.914062 79.292969 C 259.144531 79.753906 259.257812 80.210938 259.488281 80.671875 C 259.949219 81.824219 260.410156 82.972656 260.871094 84.121094 C 261.328125 85.386719 260.871094 86.652344 259.949219 87.457031 C 259.605469 87.457031 258.914062 87.6875 258.222656 87.6875 Z M 119.132812 21.785156 C 119.59375 21.785156 120.167969 21.785156 120.746094 21.902344 C 122.699219 22.132812 124.082031 22.707031 125.230469 23.511719 C 129.601562 26.960938 127.070312 33.863281 125.691406 36.738281 C 121.664062 45.363281 116.488281 53.414062 110.273438 60.660156 L 109.699219 61.351562 C 107.515625 63.878906 105.214844 66.527344 104.40625 69.746094 C 103.832031 72.160156 104.0625 74.804688 104.292969 77.453125 C 104.40625 78.371094 104.523438 79.292969 104.523438 80.210938 C 104.636719 81.246094 105.328125 81.824219 105.902344 82.050781 C 106.59375 82.28125 107.515625 82.167969 108.203125 81.363281 C 109.238281 80.210938 110.160156 78.832031 111.082031 77.453125 C 112.691406 75.152344 114.1875 72.851562 116.371094 71.011719 C 121.433594 66.640625 128.222656 66.179688 134.894531 65.71875 C 139.382812 65.375 143.984375 65.144531 148.125 63.652344 C 153.417969 61.695312 157.671875 57.785156 161.816406 54.105469 C 165.382812 50.882812 169.0625 47.546875 173.433594 45.363281 C 175.503906 44.328125 177.808594 43.523438 180.109375 42.71875 C 177.230469 42.832031 174.242188 42.71875 171.363281 42.257812 C 168.601562 41.914062 167.222656 39.726562 166.992188 37.773438 C 166.761719 35.355469 168.027344 33.289062 170.214844 32.480469 C 176.65625 30.066406 184.019531 29.835938 190.347656 29.835938 C 191.957031 29.835938 193.453125 30.527344 194.375 31.675781 C 198.746094 28.917969 204.726562 29.03125 210.25 29.375 C 216.117188 29.722656 224.285156 29.492188 227.507812 23.972656 L 227.734375 23.625 C 227.851562 23.511719 227.964844 23.28125 228.082031 23.164062 C 226.355469 22.015625 224.398438 20.980469 222.675781 20.175781 L 201.160156 9.25 C 196.789062 6.949219 192.1875 4.648438 187.355469 3.382812 C 180.453125 1.542969 173.089844 2.003906 166.070312 2.347656 L 136.160156 3.957031 C 135.125 3.957031 134.203125 4.074219 133.398438 4.1875 C 130.292969 4.648438 128.105469 7.410156 128.335938 10.628906 C 128.335938 11.089844 128.335938 11.664062 128.105469 12.011719 C 127.53125 13.734375 126.035156 14.769531 124.65625 15.804688 C 121.894531 17.875 119.132812 20.0625 116.488281 22.359375 C 117.0625 21.902344 117.984375 21.785156 119.132812 21.785156 Z M 97.964844 53.757812 C 97.621094 54.335938 97.390625 54.792969 97.046875 55.371094 C 96.238281 56.75 95.433594 58.246094 94.742188 59.738281 C 93.25 62.960938 94.972656 68.597656 97.390625 72.390625 C 97.964844 73.3125 98.886719 73.3125 99.460938 73.082031 C 100.035156 72.851562 100.613281 72.160156 100.496094 71.242188 C 100.152344 69.746094 99.804688 68.136719 99.347656 66.640625 C 98.65625 63.878906 97.851562 61.351562 97.851562 59.164062 L 97.851562 58.246094 C 97.734375 56.863281 97.734375 55.253906 97.964844 53.757812 Z M 111.65625 26.15625 C 109.125 28.570312 106.707031 31.101562 104.40625 33.746094 C 103.027344 35.242188 101.875 36.738281 101.300781 38.578125 C 100.957031 39.726562 101.070312 40.992188 101.070312 42.257812 C 101.070312 42.949219 101.070312 43.753906 101.070312 44.441406 C 100.957031 45.476562 100.839844 46.628906 100.496094 47.664062 C 100.839844 47.203125 101.070312 46.742188 101.417969 46.285156 C 101.992188 45.476562 102.566406 44.671875 103.140625 43.867188 C 106.363281 39.496094 109.699219 34.898438 110.734375 29.605469 C 110.851562 29.261719 110.851562 28.917969 110.851562 28.6875 C 111.3125 27.882812 111.425781 27.078125 111.65625 26.15625 Z M 189.082031 31.101562 C 182.984375 31.101562 176.3125 31.445312 170.445312 33.632812 C 168.371094 34.4375 167.796875 36.277344 168.027344 37.65625 C 168.144531 39.039062 169.179688 40.761719 171.363281 40.992188 C 176.082031 41.683594 180.914062 41.566406 185.628906 40.878906 C 187.929688 40.074219 190.117188 39.269531 192.074219 38.234375 C 192.992188 37.773438 193.566406 36.96875 193.796875 36.277344 C 193.566406 36.277344 193.335938 36.164062 192.992188 36.046875 C 192.417969 35.933594 191.957031 35.472656 191.84375 34.78125 C 191.726562 34.207031 191.84375 33.515625 192.300781 33.058594 C 192.53125 32.828125 192.878906 32.597656 193.109375 32.367188 C 192.53125 31.675781 191.613281 31.101562 190.230469 31.101562 C 189.886719 31.101562 189.425781 31.101562 189.082031 31.101562 Z M 211.398438 32.023438 C 212.433594 32.023438 213.46875 32.136719 214.507812 32.367188 C 216.808594 32.941406 218.878906 34.4375 220.832031 35.703125 C 224.054688 37.886719 227.046875 39.84375 230.265625 38.460938 C 232.914062 37.3125 234.523438 34.320312 233.949219 31.332031 C 233.257812 27.882812 231.1875 25.464844 228.773438 23.625 C 228.65625 23.742188 228.65625 23.855469 228.542969 24.085938 L 228.3125 24.429688 C 224.628906 30.640625 216 30.871094 209.789062 30.527344 C 204.496094 30.183594 198.746094 30.183594 194.71875 32.710938 C 194.832031 32.941406 194.949219 33.285156 195.0625 33.632812 C 195.179688 34.09375 195.292969 34.667969 195.179688 35.128906 C 197.710938 35.242188 200.46875 34.4375 203.230469 33.632812 C 205.992188 32.828125 208.753906 32.023438 211.398438 32.023438 Z M 193.683594 33.515625 C 193.453125 33.632812 193.335938 33.863281 193.109375 34.09375 C 192.878906 34.207031 192.992188 34.4375 192.992188 34.550781 C 192.992188 34.667969 193.109375 34.78125 193.335938 34.898438 C 193.566406 35.011719 193.796875 35.011719 194.027344 35.011719 C 194.027344 34.667969 194.027344 34.320312 193.914062 33.976562 C 193.796875 33.746094 193.796875 33.632812 193.683594 33.515625 Z M 193.683594 33.515625 " fill-opacity="1" fill-rule="nonzero"/><path fill="#2f2851" d="M 193.683594 552.796875 C 190.347656 552.796875 187.125 552.222656 184.25 551.1875 C 180.453125 549.808594 177 546.472656 175.964844 543.136719 C 175.277344 541.066406 175.503906 538.996094 176.65625 537.273438 C 178.957031 533.9375 183.445312 533.476562 187.699219 533.476562 C 201.964844 533.589844 216.347656 533.707031 230.613281 534.050781 C 231.300781 533.363281 231.992188 532.554688 232.566406 531.75 C 226.011719 531.0625 219.453125 530.257812 213.125 529.449219 C 197.019531 527.378906 180.453125 525.195312 164.117188 526.460938 C 155.601562 527.152344 146.976562 528.644531 138.578125 530.257812 C 132.25 531.40625 125.691406 532.671875 119.25 533.363281 C 100.726562 535.660156 86.117188 533.707031 74.609375 527.496094 C 67.476562 523.699219 62.992188 518.523438 61.726562 512.890625 C 61.265625 510.472656 61.265625 508.058594 61.382812 505.644531 C 61.382812 504.839844 61.382812 504.148438 61.382812 503.34375 C 61.382812 492.070312 57.125 480.914062 53.210938 471.023438 L 26.0625 400.980469 L 27.210938 400.523438 L 54.25 470.566406 C 58.160156 480.570312 62.53125 491.84375 62.417969 503.34375 C 62.417969 504.148438 62.417969 504.953125 62.417969 505.644531 C 62.300781 507.945312 62.300781 510.359375 62.761719 512.542969 C 64.257812 519.675781 71.042969 524.277344 74.957031 526.34375 C 86.230469 532.441406 100.613281 534.28125 118.902344 532.097656 C 125.347656 531.292969 131.902344 530.140625 138.117188 528.992188 C 146.515625 527.496094 155.144531 525.886719 163.769531 525.195312 C 180.222656 523.929688 196.902344 526.117188 213.011719 528.1875 C 219.683594 529.105469 226.472656 529.910156 233.257812 530.601562 C 235.214844 527.839844 236.710938 524.964844 237.515625 522.089844 C 237.859375 520.824219 238.089844 519.558594 238.433594 518.292969 C 239.011719 515.648438 239.585938 512.890625 240.964844 510.589844 C 244.648438 504.261719 252.242188 502.539062 259.605469 500.929688 C 267.195312 499.203125 274.328125 497.59375 277.4375 491.382812 L 278.585938 491.957031 C 275.136719 498.628906 267.425781 500.46875 259.949219 502.078125 C 252.816406 503.6875 245.566406 505.296875 242.117188 511.164062 C 240.851562 513.347656 240.277344 515.878906 239.699219 518.523438 C 239.472656 519.789062 239.125 521.054688 238.78125 522.320312 C 237.976562 525.195312 236.59375 527.957031 234.753906 530.714844 C 242.460938 531.40625 250.285156 531.75 257.992188 531.40625 C 269.382812 530.945312 281.003906 528.992188 292.046875 527.035156 C 305.851562 524.621094 320.117188 522.207031 334.382812 522.550781 C 336.453125 522.550781 343.125 523.125 343.816406 527.957031 C 344.390625 532.097656 339.675781 534.625 335.535156 535.546875 C 322.074219 538.421875 308.039062 537.847656 294.460938 537.273438 L 293.542969 537.273438 C 272.832031 536.351562 251.894531 535.660156 231.074219 535.316406 C 227.507812 538.996094 222.90625 542.449219 217.265625 545.550781 C 208.640625 550.382812 200.816406 552.796875 193.683594 552.796875 Z M 187.242188 534.855469 C 183.328125 534.855469 179.417969 535.316406 177.578125 538.078125 C 176.65625 539.457031 176.425781 541.066406 177 542.90625 C 178.035156 545.898438 181.027344 548.886719 184.59375 550.152344 C 193.453125 553.375 204.265625 551.535156 216.578125 544.632812 C 221.640625 541.757812 225.894531 538.765625 229.230469 535.429688 C 215.3125 535.203125 201.390625 534.972656 187.46875 534.855469 C 187.46875 534.855469 187.355469 534.855469 187.242188 534.855469 Z M 232.222656 534.167969 C 252.699219 534.625 273.292969 535.316406 293.65625 536.121094 L 294.578125 536.121094 C 308.039062 536.695312 322.074219 537.273438 335.304688 534.394531 C 338.292969 533.820312 343.125 531.75 342.667969 528.1875 C 342.207031 524.390625 336.222656 523.929688 334.5 523.816406 C 320.347656 523.46875 306.195312 525.886719 292.390625 528.300781 C 281.230469 530.257812 269.613281 532.210938 258.109375 532.671875 C 250.054688 533.015625 242 532.554688 233.949219 531.867188 C 233.488281 532.671875 232.796875 533.476562 232.222656 534.167969 Z M 232.222656 534.167969 " fill-opacity="1" fill-rule="nonzero"/><path fill="#2f2851" d="M 202.773438 230.878906 C 198.167969 230.878906 194.488281 227.082031 191.382812 223.632812 L 190.921875 223.171875 C 184.941406 216.847656 177.691406 211.671875 169.753906 208.105469 C 168.832031 207.644531 167.914062 207.300781 166.992188 206.839844 C 163.082031 205.230469 159.054688 203.503906 155.949219 200.398438 L 156.867188 199.480469 C 159.746094 202.355469 163.769531 204.082031 167.566406 205.691406 C 168.488281 206.152344 169.523438 206.496094 170.445312 206.957031 C 178.496094 210.519531 185.976562 215.925781 191.957031 222.253906 L 192.417969 222.710938 C 195.523438 226.046875 199.089844 229.84375 203.460938 229.5 C 204.265625 229.382812 205.074219 229.269531 205.648438 228.921875 C 206.914062 228.234375 207.832031 226.738281 208.179688 224.898438 C 208.640625 221.90625 207.375 219.03125 206.109375 216.042969 C 205.1875 214.085938 204.382812 212.015625 203.921875 209.832031 C 202.542969 202.355469 207.488281 195.339844 212.089844 189.359375 C 216.808594 183.378906 221.410156 176.9375 220.257812 169.921875 L 221.523438 169.691406 C 222.789062 177.167969 218.074219 183.839844 213.125 190.050781 C 208.640625 195.800781 203.921875 202.46875 205.1875 209.484375 C 205.53125 211.441406 206.453125 213.511719 207.257812 215.351562 C 208.640625 218.34375 209.90625 221.5625 209.445312 224.898438 C 209.097656 227.082031 207.949219 228.921875 206.339844 229.84375 C 205.53125 230.304688 204.613281 230.535156 203.578125 230.648438 C 203.117188 230.878906 202.886719 230.878906 202.773438 230.878906 Z M 202.773438 230.878906 " fill-opacity="1" fill-rule="nonzero"/></g></g></g></svg>